<svg xmlns="http://www.w3.org/2000/svg" width="10" height="10" viewBox="0 0 10 10">
  <defs>
    <style>
      .cls-1 {
        fill: #fff;
        fill-rule: evenodd;
      }
    </style>
  </defs>
  <path id="Фигура_8" data-name="Фигура 8" class="cls-1" d="M1020,781a5,5,0,1,0,5,5,5,5,0,0,0-5-5h0Zm2.38,7.586a0.421,0.421,0,0,1-.3.122,0.415,0.415,0,0,1-.29-0.122l-2.08-2.083a0.417,0.417,0,0,1-.13-0.3V783.5a0.42,0.42,0,0,1,.84,0v2.536l1.96,1.961a0.421,0.421,0,0,1,0,.589h0Z" transform="translate(-1015 -781)"/>
</svg>
