<svg xmlns="http://www.w3.org/2000/svg" xmlns:xlink="http://www.w3.org/1999/xlink" preserveAspectRatio="xMidYMid" width="29.969" height="29.91" viewBox="0 0 29.969 29.91">
  <defs>
    <style>
      .cls-1 {
        fill: #fff;
        fill-rule: evenodd;
      }
    </style>
  </defs>
  <path d="M29.870,21.126 C29.665,25.580 27.570,28.059 24.794,29.136 C22.753,29.926 20.761,29.922 14.987,29.922 C9.360,29.922 5.421,30.300 2.528,27.411 C-0.310,24.574 0.015,20.783 0.015,14.959 C0.015,9.267 -0.354,5.387 2.528,2.507 C4.252,0.784 6.391,0.199 8.816,0.085 C11.575,-0.037 18.403,-0.044 21.160,0.085 C26.800,0.344 29.623,3.533 29.870,8.790 C29.992,11.547 30.000,18.370 29.870,21.126 ZM27.264,14.958 C27.264,10.962 27.248,10.488 27.177,8.909 C26.864,1.992 21.643,2.688 14.990,2.688 L14.934,2.650 C10.929,2.650 10.461,2.669 8.871,2.726 C1.947,3.080 2.655,8.045 2.655,14.939 C2.655,20.033 2.275,23.394 4.378,25.487 C6.205,27.317 8.708,27.224 14.951,27.224 C21.014,27.224 23.635,27.393 25.524,25.505 C27.380,23.641 27.263,21.124 27.264,14.958 ZM22.980,8.767 C21.988,8.767 21.184,7.963 21.184,6.972 C21.184,5.980 21.988,5.176 22.980,5.176 C23.973,5.176 24.777,5.980 24.777,6.972 C24.777,7.963 23.973,8.767 22.980,8.767 ZM14.987,22.643 C10.742,22.643 7.299,19.205 7.299,14.959 C7.299,10.716 10.738,7.274 14.987,7.274 C19.232,7.274 22.676,10.712 22.676,14.959 C22.676,19.201 19.236,22.643 14.987,22.643 ZM14.987,9.971 C12.230,9.971 9.997,12.204 9.997,14.959 C9.997,17.714 12.229,19.946 14.987,19.946 C17.745,19.946 19.979,17.714 19.978,14.959 C19.978,12.204 17.744,9.971 14.987,9.971 Z" class="cls-1"/>
</svg>
