<svg xmlns="http://www.w3.org/2000/svg" xmlns:xlink="http://www.w3.org/1999/xlink" preserveAspectRatio="xMidYMid" width="18.719" height="29.94" viewBox="0 0 18.719 29.94">
  <defs>
    <style>
      .cls-1 {
        fill: #fff;
        fill-rule: evenodd;
      }
    </style>
  </defs>
  <path d="M16.347,19.508 L16.349,19.510 C14.686,20.528 12.397,20.931 10.885,21.083 C10.510,20.721 16.660,26.626 16.787,26.747 C18.481,28.419 15.725,31.032 14.013,29.418 C12.854,28.284 11.154,26.647 9.381,24.940 L4.748,29.412 C3.037,31.020 0.280,28.384 1.993,26.741 C6.462,22.438 7.597,21.345 7.825,21.125 C7.777,21.172 7.733,21.215 7.876,21.077 C6.383,20.924 4.059,20.544 2.377,19.504 C0.397,18.276 -0.470,17.557 0.294,16.055 C0.744,15.201 1.975,14.481 3.607,15.721 C3.607,15.721 5.810,17.411 9.367,17.411 C12.923,17.411 15.127,15.721 15.127,15.721 C16.760,14.488 17.986,15.201 18.441,16.055 C19.194,17.557 18.326,18.275 16.347,19.508 ZM7.825,21.125 C7.869,21.084 7.912,21.041 7.825,21.125 ZM9.365,15.133 C5.029,15.133 1.489,11.742 1.489,7.568 C1.489,3.377 5.029,-0.014 9.365,-0.014 C13.699,-0.014 17.238,3.377 17.238,7.568 C17.238,11.742 13.699,15.133 9.365,15.133 ZM9.365,3.827 C7.233,3.827 5.496,5.499 5.497,7.568 C5.497,9.619 7.235,11.292 9.365,11.292 C11.494,11.292 13.232,9.619 13.232,7.568 C13.232,5.500 11.494,3.827 9.365,3.827 Z" class="cls-1"/>
</svg>
