<svg xmlns="http://www.w3.org/2000/svg" xmlns:xlink="http://www.w3.org/1999/xlink" preserveAspectRatio="xMidYMid" width="29.937" height="21.18" viewBox="0 0 29.937 21.18">
  <defs>
    <style>
      .cls-1 {
        fill: #fff;
        fill-rule: evenodd;
      }
    </style>
  </defs>
  <path d="M29.274,3.017 L29.311,3.261 C28.949,1.978 27.971,0.988 26.729,0.627 L26.703,0.621 C24.366,-0.013 14.964,-0.013 14.964,-0.013 C14.964,-0.013 5.586,-0.025 3.226,0.621 C1.960,0.988 0.981,1.978 0.625,3.235 L0.618,3.261 C-0.254,7.815 -0.261,13.287 0.657,18.163 L0.618,17.916 C0.981,19.200 1.958,20.190 3.201,20.551 L3.227,20.557 C5.561,21.192 14.966,21.192 14.966,21.192 C14.966,21.192 24.342,21.192 26.704,20.557 C27.971,20.190 28.950,19.200 29.306,17.943 L29.313,17.916 C29.710,15.798 29.937,13.361 29.937,10.871 C29.937,10.780 29.937,10.688 29.936,10.596 C29.937,10.511 29.937,10.410 29.937,10.309 C29.937,7.818 29.710,5.381 29.274,3.017 L29.274,3.017 ZM11.965,15.143 L11.965,6.046 L19.789,10.602 L11.965,15.143 Z" class="cls-1"/>
</svg>
