<?xml version="1.0" encoding="utf-8"?>
<!-- Generator: Adobe Illustrator 19.0.0, SVG Export Plug-In . SVG Version: 6.00 Build 0)  -->
<svg version="1.1" id="Background" xmlns="http://www.w3.org/2000/svg" xmlns:xlink="http://www.w3.org/1999/xlink" x="0px" y="0px"
	 viewBox="0 0 450 450" style="enable-background:new 0 0 450 450;" xml:space="preserve">
<style type="text/css">
	.st0{fill:url(#SVGID_1_);}
	.st1{opacity:0;fill:#FFFFFF;}
	.st2{opacity:3.225800e-002;fill:#FDFDFD;}
	.st3{opacity:6.451600e-002;fill:#FAFAFA;}
	.st4{opacity:9.677400e-002;fill:#F8F8F8;}
	.st5{opacity:0.129;fill:#F6F6F5;}
	.st6{opacity:0.1613;fill:#F4F4F3;}
	.st7{opacity:0.1935;fill:#F1F1F1;}
	.st8{opacity:0.2258;fill:#EFEFEE;}
	.st9{opacity:0.2581;fill:#EDEDEC;}
	.st10{opacity:0.2903;fill:#EAEAEA;}
	.st11{opacity:0.3226;fill:#E8E8E7;}
	.st12{opacity:0.3548;fill:#E6E6E5;}
	.st13{opacity:0.3871;fill:#E4E4E2;}
	.st14{opacity:0.4194;fill:#E1E1E0;}
	.st15{opacity:0.4516;fill:#DFDFDE;}
	.st16{opacity:0.4839;fill:#DDDDDB;}
	.st17{opacity:0.5161;fill:#DADAD9;}
	.st18{opacity:0.5484;fill:#D8D8D6;}
	.st19{opacity:0.5806;fill:#D6D6D4;}
	.st20{opacity:0.6129;fill:#D3D3D2;}
	.st21{opacity:0.6452;fill:#D1D1CF;}
	.st22{opacity:0.6774;fill:#CFCFCD;}
	.st23{opacity:0.7097;fill:#CDCDCA;}
	.st24{opacity:0.7419;fill:#CACAC8;}
	.st25{opacity:0.7742;fill:#C8C8C6;}
	.st26{opacity:0.8065;fill:#C6C6C3;}
	.st27{opacity:0.8387;fill:#C3C3C1;}
	.st28{opacity:0.871;fill:#C1C1BF;}
	.st29{opacity:0.9032;fill:#BFBFBC;}
	.st30{opacity:0.9355;fill:#BDBDBA;}
	.st31{opacity:0.9677;fill:#BABAB7;}
	.st32{fill:#B8B8B5;}
	.st33{opacity:0;fill:#B8B8B5;}
	.st34{opacity:4.761900e-002;fill:#B8B8B5;}
	.st35{opacity:9.523800e-002;fill:#B8B8B5;}
	.st36{opacity:0.1429;fill:#B8B8B5;}
	.st37{opacity:0.1905;fill:#B8B8B5;}
	.st38{opacity:0.2381;fill:#B8B8B5;}
	.st39{opacity:0.2857;fill:#B8B8B5;}
	.st40{opacity:0.3333;fill:#B8B8B5;}
	.st41{opacity:0.381;fill:#B8B8B5;}
	.st42{opacity:0.4286;fill:#B8B8B5;}
	.st43{opacity:0.4762;fill:#B8B8B5;}
	.st44{opacity:0.5238;fill:#B8B8B5;}
	.st45{opacity:0.5714;fill:#B8B8B5;}
	.st46{opacity:0.619;fill:#B8B8B5;}
	.st47{opacity:0.6667;fill:#B8B8B5;}
	.st48{opacity:0.7143;fill:#B8B8B5;}
	.st49{opacity:0.7619;fill:#B8B8B5;}
	.st50{opacity:0.8095;fill:#B8B8B5;}
	.st51{opacity:0.8571;fill:#B8B8B5;}
	.st52{opacity:0.9048;fill:#B8B8B5;}
	.st53{opacity:0.9524;fill:#B8B8B5;}
	.st54{fill:#323332;}
	.st55{opacity:4.761900e-002;fill:#FCFCFB;}
	.st56{opacity:9.523800e-002;fill:#F8F8F8;}
	.st57{opacity:0.1429;fill:#F5F5F4;}
	.st58{opacity:0.1905;fill:#F1F1F1;}
	.st59{opacity:0.2381;fill:#EEEEED;}
	.st60{opacity:0.2857;fill:#EBEBEA;}
	.st61{opacity:0.3333;fill:#E7E7E6;}
	.st62{opacity:0.381;fill:#E4E4E3;}
	.st63{opacity:0.4286;fill:#E1E1DF;}
	.st64{opacity:0.4762;fill:#DDDDDC;}
	.st65{opacity:0.5238;fill:#DADAD8;}
	.st66{opacity:0.5714;fill:#D6D6D5;}
	.st67{opacity:0.619;fill:#D3D3D1;}
	.st68{opacity:0.6667;fill:#D0D0CE;}
	.st69{opacity:0.7143;fill:#CCCCCA;}
	.st70{opacity:0.7619;fill:#C9C9C7;}
	.st71{opacity:0.8095;fill:#C6C6C3;}
	.st72{opacity:0.8571;fill:#C2C2C0;}
	.st73{opacity:0.9048;fill:#BFBFBC;}
	.st74{opacity:0.9524;fill:#BBBBB9;}
	.st75{opacity:0.3197;fill:#E8E8E7;}
	.st76{opacity:0.3537;fill:#E5E5E3;}
	.st77{opacity:0.3878;fill:#E1E1E0;}
	.st78{opacity:0.4218;fill:#DEDEDD;}
	.st79{opacity:0.4558;fill:#DBDBD9;}
	.st80{opacity:0.4898;fill:#D8D8D6;}
	.st81{opacity:0.5238;fill:#D4D4D3;}
	.st82{opacity:0.5578;fill:#D1D1CF;}
	.st83{opacity:0.5918;fill:#CECECC;}
	.st84{opacity:0.6259;fill:#CBCBC9;}
	.st85{opacity:0.6599;fill:#C7C7C5;}
	.st86{opacity:0.6939;fill:#C4C4C2;}
	.st87{opacity:0.7279;fill:#C1C1BF;}
	.st88{opacity:0.7619;fill:#BEBEBB;}
	.st89{opacity:0.7959;fill:#BABAB8;}
	.st90{opacity:0.8299;fill:#B7B7B5;}
	.st91{opacity:0.8639;fill:#B4B4B1;}
	.st92{opacity:0.898;fill:#B1B1AE;}
	.st93{opacity:0.932;fill:#ADADAB;}
	.st94{opacity:0.966;fill:#AAAAA7;}
	.st95{fill:#A7A7A4;}
	.st96{fill:#FC352E;}
	.st97{fill:#1D1D1D;}
	.st98{fill:#282928;}
	.st99{fill:#808080;}
	.st100{opacity:0.7;fill:#FFFFFF;}
	.st101{opacity:0.5;fill:url(#SVGID_2_);}
	.st102{fill:#423F3A;}
	.st103{opacity:0.5;fill:url(#SVGID_3_);}
	.st104{opacity:0.5;fill:#FFFFFF;}
	.st105{opacity:0.5;fill:url(#SVGID_4_);}
</style>
<g>
	<g>
		<g>
			<radialGradient id="SVGID_1_" cx="228.0764" cy="215.5085" r="178.1588" gradientUnits="userSpaceOnUse">
				<stop  offset="0.4742" style="stop-color:#E3E3E3"/>
				<stop  offset="0.705" style="stop-color:#E1E1E1"/>
				<stop  offset="0.7881" style="stop-color:#DADADA"/>
				<stop  offset="0.8473" style="stop-color:#CFCFCF"/>
				<stop  offset="0.8952" style="stop-color:#BEBEBE"/>
				<stop  offset="0.9362" style="stop-color:#A8A8A8"/>
				<stop  offset="0.9719" style="stop-color:#8D8D8D"/>
				<stop  offset="1" style="stop-color:#727272"/>
			</radialGradient>
			<circle class="st0" cx="228.1" cy="215.5" r="178.2"/>
			
				<image style="overflow:visible;" width="1616" height="1616" xlink:href="9E1E42CA.png"  transform="matrix(0.24 0 0 0.24 34.2658 21.698)">
			</image>
			<g>
				<path class="st1" d="M76.7,218.1c11.3-95.7,87.5-138.5,163.7-133.9C311,88.6,365.4,138.6,375.1,223
					c4.5,39.5-9.1,72.1-19.8,106.6c26.6-30,45.5-69.6,42.8-112.8c-6.9-112.4-79.2-168.5-170-170c-93.9-1.6-170,76.1-170,170
					c0,22.2,5.5,66,27.3,89.5C79.4,286.4,74.4,237.2,76.7,218.1z"/>
				<path class="st2" d="M76.2,218.1c11.2-96.1,87.7-139.4,164-134.7c70.7,4.3,125.6,54.7,135.3,139.1c4.5,39.5-9.1,72.5-20.3,107.2
					c26.6-30,45.5-69.6,42.8-112.8c-6.9-112.4-79.2-168.5-170-170c-93.9-1.6-170,76.1-170,170c0,22.2,5.5,66,27.3,89.5
					C79,285.9,74,237.2,76.2,218.1z"/>
				<path class="st3" d="M75.7,218c11.1-96.4,87.8-140.3,164.4-135.6c70.7,4.3,126.2,55,135.9,139.4c4.5,39.5-9.1,73-20.7,107.7
					c26.6-30,45.5-69.6,42.8-112.8c-6.9-112.4-79.2-168.5-170-170c-93.9-1.6-170,76.1-170,170c0,22.2,5.5,66,27.3,89.5
					C78.6,285.3,73.5,237.1,75.7,218z"/>
				<path class="st4" d="M75.3,218c10.9-96.8,88-141.2,164.8-136.5c70.7,4.4,126.8,55.4,136.5,139.8c4.5,39.5-9.1,73.5-21.2,108.3
					c26.6-30,45.5-69.6,42.8-112.8c-6.9-112.4-79.2-168.5-170-170c-93.9-1.6-170,76.1-170,170c0,22.2,5.5,66,27.3,89.5
					C78.3,284.7,73.1,237.1,75.3,218z"/>
				<path class="st5" d="M74.8,217.9C85.6,120.8,162.9,75.8,240,80.6c70.7,4.4,127.3,55.7,137,140.1c4.5,39.5-9.1,74-21.7,108.9
					c26.6-30,45.5-69.6,42.8-112.8c-6.9-112.4-79.2-168.5-170-170c-93.9-1.6-170,76.1-170,170c0,22.2,5.5,66,27.3,89.5
					C77.9,284.2,72.6,237.1,74.8,217.9z"/>
				<path class="st6" d="M74.3,217.9c10.7-97.5,88.3-143,165.5-138.2c70.7,4.4,127.9,56.1,137.6,140.5c4.5,39.5-9.1,74.5-22.2,109.4
					c26.6-30,45.5-69.6,42.8-112.8c-6.9-112.4-79.2-168.5-170-170c-93.9-1.6-170,76.1-170,170c0,22.2,5.5,66,27.3,89.5
					C77.5,283.6,72.2,237,74.3,217.9z"/>
				<path class="st7" d="M73.9,217.8c10.6-97.9,88.4-144,165.9-139.1c70.7,4.4,128.5,56.4,138.2,140.9c4.5,39.5-9.1,75-22.6,110
					c26.6-30,45.5-69.6,42.8-112.8c-6.9-112.4-79.2-168.5-170-170c-93.9-1.6-170,76.1-170,170c0,22.2,5.5,66,27.3,89.5
					C77.1,283.1,71.8,237,73.9,217.8z"/>
				<path class="st8" d="M73.4,217.8c10.5-98.2,88.6-144.9,166.3-140c70.7,4.4,129.1,56.8,138.7,141.2c4.5,39.5-9.1,75.5-23.1,110.6
					c26.6-30,45.5-69.6,42.8-112.8c-6.9-112.4-79.2-168.5-170-170c-93.9-1.6-170,76.1-170,170c0,22.2,5.5,66,27.3,89.5
					C76.7,282.5,71.3,236.9,73.4,217.8z"/>
				<path class="st9" d="M72.9,217.7C83.3,119.1,161.6,72,239.6,76.9c70.7,4.5,129.6,57.2,139.3,141.6c4.5,39.5-9.1,76-23.6,111.1
					c26.6-30,45.5-69.6,42.8-112.8c-6.9-112.4-79.2-168.5-170-170c-93.9-1.6-170,76.1-170,170c0,22.2,5.5,66,27.3,89.5
					C76.4,282,70.9,236.9,72.9,217.7z"/>
				<path class="st10" d="M72.5,217.7c10.3-99,88.9-146.7,167-141.7c70.7,4.5,130.2,57.5,139.9,141.9c4.5,39.5-9.1,76.5-24.1,111.7
					c26.6-30,45.5-69.6,42.8-112.8c-6.9-112.4-79.2-168.5-170-170c-93.9-1.6-170,76.1-170,170c0,22.2,5.5,66,27.3,89.5
					C76,281.4,70.5,236.8,72.5,217.7z"/>
				<path class="st11" d="M72,217.6C82.1,118.3,161,70,239.4,75c70.7,4.5,130.8,57.9,140.4,142.3c4.5,39.5-9.1,77-24.5,112.3
					c26.6-30,45.5-69.6,42.8-112.8c-6.9-112.4-79.2-168.5-170-170c-93.9-1.6-170,76.1-170,170c0,22.2,5.5,66,27.3,89.5
					C75.6,280.9,70,236.8,72,217.6z"/>
				<path class="st12" d="M71.5,217.6c10-99.7,89.2-148.5,167.8-143.5c70.7,4.5,131.3,58.2,141,142.6c4.5,39.5-9,77.5-25,112.8
					c26.6-30,45.5-69.6,42.8-112.8c-6.9-112.4-79.2-168.5-170-170c-93.9-1.6-170,76.1-170,170c0,22.2,5.5,66,27.3,89.5
					C75.2,280.3,69.6,236.7,71.5,217.6z"/>
				<path class="st13" d="M71.1,217.5c9.9-100,89.3-149.4,168.1-144.4c70.7,4.5,131.9,58.6,141.6,143c4.5,39.5-9,78-25.5,113.4
					c26.6-30,45.5-69.6,42.8-112.8c-6.9-112.4-79.2-168.5-170-170c-93.9-1.6-170,76.1-170,170c0,22.2,5.5,66,27.3,89.5
					C74.8,279.8,69.1,236.7,71.1,217.5z"/>
				<path class="st14" d="M70.6,217.5c9.8-100.4,89.5-150.3,168.5-145.2c70.7,4.5,132.5,59,142.1,143.4c4.5,39.5-9,78.5-26,114
					c26.6-30,45.5-69.6,42.8-112.8c-6.9-112.4-79.2-168.5-170-170c-93.9-1.6-170,76.1-170,170c0,22.2,5.5,66,27.3,89.5
					C74.4,279.2,68.7,236.6,70.6,217.5z"/>
				<path class="st15" d="M70.1,217.4C79.8,116.7,159.8,66.2,239,71.3c70.7,4.6,133,59.3,142.7,143.7c4.5,39.5-9,78.9-26.4,114.5
					c26.6-30,45.5-69.6,42.8-112.8c-6.9-112.4-79.2-168.5-170-170c-93.9-1.6-170,76.1-170,170c0,22.2,5.5,66,27.3,89.5
					C74.1,278.6,68.3,236.6,70.1,217.4z"/>
				<path class="st16" d="M69.7,217.4c9.6-101.1,89.8-152.1,169.3-147c70.7,4.6,133.6,59.7,143.3,144.1c4.5,39.5-9,79.4-26.9,115.1
					c26.6-30,45.5-69.6,42.8-112.8c-6.9-112.4-79.2-168.5-170-170c-93.9-1.6-170,76.1-170,170c0,22.2,5.5,66,27.3,89.5
					C73.7,278.1,67.8,236.5,69.7,217.4z"/>
				<path class="st17" d="M69.2,217.3c9.5-101.5,89.9-153,169.6-147.8c70.7,4.6,134.2,60,143.8,144.4c4.5,39.5-9,79.9-27.4,115.6
					c26.6-30,45.5-69.6,42.8-112.8c-6.9-112.4-79.2-168.5-170-170c-93.9-1.6-170,76.1-170,170c0,22.2,5.5,66,27.3,89.5
					C73.3,277.5,67.4,236.5,69.2,217.3z"/>
				<path class="st18" d="M68.7,217.3c9.4-101.9,90.1-154,170-148.7c70.7,4.6,134.7,60.4,144.4,144.8c4.5,39.5-9,80.4-27.8,116.2
					c26.6-30,45.5-69.6,42.8-112.8c-6.9-112.4-79.2-168.5-170-170c-93.9-1.6-170,76.1-170,170c0,22.2,5.5,66,27.3,89.5
					C72.9,277,66.9,236.4,68.7,217.3z"/>
				<path class="st19" d="M68.3,217.2C77.5,115,158.5,62.4,238.6,67.6c70.7,4.6,135.3,60.7,145,145.2c4.5,39.5-9,80.9-28.3,116.8
					c26.6-30,45.5-69.6,42.8-112.8c-6.9-112.4-79.2-168.5-170-170c-93.9-1.6-170,76.1-170,170c0,22.2,5.5,66,27.3,89.5
					C72.5,276.4,66.5,236.4,68.3,217.2z"/>
				<path class="st20" d="M67.8,217.2c9.1-102.6,90.4-155.8,170.8-150.5c70.7,4.7,135.9,61.1,145.5,145.5
					c4.5,39.5-9,81.4-28.8,117.3c26.6-30,45.5-69.6,42.8-112.8c-6.9-112.4-79.2-168.5-170-170c-93.9-1.6-170,76.1-170,170
					c0,22.2,5.5,66,27.3,89.5C72.2,275.9,66.1,236.3,67.8,217.2z"/>
				<path class="st21" d="M67.3,217.1c9-102.9,90.5-156.7,171.1-151.3c70.7,4.7,136.4,61.5,146.1,145.9c4.5,39.5-9,81.9-29.3,117.9
					c26.6-30,45.5-69.6,42.8-112.8c-6.9-112.4-79.2-168.5-170-170c-93.9-1.6-170,76.1-170,170c0,22.2,5.5,66,27.3,89.5
					C71.8,275.3,65.6,236.3,67.3,217.1z"/>
				<path class="st22" d="M66.9,217.1c8.9-103.3,90.7-157.6,171.5-152.2c70.7,4.7,137,61.8,146.7,146.2c4.5,39.5-9,82.4-29.7,118.5
					c26.6-30,45.5-69.6,42.8-112.8c-6.9-112.4-79.2-168.5-170-170c-93.9-1.6-170,76.1-170,170c0,22.2,5.5,66,27.3,89.5
					C71.4,274.8,65.2,236.2,66.9,217.1z"/>
				<path class="st23" d="M66.4,217c8.8-103.7,90.8-158.5,171.9-153.1c70.7,4.7,137.6,62.2,147.2,146.6c4.5,39.5-8.9,82.9-30.2,119
					c26.6-30,45.5-69.6,42.8-112.8c-6.9-112.4-79.2-168.5-170-170c-93.9-1.6-170,76.1-170,170c0,22.2,5.5,66,27.3,89.5
					C71,274.2,64.8,236.2,66.4,217z"/>
				<path class="st24" d="M65.9,217c8.7-104,91-159.4,172.2-154c70.7,4.7,138.1,62.5,147.8,146.9c4.5,39.5-8.9,83.4-30.7,119.6
					c26.6-30,45.5-69.6,42.8-112.8c-6.9-112.4-79.2-168.5-170-170c-93.9-1.6-170,76.1-170,170c0,22.2,5.5,66,27.3,89.5
					C70.6,273.6,64.3,236.1,65.9,217z"/>
				<path class="st25" d="M65.5,216.9C74,112.5,156.6,56.6,238.1,62.1c70.7,4.7,138.7,62.9,148.4,147.3
					c4.5,39.5-8.9,83.9-31.2,120.2c26.6-30,45.5-69.6,42.8-112.8c-6.9-112.4-79.2-168.5-170-170c-93.9-1.6-170,76.1-170,170
					c0,22.2,5.5,66,27.3,89.5C70.2,273.1,63.9,236.1,65.5,216.9z"/>
				<path class="st26" d="M65,216.9c8.5-104.8,91.3-161.2,173-155.7c70.7,4.8,139.3,63.3,148.9,147.7c4.5,39.5-8.9,84.4-31.6,120.7
					c26.6-30,45.5-69.6,42.8-112.8c-6.9-112.4-79.2-168.5-170-170c-93.9-1.6-170,76.1-170,170c0,22.2,5.5,66,27.3,89.5
					C69.9,272.5,63.4,236,65,216.9z"/>
				<path class="st27" d="M64.5,216.8C72.9,111.7,156,54.7,237.9,60.2c70.7,4.8,139.8,63.6,149.5,148c4.5,39.5-8.9,84.8-32.1,121.3
					c26.6-30,45.5-69.6,42.8-112.8c-6.9-112.4-79.2-168.5-170-170c-93.9-1.6-170,76.1-170,170c0,22.2,5.5,66,27.3,89.5
					C69.5,272,63,236,64.5,216.8z"/>
				<path class="st28" d="M64.1,216.8c8.2-105.5,91.6-163.1,173.7-157.5c70.7,4.8,140.4,64,150.1,148.4
					c4.5,39.5-8.9,85.3-32.6,121.9c26.6-30,45.5-69.6,42.8-112.8c-6.9-112.4-79.2-168.5-170-170c-93.9-1.6-170,76.1-170,170
					c0,22.2,5.5,66,27.3,89.5C69.1,271.4,62.6,235.9,64.1,216.8z"/>
				<path class="st29" d="M63.6,216.7c8.1-105.8,91.7-164,174.1-158.3c70.7,4.8,141,64.3,150.7,148.7c4.5,39.5-8.9,85.8-33.1,122.4
					c26.6-30,45.5-69.6,42.8-112.8c-6.9-112.4-79.2-168.5-170-170c-93.9-1.6-170,76.1-170,170c0,22.2,5.5,66,27.3,89.5
					C68.7,270.9,62.1,235.9,63.6,216.7z"/>
				<path class="st30" d="M63.1,216.7c8-106.2,91.9-164.9,174.5-159.2c70.7,4.8,141.5,64.7,151.2,149.1c4.5,39.5-8.9,86.3-33.5,123
					c26.6-30,45.5-69.6,42.8-112.8c-6.9-112.4-79.2-168.5-170-170c-93.9-1.6-170,76.1-170,170c0,22.2,5.5,66,27.3,89.5
					C68.3,270.3,61.7,235.8,63.1,216.7z"/>
				<path class="st31" d="M62.7,216.6c7.9-106.6,92-165.8,174.8-160.1c70.7,4.9,142.1,65,151.8,149.5c4.5,39.5-8.9,86.8-34,123.6
					c26.6-30,45.5-69.6,42.8-112.8c-6.9-112.4-79.2-168.5-170-170c-93.9-1.6-170,76.1-170,170c0,22.2,5.5,66,27.3,89.5
					C68,269.8,61.2,235.8,62.7,216.6z"/>
				<path class="st32" d="M62.2,216.6c7.8-106.9,92.2-166.7,175.2-161c70.7,4.9,142.7,65.4,152.4,149.8
					c4.5,39.5-8.9,87.3-34.5,124.1c26.6-30,45.5-69.6,42.8-112.8c-6.9-112.4-79.2-168.5-170-170c-93.9-1.6-170,76.1-170,170
					c0,22.2,5.5,66,27.3,89.5C67.6,269.2,60.8,235.8,62.2,216.6z"/>
			</g>
			<g>
				<path class="st33" d="M302.2,60.8c0,2.5-42.7-5.6-73.3-5.6c-30.6,0-82.5,9.7-82.5,7.2s52-20.2,82.7-20.2
					C259.8,42.2,302.2,58.3,302.2,60.8z"/>
				<path class="st34" d="M300.8,60.4c0,2.5-41.6-5.5-71.9-5.5s-80.7,9.5-80.7,7c0-2.5,50.6-19.6,80.9-19.6S300.8,57.9,300.8,60.4z"
					/>
				<path class="st35" d="M299.4,60c0,2.4-40.5-5.3-70.6-5.3c-30.1,0-79,9.2-79,6.8s49.1-18.9,79.2-18.9
					C259.2,42.6,299.4,57.6,299.4,60z"/>
				<path class="st36" d="M298.1,59.7c0,2.4-39.4-5.1-69.2-5.1c-29.8,0-77.2,8.9-77.2,6.5c0-2.4,47.6-18.3,77.4-18.3
					C258.9,42.7,298.1,57.2,298.1,59.7z"/>
				<path class="st37" d="M296.7,59.3c0,2.4-38.3-5-67.8-5c-29.6,0-75.5,8.7-75.5,6.3s46.1-17.7,75.7-17.7
					C258.6,42.9,296.7,56.9,296.7,59.3z"/>
				<path class="st38" d="M295.3,58.9c0,2.4-37.1-4.8-66.4-4.8s-73.7,8.4-73.7,6c0-2.4,44.6-17,73.9-17S295.3,56.5,295.3,58.9z"/>
				<path class="st39" d="M293.9,58.5c0,2.4-36-4.6-65.1-4.6c-29,0-72,8.2-72,5.8S200,43.3,229,43.3C258,43.3,293.9,56.2,293.9,58.5
					z"/>
				<path class="st40" d="M292.5,58.2c0,2.3-34.9-4.5-63.7-4.5c-28.7,0-70.3,7.9-70.3,5.6c0-2.3,41.7-15.7,70.4-15.7
					S292.5,55.8,292.5,58.2z"/>
				<path class="st41" d="M291.2,57.8c0,2.3-33.8-4.3-62.3-4.3s-68.5,7.6-68.5,5.3c0-2.3,40.2-15.1,68.6-15.1S291.2,55.5,291.2,57.8
					z"/>
				<path class="st42" d="M289.8,57.4c0,2.3-32.7-4.2-60.9-4.2s-66.8,7.4-66.8,5.1s38.7-14.5,66.9-14.5S289.8,55.1,289.8,57.4z"/>
				<path class="st43" d="M288.4,57c0,2.3-31.6-4-59.6-4s-65,7.1-65,4.8c0-2.3,37.2-13.8,65.1-13.8S288.4,54.8,288.4,57z"/>
				<path class="st44" d="M287,56.7c0,2.2-30.5-3.8-58.2-3.8c-27.7,0-63.3,6.8-63.3,4.6c0-2.2,35.7-13.2,63.4-13.2
					S287,54.4,287,56.7z"/>
				<path class="st45" d="M285.7,56.3c0,2.2-29.4-3.7-56.8-3.7s-61.6,6.6-61.6,4.3s34.2-12.6,61.6-12.6
					C256.3,44.4,285.7,54.1,285.7,56.3z"/>
				<path class="st46" d="M284.3,55.9c0,2.2-28.3-3.5-55.4-3.5c-27.1,0-59.8,6.3-59.8,4.1s32.8-11.9,59.9-11.9
					C256,44.6,284.3,53.7,284.3,55.9z"/>
				<path class="st47" d="M282.9,55.5c0,2.2-27.2-3.3-54.1-3.3s-58.1,6-58.1,3.9c0-2.2,31.3-11.3,58.1-11.3S282.9,53.4,282.9,55.5z"
					/>
				<path class="st48" d="M281.5,55.2c0,2.2-26.1-3.2-52.7-3.2c-26.6,0-56.3,5.8-56.3,3.6c0-2.2,29.8-10.6,56.4-10.6
					C255.4,45,281.5,53,281.5,55.2z"/>
				<path class="st49" d="M280.1,54.8c0,2.1-25-3-51.3-3s-54.6,5.5-54.6,3.4c0-2.1,28.3-10,54.6-10S280.1,52.7,280.1,54.8z"/>
				<path class="st50" d="M278.8,54.4c0,2.1-23.9-2.8-49.9-2.8S176,56.9,176,54.7c0-2.1,26.8-9.4,52.9-9.4
					C254.8,45.4,278.8,52.3,278.8,54.4z"/>
				<path class="st51" d="M277.4,54.1c0,2.1-22.8-2.7-48.6-2.7s-51.1,5-51.1,2.9c0-2.1,25.3-8.7,51.1-8.7S277.4,52,277.4,54.1z"/>
				<path class="st52" d="M276,53.7c0,2.1-21.7-2.5-47.2-2.5c-25.5,0-49.4,4.7-49.4,2.7c0-2.1,23.9-8.1,49.3-8.1
					C254.3,45.7,276,51.6,276,53.7z"/>
				<path class="st53" d="M274.6,53.3c0,2.1-20.6-2.3-45.8-2.3c-25.2,0-47.6,4.5-47.6,2.4c0-2.1,22.4-7.5,47.6-7.5
					C254,45.9,274.6,51.3,274.6,53.3z"/>
				<path class="st32" d="M273.3,52.9c0,2-19.5-2.2-44.5-2.2s-45.9,4.2-45.9,2.2c0-2,20.9-6.8,45.8-6.8S273.3,50.9,273.3,52.9z"/>
			</g>
		</g>
		<g>
			<g>
				<g>
					<g>
						<rect x="222.6" y="58.2" class="st54" width="10.4" height="8.6"/>
					</g>
					<g>
						<rect x="222.6" y="363.4" class="st54" width="10.4" height="8.6"/>
					</g>
				</g>
				<g>
					<g>
						
							<rect x="146.3" y="78.7" transform="matrix(0.866 -0.5 0.5 0.866 -21.2003 86.8807)" class="st54" width="10.4" height="8.6"/>
					</g>
					<g>
						
							<rect x="298.9" y="342.9" transform="matrix(0.866 -0.5 0.5 0.866 -132.8818 198.564)" class="st54" width="10.4" height="8.6"/>
					</g>
				</g>
				<g>
					<g>
						
							<rect x="90.5" y="134.5" transform="matrix(0.5 -0.866 0.866 0.5 -72.399 152.2839)" class="st54" width="10.4" height="8.6"/>
					</g>
					<g>
						
							<rect x="354.7" y="287.1" transform="matrix(0.5 -0.866 0.866 0.5 -72.3995 457.4014)" class="st54" width="10.4" height="8.6"/>
					</g>
				</g>
				<g>
					<g>
						<rect x="70.9" y="209.9" class="st54" width="8.6" height="10.4"/>
					</g>
					<g>
						<rect x="376" y="209.9" class="st54" width="8.6" height="10.4"/>
					</g>
				</g>
				<g>
					<g>
						
							<rect x="90.5" y="287.1" transform="matrix(-0.5 -0.866 0.866 -0.5 -108.8358 519.9653)" class="st54" width="10.4" height="8.6"/>
					</g>
					<g>
						
							<rect x="354.7" y="134.5" transform="matrix(-0.5 -0.866 0.866 -0.5 419.6469 519.9642)" class="st54" width="10.4" height="8.6"/>
					</g>
				</g>
				<g>
					<g>
						
							<rect x="146.3" y="342.9" transform="matrix(-0.866 -0.5 0.5 -0.866 109.1243 723.7224)" class="st54" width="10.4" height="8.6"/>
					</g>
					<g>
						
							<rect x="298.9" y="78.7" transform="matrix(-0.866 -0.5 0.5 -0.866 525.9242 306.9239)" class="st54" width="10.4" height="8.6"/>
					</g>
				</g>
			</g>
		</g>
		<g>
			<g>
				<path class="st1" d="M248,205.5l-17.2,16.1l1,1.7l0.9,1.6l21.3-2.4c0,0,109.7-57.6,103.6-68.7C350,140.2,248,205.5,248,205.5z"
					/>
				<path class="st55" d="M247.9,205.6l-17,15.9l0.9,1.6l0.9,1.6l21.2-2.5c0,0,106.7-56.3,100.8-66.8
					C347.5,142.5,247.9,205.6,247.9,205.6z"/>
				<path class="st56" d="M247.7,205.7L231,221.5l0.9,1.6l0.9,1.6l21-2.6c0,0,103.6-55,98.1-65C345,144.7,247.7,205.7,247.7,205.7z"
					/>
				<path class="st57" d="M247.6,205.8L231,221.4l0.9,1.6l0.9,1.6l20.8-2.7c0,0,100.6-53.7,95.3-63.2
					C342.5,147,247.6,205.8,247.6,205.8z"/>
				<path class="st58" d="M247.5,206l-16.4,15.4l0.9,1.6l0.9,1.6l20.6-2.9c0,0,97.5-52.4,92.6-61.3C340,149.2,247.5,206,247.5,206z"
					/>
				<path class="st59" d="M247.4,206.1l-16.2,15.2l0.9,1.6l0.9,1.6l20.4-3c0,0,94.5-51.1,89.8-59.5
					C337.5,151.5,247.4,206.1,247.4,206.1z"/>
				<path class="st60" d="M247.3,206.2l-16,15l0.9,1.6l0.9,1.5l20.2-3.1c0,0,91.5-49.8,87.1-57.7C335,153.8,247.3,206.2,247.3,206.2
					z"/>
				<path class="st61" d="M247.2,206.4l-15.8,14.9l0.9,1.5l0.9,1.5l20-3.3c0,0,88.4-48.5,84.3-55.9
					C332.4,156,247.2,206.4,247.2,206.4z"/>
				<path class="st62" d="M247.1,206.5l-15.7,14.7l0.9,1.5l0.9,1.5l19.8-3.4c0,0,85.4-47.2,81.6-54
					C329.9,158.3,247.1,206.5,247.1,206.5z"/>
				<path class="st63" d="M247,206.6l-15.5,14.5l0.9,1.5l0.8,1.5l19.6-3.5c0,0,82.4-45.9,78.9-52.2C327.4,160.6,247,206.6,247,206.6
					z"/>
				<path class="st64" d="M246.9,206.8l-15.3,14.3l0.8,1.5l0.8,1.5l19.5-3.7c0,0,79.3-44.6,76.1-50.4
					C324.9,162.8,246.9,206.8,246.9,206.8z"/>
				<path class="st65" d="M246.8,206.9L231.7,221l0.8,1.5l0.8,1.4l19.3-3.8c0,0,76.3-43.3,73.4-48.5
					C322.4,165.1,246.8,206.9,246.8,206.9z"/>
				<path class="st66" d="M246.7,207l-14.9,14l0.8,1.4l0.8,1.4l19.1-3.9c0,0,73.2-42,70.6-46.7C319.9,167.4,246.7,207,246.7,207z"/>
				<path class="st67" d="M246.6,207.1l-14.7,13.8l0.8,1.4l0.8,1.4l18.9-4c0,0,70.2-40.7,67.9-44.9
					C317.3,169.6,246.6,207.1,246.6,207.1z"/>
				<path class="st68" d="M246.5,207.3l-14.5,13.6l0.8,1.4l0.8,1.4l18.7-4.2c0,0,67.2-39.4,65.1-43.1
					C314.8,171.9,246.5,207.3,246.5,207.3z"/>
				<path class="st69" d="M246.4,207.4L232,220.8l0.8,1.4l0.8,1.4l18.5-4.3c0,0,64.1-38.1,62.4-41.2
					C312.3,174.2,246.4,207.4,246.4,207.4z"/>
				<path class="st70" d="M246.2,207.5l-14.1,13.2l0.8,1.4l0.8,1.4l18.3-4.4c0,0,61.1-36.8,59.6-39.4
					C309.8,176.4,246.2,207.5,246.2,207.5z"/>
				<path class="st71" d="M246.1,207.7l-14,13.1l0.8,1.3l0.8,1.3l18.1-4.6c0,0,58-35.5,56.9-37.6
					C307.3,178.7,246.1,207.7,246.1,207.7z"/>
				<path class="st72" d="M246,207.8l-13.8,12.9l0.8,1.3l0.8,1.3l17.9-4.7c0,0,55-34.2,54.1-35.7C304.8,180.9,246,207.8,246,207.8z"
					/>
				<path class="st73" d="M245.9,207.9l-13.6,12.7l0.8,1.3l0.7,1.3l17.7-4.8c0,0,52-32.9,51.4-33.9
					C302.3,183.2,245.9,207.9,245.9,207.9z"/>
				<path class="st74" d="M245.8,208.1l-13.4,12.5l0.7,1.3l0.7,1.3l17.6-5c0,0,48.9-31.5,48.6-32.1
					C299.7,185.5,245.8,208.1,245.8,208.1z"/>
				<polygon class="st32" points="245.7,208.2 232.5,220.5 233.2,221.8 234,223.1 251.3,218 297.2,187.7 				"/>
			</g>
			<g>
				<path class="st33" d="M211.1,213.4c0,0-90.2-7.3-91.1-1.6c-0.4,2.7,88.2,19.9,88.2,19.9l20-6.7l-2-2l0.3-1.9L211.1,213.4z"/>
				<path class="st34" d="M211.3,213.5c0,0-88.9-6.9-89.8-1.5c-0.4,2.5,86.9,19.5,86.9,19.5l19.6-6.5l-1.9-2l0.3-1.9L211.3,213.5z"
					/>
				<path class="st35" d="M211.5,213.6c0,0-87.6-6.6-88.5-1.5c-0.4,2.4,85.7,19,85.7,19l19.3-6.3l-1.8-1.9l0.3-1.8L211.5,213.6z"/>
				<path class="st36" d="M211.7,213.7c0,0-86.3-6.3-87.1-1.4c-0.4,2.3,84.4,18.6,84.4,18.6l19-6l-1.7-1.9l0.3-1.8L211.7,213.7z"/>
				<path class="st37" d="M211.9,213.7c0,0-85-5.9-85.8-1.3c-0.4,2.2,83.1,18.2,83.1,18.2l18.6-5.8l-1.6-1.9l0.3-1.8L211.9,213.7z"
					/>
				<path class="st38" d="M212.2,213.8c0,0-83.7-5.6-84.5-1.3c-0.3,2,81.9,17.8,81.9,17.8l18.3-5.6l-1.5-1.9l0.3-1.8L212.2,213.8z"
					/>
				<path class="st39" d="M212.4,213.9c0,0-82.5-5.2-83.1-1.2c-0.3,1.9,80.6,17.4,80.6,17.4l17.9-5.4l-1.4-1.8l0.3-1.7L212.4,213.9z
					"/>
				<path class="st40" d="M212.6,214c0,0-81.2-4.9-81.8-1.1c-0.3,1.8,79.3,17,79.3,17l17.6-5.2l-1.3-1.8l0.2-1.7L212.6,214z"/>
				<path class="st41" d="M212.8,214.1c0,0-79.9-4.6-80.5-1c-0.3,1.6,78.1,16.6,78.1,16.6l17.3-5l-1.2-1.8l0.2-1.7L212.8,214.1z"/>
				<path class="st42" d="M213,214.1c0,0-78.6-4.2-79.1-1c-0.3,1.5,76.8,16.2,76.8,16.2l16.9-4.8l-1.1-1.8l0.2-1.7L213,214.1z"/>
				<path class="st43" d="M213.2,214.2c0,0-77.3-3.9-77.8-0.9c-0.2,1.4,75.5,15.7,75.5,15.7l16.6-4.6l-0.9-1.7l0.2-1.7L213.2,214.2z
					"/>
				<path class="st44" d="M213.4,214.3c0,0-76-3.5-76.5-0.8c-0.2,1.3,74.2,15.3,74.2,15.3l16.2-4.4l-0.8-1.7l0.2-1.6L213.4,214.3z"
					/>
				<path class="st45" d="M213.6,214.4c0,0-74.7-3.2-75.1-0.8c-0.2,1.1,73,14.9,73,14.9l15.9-4.2l-0.7-1.7l0.2-1.6L213.6,214.4z"/>
				<path class="st46" d="M213.8,214.5c0,0-73.4-2.8-73.8-0.7c-0.2,1,71.7,14.5,71.7,14.5l15.6-4l-0.6-1.6l0.2-1.6L213.8,214.5z"/>
				<path class="st47" d="M214.1,214.5c0,0-72.1-2.5-72.5-0.6C141.5,214.8,212,228,212,228l15.2-3.8l-0.5-1.6l0.2-1.6L214.1,214.5z"
					/>
				<path class="st48" d="M214.3,214.6c0,0-70.9-2.2-71.1-0.5c-0.1,0.8,69.2,13.7,69.2,13.7l14.9-3.6l-0.4-1.6l0.2-1.6L214.3,214.6z
					"/>
				<path class="st49" d="M214.5,214.7c0,0-69.6-1.8-69.8-0.5c-0.1,0.6,67.9,13.3,67.9,13.3l14.5-3.4l-0.3-1.6l0.2-1.5L214.5,214.7z
					"/>
				<path class="st50" d="M214.7,214.8c0,0-68.3-1.5-68.5-0.4c-0.1,0.5,66.6,12.8,66.6,12.8l14.2-3.2l-0.2-1.5l0.2-1.5L214.7,214.8z
					"/>
				<path class="st51" d="M214.9,214.9c0,0-67-1.1-67.1-0.3c-0.1,0.4,65.3,12.4,65.3,12.4L227,224l-0.1-1.5l0.2-1.5L214.9,214.9z"/>
				<path class="st52" d="M215.1,214.9c0,0-65.7-0.8-65.8-0.3c0,0.3,64.1,12,64.1,12l13.5-2.7l0-1.5l0.2-1.5L215.1,214.9z"/>
				<path class="st53" d="M215.3,215c0,0-64.4-0.5-64.5-0.2c0,0.1,62.8,11.6,62.8,11.6l13.2-2.5l0.1-1.5l0.2-1.4L215.3,215z"/>
				<polygon class="st32" points="215.5,215.1 152.4,215 213.9,226.2 226.8,223.8 227,222.4 227.2,221 				"/>
			</g>
			<g>
				<circle class="st60" cx="227.9" cy="220.7" r="12.4"/>
				<circle class="st75" cx="227.9" cy="220.6" r="12.3"/>
				<circle class="st76" cx="227.9" cy="220.5" r="12.1"/>
				<circle class="st77" cx="227.9" cy="220.4" r="11.9"/>
				<circle class="st78" cx="227.9" cy="220.4" r="11.8"/>
				<circle class="st79" cx="227.9" cy="220.3" r="11.6"/>
				<circle class="st80" cx="227.9" cy="220.2" r="11.5"/>
				<circle class="st81" cx="228" cy="220.1" r="11.3"/>
				<circle class="st82" cx="228" cy="220.1" r="11.1"/>
				<circle class="st83" cx="228" cy="220" r="11"/>
				<circle class="st84" cx="228" cy="219.9" r="10.8"/>
				<circle class="st85" cx="228" cy="219.8" r="10.7"/>
				<circle class="st86" cx="228" cy="219.8" r="10.5"/>
				<circle class="st87" cx="228.1" cy="219.7" r="10.3"/>
				<circle class="st88" cx="228.1" cy="219.6" r="10.2"/>
				<circle class="st89" cx="228.1" cy="219.5" r="10"/>
				<circle class="st90" cx="228.1" cy="219.4" r="9.9"/>
				<circle class="st91" cx="228.1" cy="219.4" r="9.7"/>
				<circle class="st92" cx="228.1" cy="219.3" r="9.5"/>
				<circle class="st93" cx="228.1" cy="219.2" r="9.4"/>
				<circle class="st94" cx="228.2" cy="219.1" r="9.2"/>
				<circle class="st95" cx="228.2" cy="219.1" r="9.1"/>
			</g>
			<g>
				<g>
					<polygon class="st96" points="229.6,219.4 228.6,217.7 245.8,201.6 358.3,145.7 					"/>
					<polygon class="st96" points="229.6,219.4 230.5,221 253.1,214.4 358.3,145.7 					"/>
				</g>
				<g>
					<polygon class="st96" points="228.3,218.8 228,220.7 211.2,224.2 123.4,206.1 					"/>
					<polygon class="st96" points="228.3,218.8 228.5,216.9 213,209.5 123.4,206.1 					"/>
				</g>
				<g>
					<path class="st96" d="M229.5,215.4l-2.1,0.4L199.8,84.3c-0.1-0.6,0.2-1.1,0.8-1.2l0.1,0c0.6-0.1,1.1,0.2,1.2,0.8L229.5,215.4z"
						/>
					<path class="st96" d="M234.6,237.1l-3.3,0.7c-0.6,0.1-1.2-0.3-1.4-0.9l-4.8-23.2c-0.1-0.6,0.3-1.2,0.9-1.4l3.3-0.7
						c0.6-0.1,1.2,0.3,1.4,0.9l4.8,23.2C235.6,236.3,235.2,236.9,234.6,237.1z"/>
				</g>
				<g>
					<circle class="st97" cx="228.9" cy="218.3" r="8.9"/>
					<circle class="st97" cx="228.8" cy="218.3" r="6.3"/>
				</g>
			</g>
		</g>
		<g>
			<g>
				<g>
					<g>
						<path class="st98" d="M212.7,95.8v-0.7c0.7,0,1.3-0.1,1.7-0.2c0.4-0.1,0.7-0.3,0.9-0.5c0.2-0.2,0.3-0.5,0.4-0.8
							c0.1-0.3,0.1-0.7,0.1-1.1V78.2c0-0.2,0-0.5,0-0.7c0-0.3-0.1-0.5-0.1-0.7c-0.1-0.2-0.2-0.4-0.3-0.6c-0.1-0.2-0.3-0.3-0.6-0.3
							c-0.2-0.1-0.5-0.1-0.9,0c-0.4,0.1-0.8,0.2-1.3,0.5v-0.7l7.5-3.1c0.1-0.1,0.2-0.1,0.2-0.1c0,0,0.1,0.1,0.1,0.3v20.5
							c0,0.3,0,0.6,0.1,0.9c0.1,0.2,0.2,0.4,0.4,0.6c0.2,0.2,0.5,0.3,0.9,0.4c0.4,0.1,1,0.1,1.7,0.2v0.7H212.7z"/>
						<path class="st98" d="M242,95.8h-13.9v-0.6c1.1-1.2,2.1-2.3,3-3.3c0.9-1,1.7-1.9,2.3-2.8c0.7-0.9,1.3-1.7,1.7-2.4
							c0.5-0.8,0.9-1.5,1.2-2.2c0.3-0.7,0.5-1.4,0.7-2.1c0.1-0.7,0.2-1.4,0.2-2.2c0-0.6-0.1-1.1-0.3-1.6c-0.2-0.5-0.4-1-0.8-1.3
							c-0.3-0.4-0.7-0.7-1.2-0.9c-0.5-0.2-1-0.3-1.6-0.3c-1.1,0-2,0.3-2.7,0.9c-0.7,0.6-1.3,1.4-1.8,2.6l-0.7-0.1
							c0.2-1,0.6-1.9,1-2.7c0.4-0.8,0.9-1.6,1.6-2.2c0.6-0.6,1.3-1.1,2.1-1.5c0.8-0.4,1.7-0.5,2.7-0.5c1.1,0,2.1,0.2,2.9,0.5
							c0.8,0.3,1.5,0.8,2,1.4c0.5,0.6,0.9,1.2,1.1,2c0.2,0.8,0.4,1.6,0.4,2.4c0,1.1-0.3,2.2-0.8,3.3c-0.5,1.1-1.2,2.3-2.1,3.4
							c-0.9,1.2-1.9,2.3-3,3.5c-1.1,1.2-2.3,2.4-3.4,3.6h7.3c0.4,0,0.7,0,0.9-0.1c0.3-0.1,0.5-0.2,0.7-0.3c0.2-0.2,0.4-0.4,0.6-0.7
							c0.2-0.3,0.4-0.7,0.7-1.2l0.6,0.2L242,95.8z"/>
					</g>
				</g>
				<g>
					<g>
						<path class="st98" d="M291.4,115.5v-0.7c0.7,0,1.3-0.1,1.7-0.2c0.4-0.1,0.7-0.3,0.9-0.5c0.2-0.2,0.3-0.5,0.4-0.8
							c0.1-0.3,0.1-0.7,0.1-1.1V97.8c0-0.2,0-0.5,0-0.7c0-0.3-0.1-0.5-0.1-0.7c-0.1-0.2-0.2-0.4-0.3-0.6c-0.1-0.2-0.3-0.3-0.6-0.3
							c-0.2-0.1-0.5-0.1-0.9,0c-0.4,0.1-0.8,0.2-1.3,0.5v-0.7l7.5-3.1c0.1-0.1,0.2-0.1,0.2-0.1c0,0,0.1,0.1,0.1,0.3v20.5
							c0,0.3,0,0.6,0.1,0.9c0.1,0.2,0.2,0.4,0.4,0.6c0.2,0.2,0.5,0.3,0.9,0.4c0.4,0.1,1,0.1,1.7,0.2v0.7H291.4z"/>
					</g>
				</g>
				<g>
					<g>
						<path class="st98" d="M153.1,115.5v-0.7c0.7,0,1.3-0.1,1.7-0.2c0.4-0.1,0.7-0.3,0.9-0.5c0.2-0.2,0.3-0.5,0.4-0.8
							c0.1-0.3,0.1-0.7,0.1-1.1V97.8c0-0.2,0-0.5,0-0.7c0-0.3-0.1-0.5-0.1-0.7c-0.1-0.2-0.2-0.4-0.3-0.6c-0.1-0.2-0.3-0.3-0.6-0.3
							c-0.2-0.1-0.5-0.1-0.9,0c-0.4,0.1-0.8,0.2-1.3,0.5v-0.7l7.5-3.1c0.1-0.1,0.2-0.1,0.2-0.1c0,0,0.1,0.1,0.1,0.3v20.5
							c0,0.3,0,0.6,0.1,0.9c0.1,0.2,0.2,0.4,0.4,0.6c0.2,0.2,0.5,0.3,0.9,0.4c0.4,0.1,1,0.1,1.7,0.2v0.7H153.1z"/>
						<path class="st98" d="M171,115.5v-0.7c0.7,0,1.3-0.1,1.7-0.2c0.4-0.1,0.7-0.3,0.9-0.5c0.2-0.2,0.3-0.5,0.4-0.8
							c0.1-0.3,0.1-0.7,0.1-1.1V97.8c0-0.2,0-0.5,0-0.7c0-0.3-0.1-0.5-0.1-0.7c-0.1-0.2-0.2-0.4-0.3-0.6c-0.1-0.2-0.3-0.3-0.6-0.3
							c-0.2-0.1-0.5-0.1-0.9,0c-0.4,0.1-0.8,0.2-1.3,0.5v-0.7l7.5-3.1c0.1-0.1,0.2-0.1,0.2-0.1c0,0,0.1,0.1,0.1,0.3v20.5
							c0,0.3,0,0.6,0.1,0.9c0.1,0.2,0.2,0.4,0.4,0.6c0.2,0.2,0.5,0.3,0.9,0.4c0.4,0.1,1,0.1,1.7,0.2v0.7H171z"/>
					</g>
				</g>
				<g>
					<g>
						<path class="st98" d="M354.1,167.5h-13.9v-0.6c1.1-1.2,2.1-2.3,3-3.3c0.9-1,1.7-1.9,2.3-2.8c0.7-0.9,1.3-1.7,1.7-2.4
							c0.5-0.8,0.9-1.5,1.2-2.2c0.3-0.7,0.5-1.4,0.7-2.1c0.1-0.7,0.2-1.4,0.2-2.2c0-0.6-0.1-1.1-0.3-1.6c-0.2-0.5-0.4-1-0.8-1.3
							c-0.3-0.4-0.7-0.7-1.2-0.9c-0.5-0.2-1-0.3-1.6-0.3c-1.1,0-2,0.3-2.7,0.9c-0.7,0.6-1.3,1.4-1.8,2.6l-0.7-0.1
							c0.2-1,0.6-1.9,1-2.7c0.4-0.8,0.9-1.6,1.6-2.2c0.6-0.6,1.3-1.1,2.1-1.5c0.8-0.4,1.7-0.5,2.7-0.5c1.1,0,2.1,0.2,2.9,0.5
							c0.8,0.3,1.5,0.8,2,1.4c0.5,0.6,0.9,1.2,1.1,2c0.2,0.8,0.4,1.6,0.4,2.4c0,1.1-0.3,2.2-0.8,3.3c-0.5,1.1-1.2,2.3-2.1,3.4
							c-0.9,1.2-1.9,2.3-3,3.5c-1.1,1.2-2.3,2.4-3.4,3.6h7.3c0.4,0,0.7,0,0.9-0.1c0.3-0.1,0.5-0.2,0.7-0.3c0.2-0.2,0.4-0.4,0.6-0.7
							c0.2-0.3,0.4-0.7,0.7-1.2l0.6,0.2L354.1,167.5z"/>
					</g>
				</g>
				<g>
					<g>
						<path class="st98" d="M101.4,167.5v-0.7c0.7,0,1.3-0.1,1.7-0.2c0.4-0.1,0.7-0.3,0.9-0.5c0.2-0.2,0.3-0.5,0.4-0.8
							c0.1-0.3,0.1-0.7,0.1-1.1v-14.3c0-0.2,0-0.5,0-0.7c0-0.3-0.1-0.5-0.1-0.7c-0.1-0.2-0.2-0.4-0.3-0.6c-0.1-0.2-0.3-0.3-0.6-0.3
							c-0.2-0.1-0.5-0.1-0.9,0c-0.4,0.1-0.8,0.2-1.3,0.5v-0.7l7.5-3.1c0.1-0.1,0.2-0.1,0.2-0.1c0,0,0.1,0.1,0.1,0.3v20.5
							c0,0.3,0,0.6,0.1,0.9c0.1,0.2,0.2,0.4,0.4,0.6c0.2,0.2,0.5,0.3,0.9,0.4c0.4,0.1,1,0.1,1.7,0.2v0.7H101.4z"/>
						<path class="st98" d="M131.2,161.3c-0.5,1.5-1,2.7-1.8,3.7c-0.7,1-1.6,1.7-2.5,2.1c-1,0.5-1.9,0.7-2.9,0.7c-1,0-2-0.2-2.9-0.7
							c-1-0.5-1.8-1.1-2.5-2.1c-0.7-0.9-1.3-2.2-1.8-3.6c-0.4-1.5-0.7-3.2-0.7-5.3c0-2.2,0.2-4.1,0.7-5.6c0.5-1.5,1.1-2.8,1.8-3.8
							c0.8-1,1.6-1.7,2.6-2.1c1-0.4,2-0.7,3-0.7c0.9,0,1.8,0.2,2.7,0.7c0.9,0.5,1.7,1.2,2.5,2.1c0.7,1,1.3,2.2,1.8,3.7
							c0.5,1.5,0.7,3.3,0.7,5.4C131.9,157.9,131.6,159.8,131.2,161.3z M126.7,151.1c-0.1-1.4-0.3-2.5-0.6-3.3
							c-0.3-0.8-0.6-1.5-0.9-1.8c-0.3-0.4-0.7-0.6-1.2-0.6c-0.4,0-0.8,0.2-1.2,0.5c-0.4,0.3-0.7,0.9-1,1.7c-0.3,0.8-0.5,1.9-0.7,3.2
							c-0.2,1.3-0.3,3-0.3,5c0,2,0.1,3.7,0.3,5.1c0.2,1.4,0.4,2.5,0.7,3.4c0.3,0.9,0.6,1.5,1,1.9c0.4,0.4,0.8,0.6,1.2,0.6
							c0.5,0,0.9-0.2,1.2-0.6c0.4-0.4,0.7-1,0.9-1.9c0.2-0.9,0.4-2,0.6-3.3c0.1-1.3,0.2-2.9,0.2-4.8
							C126.9,154.1,126.9,152.4,126.7,151.1z"/>
					</g>
				</g>
				<g>
					<g>
						<path class="st98" d="M369.8,221.8c-0.3,1-0.9,2-1.6,2.7c-0.8,0.8-1.7,1.4-2.9,1.9c-1.2,0.5-2.7,0.7-4.5,0.7
							c-1,0-1.8-0.1-2.5-0.2c-0.7-0.2-1.2-0.3-1.6-0.6c-0.4-0.2-0.7-0.5-0.8-0.8c-0.2-0.3-0.2-0.6-0.2-0.9c0-0.6,0.2-1,0.5-1.3
							c0.3-0.3,0.7-0.4,1.3-0.4c0.4,0,0.7,0.1,1,0.2c0.3,0.1,0.6,0.3,0.9,0.5c0.3,0.2,0.6,0.5,0.9,0.7c0.3,0.3,0.6,0.5,0.9,0.7
							c0.3,0.2,0.6,0.4,0.9,0.5c0.3,0.1,0.7,0.2,1,0.2c0.6,0,1.1-0.1,1.6-0.3c0.5-0.2,0.9-0.5,1.2-0.8c0.3-0.4,0.6-0.8,0.8-1.3
							c0.2-0.5,0.3-1.1,0.3-1.7c0-0.9-0.2-1.7-0.5-2.5c-0.3-0.8-0.7-1.5-1.3-2.1c-0.6-0.6-1.2-1.1-2-1.4c-0.8-0.4-1.6-0.5-2.6-0.5
							c-0.1,0-0.2,0-0.4,0c-0.1,0-0.3,0-0.4,0l0-0.7c0.9-0.2,1.7-0.4,2.4-0.7c0.6-0.3,1.2-0.7,1.6-1.1c0.4-0.4,0.7-0.8,0.9-1.3
							c0.2-0.5,0.3-0.9,0.3-1.4c0-0.5-0.1-1-0.3-1.4c-0.2-0.4-0.5-0.8-0.8-1.2s-0.7-0.6-1.2-0.8c-0.5-0.2-0.9-0.3-1.5-0.3
							c-1,0-1.9,0.3-2.6,0.8c-0.7,0.6-1.3,1.4-1.8,2.4l-0.7-0.2c0.3-1,0.7-1.9,1.3-2.6c0.5-0.8,1.1-1.4,1.8-1.9
							c0.7-0.5,1.4-0.9,2.2-1.2c0.8-0.3,1.5-0.4,2.3-0.4c0.9,0,1.6,0.1,2.3,0.4s1.3,0.6,1.8,1c0.5,0.4,0.9,0.9,1.1,1.5
							c0.3,0.6,0.4,1.2,0.4,1.9c0,0.9-0.3,1.8-0.8,2.6c-0.5,0.8-1.3,1.4-2.3,1.9c0.4,0.2,0.9,0.4,1.4,0.7c0.5,0.3,1,0.6,1.4,1.1
							c0.4,0.5,0.8,1,1.1,1.7c0.3,0.7,0.4,1.5,0.4,2.5C370.3,219.6,370.2,220.7,369.8,221.8z"/>
					</g>
				</g>
				<g>
					<g>
						<path class="st98" d="M99,214.9c-0.3,1.1-0.7,2.2-1.2,3.2c-0.5,1-1.2,2-2,2.8c-0.8,0.9-1.7,1.7-2.8,2.3
							c-1.1,0.7-2.2,1.2-3.5,1.7c-1.3,0.4-2.7,0.7-4.3,0.9l-0.2-0.9c1.1-0.2,2-0.5,2.8-0.8c0.8-0.3,1.5-0.6,2.1-1
							c0.6-0.4,1.1-0.8,1.5-1.3c0.4-0.5,0.8-1.1,1.1-1.7c0.3-0.6,0.6-1.3,0.9-2c0.3-0.7,0.5-1.6,0.8-2.4c-0.6,0.4-1.2,0.7-1.7,0.9
							c-0.6,0.2-1.2,0.3-1.9,0.3c-0.8,0-1.5-0.1-2.3-0.4c-0.8-0.3-1.5-0.7-2.1-1.3c-0.6-0.6-1.1-1.3-1.5-2.3c-0.4-0.9-0.6-2-0.6-3.4
							c0-1.2,0.2-2.3,0.5-3.3c0.3-1,0.8-1.8,1.5-2.6c0.6-0.7,1.4-1.3,2.3-1.7c0.9-0.4,2-0.6,3.1-0.6c1.1,0,2.2,0.2,3.1,0.6
							c1,0.4,1.8,1.1,2.6,1.9c0.7,0.8,1.3,1.9,1.7,3.1c0.4,1.3,0.6,2.7,0.6,4.4C99.4,212.7,99.3,213.8,99,214.9z M94.4,208.7
							c0-0.6-0.1-1.3-0.2-1.9c-0.1-0.6-0.2-1.2-0.4-1.7c-0.2-0.5-0.4-1-0.6-1.4c-0.3-0.4-0.6-0.7-0.9-0.9c-0.3-0.2-0.7-0.3-1.2-0.3
							c-0.4,0-0.7,0.1-1,0.3c-0.3,0.2-0.5,0.5-0.8,1c-0.2,0.4-0.4,1-0.5,1.7c-0.1,0.7-0.2,1.5-0.2,2.5c0,2.3,0.3,4,0.8,5.2
							c0.6,1.2,1.4,1.8,2.4,1.8c0.5,0,0.9-0.1,1.2-0.2c0.3-0.2,0.7-0.4,0.9-0.7c0.1-0.1,0.1-0.3,0.2-0.5c0.1-0.3,0.1-0.6,0.1-0.9
							c0-0.4,0.1-0.7,0.1-1.1c0-0.4,0-0.7,0-1C94.5,210,94.5,209.4,94.4,208.7z"/>
					</g>
				</g>
				<g>
					<g>
						<path class="st98" d="M348.1,285.4v5h-4.3v-5H335V282l10.9-15h2.1V282h2.8v3.3H348.1z M343.8,272l-7.1,10h7.1V272z"/>
					</g>
				</g>
				<g>
					<g>
						<path class="st98" d="M116.9,287.1c-0.3,0.7-0.7,1.4-1.3,1.9c-0.6,0.6-1.4,1-2.3,1.3c-0.9,0.3-2,0.5-3.3,0.5
							c-1,0-1.9-0.1-2.8-0.3c-0.9-0.2-1.7-0.6-2.4-1c-0.7-0.5-1.2-1-1.6-1.7c-0.4-0.7-0.6-1.5-0.6-2.5c0-0.7,0.1-1.4,0.3-2
							c0.2-0.6,0.5-1.2,0.9-1.7c0.4-0.5,0.9-1,1.5-1.4c0.6-0.4,1.3-0.8,2.1-1.1c-0.8-0.5-1.5-1-2-1.6c-0.5-0.5-1-1.1-1.3-1.6
							c-0.3-0.5-0.6-1.1-0.7-1.6c-0.1-0.5-0.2-1-0.2-1.5c0-0.9,0.2-1.8,0.5-2.5c0.3-0.7,0.8-1.4,1.4-1.9c0.6-0.5,1.4-0.9,2.3-1.2
							c0.9-0.3,1.9-0.4,3.1-0.4c1.2,0,2.2,0.1,3.1,0.4c0.8,0.3,1.5,0.6,2.1,1.1c0.5,0.5,0.9,1,1.2,1.6c0.3,0.6,0.4,1.3,0.4,1.9
							c0,0.6-0.1,1.1-0.3,1.6c-0.2,0.5-0.5,1-0.8,1.4c-0.4,0.4-0.9,0.9-1.5,1.3c-0.6,0.4-1.3,0.8-2.1,1.2c0.8,0.6,1.6,1.2,2.1,1.7
							c0.6,0.5,1.1,1,1.4,1.4c0.4,0.4,0.7,0.9,0.9,1.2c0.2,0.4,0.3,0.7,0.4,1.1c0.1,0.3,0.1,0.7,0.2,1c0,0.3,0,0.6,0,0.9
							C117.4,285.6,117.2,286.3,116.9,287.1z M113,285c-0.1-0.5-0.3-0.9-0.6-1.4c-0.3-0.5-0.8-1-1.4-1.6c-0.6-0.6-1.4-1.2-2.5-2
							c-0.7,0.8-1.1,1.6-1.4,2.4c-0.2,0.8-0.4,1.6-0.4,2.5c0,0.6,0.1,1.2,0.2,1.8c0.2,0.6,0.4,1.1,0.7,1.5c0.3,0.4,0.7,0.8,1.1,1.1
							c0.4,0.3,1,0.4,1.6,0.4c0.5,0,0.9-0.1,1.2-0.2c0.4-0.2,0.6-0.4,0.9-0.7c0.2-0.3,0.4-0.6,0.5-1c0.1-0.4,0.2-0.8,0.2-1.2
							C113.1,286,113.1,285.5,113,285z M112.8,270.4c-0.1-0.5-0.3-0.9-0.5-1.3c-0.2-0.4-0.5-0.7-0.9-0.9c-0.4-0.2-0.8-0.3-1.4-0.3
							c-0.9,0-1.5,0.3-2.1,0.8c-0.5,0.5-0.8,1.3-0.8,2.3c0,0.5,0.1,0.9,0.2,1.4c0.1,0.4,0.3,0.9,0.6,1.3c0.3,0.4,0.7,0.9,1.2,1.4
							c0.5,0.5,1.2,0.9,2,1.5c0.7-0.6,1.1-1.3,1.4-2.1c0.3-0.8,0.4-1.6,0.4-2.5C112.9,271.4,112.9,270.9,112.8,270.4z"/>
					</g>
				</g>
				<g>
					<g>
						<path class="st98" d="M300.4,320.9c-0.1,0.3-0.4,0.4-0.7,0.4h-8.5l-1.2,2.8c0.9,0,1.9,0.1,2.8,0.3c0.9,0.1,1.8,0.3,2.7,0.6
							c0.9,0.3,1.7,0.6,2.4,1.1c0.7,0.4,1.4,1,1.9,1.6c0.5,0.6,1,1.4,1.3,2.3c0.3,0.9,0.5,1.9,0.5,3c0,1.3-0.2,2.4-0.7,3.4
							c-0.5,1-1.2,1.9-2,2.6c-0.9,0.7-1.9,1.3-3,1.7c-1.2,0.4-2.4,0.6-3.8,0.6c-1,0-1.9-0.1-2.5-0.2c-0.7-0.1-1.2-0.3-1.6-0.6
							c-0.4-0.3-0.7-0.5-0.9-0.9c-0.2-0.3-0.3-0.7-0.3-1c0-0.5,0.2-1,0.5-1.3c0.3-0.3,0.7-0.5,1.3-0.5c0.4,0,0.8,0.1,1.1,0.2
							c0.4,0.2,0.7,0.3,1,0.6c0.3,0.2,0.6,0.5,0.9,0.7c0.3,0.3,0.6,0.5,0.9,0.7c0.3,0.2,0.6,0.4,0.9,0.6c0.3,0.2,0.6,0.2,1,0.2
							c0.5,0,0.9-0.1,1.4-0.4c0.5-0.2,0.9-0.6,1.3-1c0.4-0.4,0.7-0.9,0.9-1.5c0.2-0.6,0.4-1.2,0.4-1.9c0-1.2-0.3-2.2-0.8-3
							c-0.6-0.9-1.3-1.6-2.3-2.1c-1-0.6-2.1-1-3.4-1.2c-1.3-0.3-2.7-0.4-4.2-0.4c-0.2,0-0.3,0-0.3-0.1c0-0.1,0-0.2,0-0.3l3.8-10.2h9
							c0.1,0,0.3,0,0.3-0.1c0.1,0,0.2-0.1,0.2-0.2c0.1-0.1,0.1-0.2,0.2-0.3c0.1-0.1,0.1-0.2,0.2-0.3l0.6,0.2L300.4,320.9z"/>
					</g>
				</g>
				<g>
					<g>
						<path class="st98" d="M162.5,340.9h-3l6.4-19.5h-6.4c-0.7,0-1.3,0-1.7,0.1c-0.4,0.1-0.8,0.2-1.1,0.4c-0.3,0.2-0.6,0.5-0.8,0.8
							c-0.2,0.3-0.5,0.7-0.7,1.2l-0.8-0.1l1.7-6.1h13.5v1.1L162.5,340.9z"/>
					</g>
				</g>
				<g>
					<g>
						<path class="st98" d="M234.9,354.4c-0.4,1-0.9,1.9-1.6,2.6c-0.7,0.7-1.4,1.3-2.3,1.7c-0.9,0.4-1.8,0.6-2.8,0.6
							c-0.9,0-1.9-0.2-2.9-0.7c-1-0.4-1.8-1.1-2.6-2c-0.8-0.9-1.4-1.9-1.9-3.2c-0.5-1.3-0.7-2.8-0.7-4.5c0-1.2,0.2-2.3,0.5-3.5
							c0.3-1.1,0.8-2.2,1.4-3.2c0.6-1,1.3-2,2.2-2.9c0.9-0.9,1.8-1.6,2.9-2.3c1.1-0.6,2.2-1.1,3.5-1.5c1.3-0.4,2.6-0.6,4.1-0.6
							l0.1,0.8c-1.2,0.2-2.3,0.6-3.3,1.1c-1,0.5-1.8,1.1-2.6,1.8c-0.7,0.7-1.4,1.6-1.9,2.6c-0.5,1-1,2.2-1.3,3.5
							c0.5-0.4,1.1-0.6,1.6-0.7c0.6-0.1,1.2-0.2,1.8-0.2c0.8,0,1.6,0.1,2.3,0.4c0.8,0.3,1.5,0.7,2.1,1.3c0.6,0.6,1.1,1.3,1.5,2.3
							c0.4,0.9,0.6,2,0.6,3.4C235.5,352.3,235.3,353.4,234.9,354.4z M230,347.5c-0.6-1.3-1.5-1.9-2.6-1.9c-1,0-1.7,0.3-2.1,1
							c-0.4,0.7-0.6,1.8-0.6,3.2c0,1,0.1,1.9,0.2,2.9c0.1,1,0.4,1.9,0.7,2.7c0.3,0.8,0.7,1.5,1.2,2c0.5,0.5,1,0.8,1.7,0.8
							c0.5,0,0.9-0.1,1.2-0.4c0.3-0.2,0.6-0.6,0.8-1c0.2-0.5,0.3-1,0.4-1.7c0.1-0.7,0.1-1.4,0.1-2.2
							C231,350.5,230.7,348.7,230,347.5z"/>
					</g>
				</g>
			</g>
		</g>
		<g>
			<g>
				<g>
					
						<rect x="210.8" y="59.1" transform="matrix(0.9945 -0.1045 0.1045 0.9945 -5.4538 22.4977)" class="st99" width="2.3" height="8.4"/>
					
						<rect x="242.7" y="362.6" transform="matrix(0.9945 -0.1045 0.1045 0.9945 -37.0036 27.4944)" class="st99" width="2.3" height="8.4"/>
				</g>
				<g>
					
						<rect x="195" y="61.6" transform="matrix(0.9782 -0.2079 0.2079 0.9782 -9.3912 42.2213)" class="st99" width="2.3" height="8.4"/>
					
						<rect x="258.5" y="360.1" transform="matrix(0.9781 -0.2079 0.2079 0.9781 -70.0863 61.9517)" class="st99" width="2.3" height="8.4"/>
				</g>
				<g>
					
						<rect x="179.6" y="65.7" transform="matrix(0.9511 -0.309 0.309 0.9511 -12.7614 59.2738)" class="st99" width="2.3" height="8.4"/>
					
						<rect x="273.9" y="356" transform="matrix(0.9511 -0.309 0.309 0.9511 -97.8435 102.6217)" class="st99" width="2.3" height="8.4"/>
				</g>
				<g>
					
						<rect x="164.7" y="71.4" transform="matrix(0.9135 -0.4067 0.4067 0.9135 -16.4323 73.9895)" class="st99" width="2.3" height="8.4"/>
					
						<rect x="288.8" y="350.3" transform="matrix(0.9136 -0.4067 0.4067 0.9136 -119.1089 148.5837)" class="st99" width="2.3" height="8.4"/>
				</g>
				<g>
					
						<rect x="137.1" y="87.4" transform="matrix(0.809 -0.5878 0.5878 0.809 -27.4477 98.729)" class="st99" width="2.3" height="8.4"/>
					
						<rect x="316.5" y="334.3" transform="matrix(0.809 -0.5878 0.5878 0.809 -138.326 251.3307)" class="st99" width="2.3" height="8.4"/>
				</g>
				<g>
					
						<rect x="124.6" y="97.4" transform="matrix(0.7431 -0.6691 0.6691 0.7431 -35.7109 110.2795)" class="st99" width="2.3" height="8.4"/>
					
						<rect x="328.9" y="324.3" transform="matrix(0.7431 -0.6691 0.6691 0.7431 -135.0292 305.2057)" class="st99" width="2.3" height="8.4"/>
				</g>
				<g>
					
						<rect x="113.3" y="108.7" transform="matrix(0.6691 -0.7431 0.7431 0.6691 -46.0566 122.4522)" class="st99" width="2.3" height="8.4"/>
					
						<rect x="340.2" y="313" transform="matrix(0.6691 -0.7432 0.7432 0.6691 -122.7825 358.604)" class="st99" width="2.3" height="8.4"/>
				</g>
				<g>
					
						<rect x="103.3" y="121.2" transform="matrix(0.5878 -0.809 0.809 0.5878 -58.3706 136.1713)" class="st99" width="2.3" height="8.4"/>
					
						<rect x="350.2" y="300.6" transform="matrix(0.5878 -0.809 0.809 0.5878 -101.7231 409.9038)" class="st99" width="2.3" height="8.4"/>
				</g>
				<g>
					
						<rect x="87.3" y="148.8" transform="matrix(0.4067 -0.9136 0.9136 0.4067 -87.272 171.604)" class="st99" width="2.3" height="8.4"/>
					
						<rect x="366.2" y="272.9" transform="matrix(0.4067 -0.9136 0.9136 0.4067 -35.2567 499.992)" class="st99" width="2.3" height="8.4"/>
				</g>
				<g>
					
						<rect x="81.6" y="163.7" transform="matrix(0.309 -0.951 0.951 0.309 -102.5045 194.7244)" class="st99" width="2.3" height="8.4"/>
					
						<rect x="371.9" y="258" transform="matrix(0.309 -0.951 0.951 0.309 8.3668 535.9711)" class="st99" width="2.3" height="8.4"/>
				</g>
				<g>
					
						<rect x="77.5" y="179.1" transform="matrix(0.2079 -0.9781 0.9781 0.2079 -117.0536 222.1216)" class="st99" width="2.3" height="8.4"/>
					
						<rect x="376" y="242.6" transform="matrix(0.2079 -0.9781 0.9781 0.2079 57.3482 564.4159)" class="st99" width="2.3" height="8.4"/>
				</g>
				<g>
					
						<rect x="75" y="194.9" transform="matrix(0.1046 -0.9945 0.9945 0.1046 -129.8562 254.0064)" class="st99" width="2.3" height="8.4"/>
					
						<rect x="378.5" y="226.8" transform="matrix(0.1045 -0.9945 0.9945 0.1045 110.2453 584.4772)" class="st99" width="2.3" height="8.4"/>
				</g>
				<g>
					
						<rect x="75" y="226.8" transform="matrix(-0.1046 -0.9945 0.9945 -0.1046 -145.6675 330.8833)" class="st99" width="2.3" height="8.4"/>
					
						<rect x="378.5" y="194.9" transform="matrix(-0.1045 -0.9945 0.9945 -0.1045 221.3365 597.5259)" class="st99" width="2.3" height="8.4"/>
				</g>
				<g>
					
						<rect x="77.5" y="242.6" transform="matrix(-0.2079 -0.9781 0.9781 -0.2079 -146.4279 375.0231)" class="st99" width="2.3" height="8.4"/>
					
						<rect x="376" y="179.1" transform="matrix(-0.2079 -0.9781 0.9781 -0.2079 276.2821 590.3974)" class="st99" width="2.3" height="8.4"/>
				</g>
				<g>
					
						<rect x="81.6" y="258" transform="matrix(-0.309 -0.951 0.951 -0.309 -141.0532 421.9774)" class="st99" width="2.3" height="8.4"/>
					
						<rect x="371.9" y="163.7" transform="matrix(-0.309 -0.9511 0.9511 -0.309 328.6441 574.5835)" class="st99" width="2.3" height="8.4"/>
				</g>
				<g>
					
						<rect x="87.3" y="272.9" transform="matrix(-0.4067 -0.9136 0.9136 -0.4067 -128.7092 470.6949)" class="st99" width="2.3" height="8.4"/>
					
						<rect x="366.2" y="148.8" transform="matrix(-0.4067 -0.9136 0.9136 -0.4067 376.9501 550.7885)" class="st99" width="2.3" height="8.4"/>
				</g>
				<g>
					
						<rect x="103.3" y="300.6" transform="matrix(-0.5878 -0.809 0.809 -0.5878 -80.7459 568.3991)" class="st99" width="2.3" height="8.4"/>
					
						<rect x="350.2" y="121.2" transform="matrix(-0.5878 -0.809 0.809 -0.5878 456.4724 483.317)" class="st99" width="2.3" height="8.4"/>
				</g>
				<g>
					
						<rect x="113.3" y="313" transform="matrix(-0.6691 -0.7431 0.7431 -0.6691 -44.6117 614.5086)" class="st99" width="2.3" height="8.4"/>
					
						<rect x="340.2" y="108.7" transform="matrix(-0.6691 -0.7432 0.7432 -0.6691 485.7587 442.1783)" class="st99" width="2.3" height="8.4"/>
				</g>
				<g>
					
						<rect x="124.6" y="324.3" transform="matrix(-0.7431 -0.6691 0.6691 -0.7431 -0.5381 656.7552)" class="st99" width="2.3" height="8.4"/>
					
						<rect x="328.9" y="97.4" transform="matrix(-0.7431 -0.6691 0.6691 -0.7431 507.2519 398.0273)" class="st99" width="2.3" height="8.4"/>
				</g>
				<g>
					
						<rect x="137.1" y="334.3" transform="matrix(-0.809 -0.5878 0.5878 -0.809 51.015 693.6439)" class="st99" width="2.3" height="8.4"/>
					
						<rect x="316.5" y="87.4" transform="matrix(-0.809 -0.5878 0.5878 -0.809 520.7201 352.3889)" class="st99" width="2.3" height="8.4"/>
				</g>
				<g>
					
						<rect x="164.7" y="350.3" transform="matrix(-0.9135 -0.4067 0.4067 -0.9135 173.1415 745.7748)" class="st99" width="2.3" height="8.4"/>
					
						<rect x="288.8" y="71.4" transform="matrix(-0.9136 -0.4067 0.4067 -0.9136 524.1184 262.697)" class="st99" width="2.3" height="8.4"/>
				</g>
				<g>
					
						<rect x="179.6" y="356" transform="matrix(-0.951 -0.309 0.309 -0.951 241.3162 758.6468)" class="st99" width="2.3" height="8.4"/>
					
						<rect x="273.9" y="65.7" transform="matrix(-0.9511 -0.309 0.309 -0.9511 515.0539 221.4298)" class="st99" width="2.3" height="8.4"/>
				</g>
				<g>
					
						<rect x="195" y="360.1" transform="matrix(-0.9781 -0.2079 0.2079 -0.9781 312.298 761.5189)" class="st99" width="2.3" height="8.4"/>
					
						<rect x="258.5" y="61.6" transform="matrix(-0.9781 -0.2079 0.2079 -0.9781 499.9121 184.1287)" class="st99" width="2.3" height="8.4"/>
				</g>
				<g>
					
						<rect x="210.8" y="362.6" transform="matrix(-0.9945 -0.1046 0.1046 -0.9945 384.3861 753.8381)" class="st99" width="2.3" height="8.4"/>
					
						<rect x="242.7" y="59.1" transform="matrix(-0.9945 -0.1045 0.1045 -0.9945 479.7623 151.72)" class="st99" width="2.3" height="8.4"/>
				</g>
			</g>
		</g>
	</g>
	<g>
		<path class="st100" d="M381.1,106.3c-38.2-53-86.5-67.4-86.5-67.4s51,17.8,87.2,70.8c37,54.2,35.7,108.6,35.7,108.6
			S419.8,159.9,381.1,106.3z"/>
		<linearGradient id="SVGID_2_" gradientUnits="userSpaceOnUse" x1="39.87" y1="150.336" x2="116.2346" y2="150.336">
			<stop  offset="0" style="stop-color:#818180"/>
			<stop  offset="1" style="stop-color:#FFFFFF"/>
		</linearGradient>
		<path class="st101" d="M116.2,63.9c0,0-39,26-60.7,73.5c0,0.1-0.1,0.1-0.1,0.2c-0.9,1.6-1.7,3.6-2.5,5.9
			c-19.6,48-11.3,93.2-11.3,93.2s-3.1-21.5,2.3-52.7c0-0.1,1.7-9.4,3-9.7c1.3-0.3-1.8,24.2,0.2,24.6c2.5,0.5,3-25.1,16.6-55.1
			c10.1-22.4,20.8-36.3,18.4-37.3c-2.4-1.1-7,7.3-8.5,6.9c-2.3-0.5-0.7-3.5-0.6-3.6C92.5,81.6,116.2,63.9,116.2,63.9z M69.9,114.4
			c1-1.5,1.9-2.9,2.9-4.3C72.4,110.7,71.3,112.3,69.9,114.4z"/>
		<ellipse class="st102" cx="399.9" cy="156.9" rx="0.8" ry="1.1"/>
		<ellipse class="st102" cx="401.3" cy="154.1" rx="0.6" ry="0.4"/>
		<ellipse class="st102" cx="399.5" cy="153.7" rx="0.4" ry="0.5"/>
		<linearGradient id="SVGID_3_" gradientUnits="userSpaceOnUse" x1="401.6953" y1="168.8898" x2="408.7369" y2="168.8898">
			<stop  offset="0" style="stop-color:#818180"/>
			<stop  offset="1" style="stop-color:#FFFFFF"/>
		</linearGradient>
		<path class="st103" d="M407.8,168.2c1.3,5.1,1.2,9.6-0.2,10c-1.4,0.4-3.7-3.5-5-8.6c-1.3-5.1-1.2-9.6,0.2-10
			C404.2,159.2,406.5,163.1,407.8,168.2z"/>
		<path class="st104" d="M227.5,39.4c-97,0-175.6,78.6-175.6,175.6s78.6,175.6,175.6,175.6S403.1,312,403.1,215
			S324.5,39.4,227.5,39.4z M227.5,388.4c-95.7,0-173.4-77.6-173.4-173.4S131.7,41.7,227.5,41.7S400.8,119.3,400.8,215
			S323.2,388.4,227.5,388.4z"/>
		
			<linearGradient id="SVGID_4_" gradientUnits="userSpaceOnUse" x1="269.5042" y1="192.3325" x2="348.767" y2="137.4972" gradientTransform="matrix(1.0715 -0.1197 -0.1197 1.0113 -24.9729 39.6504)">
			<stop  offset="0" style="stop-color:#FFFFFF"/>
			<stop  offset="1" style="stop-color:#818180"/>
		</linearGradient>
		<path class="st105" d="M352,119.8c32.8,42.1,39,92.1,13.8,111.7c-25.2,19.6-72.2,1.4-105-40.6s-39-92.1-13.8-111.7
			C272.2,59.5,319.2,77.7,352,119.8z"/>
	</g>
</g>
</svg>
