<?xml version="1.0" encoding="utf-8"?>
<!-- Generator: Adobe Illustrator 19.0.0, SVG Export Plug-In . SVG Version: 6.00 Build 0)  -->
<svg version="1.1" id="Layer_1" xmlns="http://www.w3.org/2000/svg" xmlns:xlink="http://www.w3.org/1999/xlink" x="0px" y="0px"
	 viewBox="0 0 62.2 81.6" style="enable-background:new 0 0 62.2 81.6;" xml:space="preserve">
<style type="text/css">
	.st0{fill:url(#SVGID_1_);}
	.st1{fill:url(#SVGID_2_);}
	.st2{fill:url(#SVGID_3_);}
	.st3{fill:#1C1C1C;}
	.st4{clip-path:url(#SVGID_4_);}
	.st5{fill:#AAAAAA;}
	.st6{fill:#FFFBF5;}
	.st7{fill:#99928C;}
	.st8{fill:#4B4B4B;}
	.st9{fill:#EDEDED;}
	.st10{fill:#FC352E;}
	.st11{opacity:0;fill:#FFFFFF;}
	.st12{opacity:3.846100e-002;fill:#F9F9F9;}
	.st13{opacity:7.692300e-002;fill:#F3F3F3;}
	.st14{opacity:0.1154;fill:#EDEDED;}
	.st15{opacity:0.1538;fill:#E7E7E7;}
	.st16{opacity:0.1923;fill:#E2E2E2;}
	.st17{opacity:0.2308;fill:#DCDCDC;}
	.st18{opacity:0.2692;fill:#D6D6D6;}
	.st19{opacity:0.3077;fill:#D0D0D0;}
	.st20{opacity:0.3462;fill:#CACACA;}
	.st21{opacity:0.3846;fill:#C4C4C4;}
	.st22{opacity:0.4231;fill:#BEBEBE;}
	.st23{opacity:0.4615;fill:#B8B8B8;}
	.st24{opacity:0.5;fill:#B3B3B3;}
	.st25{opacity:0.5385;fill:#ADADAD;}
	.st26{opacity:0.5769;fill:#A7A7A7;}
	.st27{opacity:0.6154;fill:#A1A1A1;}
	.st28{opacity:0.6538;fill:#9B9B9B;}
	.st29{opacity:0.6923;fill:#959595;}
	.st30{opacity:0.7308;fill:#8F8F8F;}
	.st31{opacity:0.7692;fill:#898989;}
	.st32{opacity:0.8077;fill:#838383;}
	.st33{opacity:0.8462;fill:#7E7E7E;}
	.st34{opacity:0.8846;fill:#787878;}
	.st35{opacity:0.9231;fill:#727272;}
	.st36{opacity:0.9615;fill:#6C6C6C;}
	.st37{fill:#666666;}
	.st38{fill:#FC352E;stroke:#FFFFFF;stroke-miterlimit:10;}
	.st39{opacity:6.250000e-002;fill:#FBFBFB;}
	.st40{opacity:0.125;fill:#F7F7F6;}
	.st41{opacity:0.1875;fill:#F3F3F2;}
	.st42{opacity:0.25;fill:#F0EFED;}
	.st43{opacity:0.3125;fill:#ECEAE9;}
	.st44{opacity:0.375;fill:#E8E6E4;}
	.st45{opacity:0.4375;fill:#E4E2E0;}
	.st46{opacity:0.5;fill:#E0DEDC;}
	.st47{opacity:0.5625;fill:#DCDAD7;}
	.st48{opacity:0.625;fill:#D8D6D3;}
	.st49{opacity:0.6875;fill:#D4D2CE;}
	.st50{opacity:0.75;fill:#D1CECA;}
	.st51{opacity:0.8125;fill:#CDC9C5;}
	.st52{opacity:0.875;fill:#C9C5C1;}
	.st53{opacity:0.9375;fill:#C5C1BC;}
	.st54{fill:#C1BDB8;}
	.st55{opacity:0.125;fill:#F7F6F6;}
	.st56{opacity:0.1875;fill:#F2F2F2;}
	.st57{opacity:0.25;fill:#EEEEED;}
	.st58{opacity:0.3125;fill:#EAE9E9;}
	.st59{opacity:0.375;fill:#E6E5E4;}
	.st60{opacity:0.4375;fill:#E2E1E0;}
	.st61{opacity:0.5;fill:#DEDDDB;}
	.st62{opacity:0.5625;fill:#D9D8D7;}
	.st63{opacity:0.625;fill:#D5D4D2;}
	.st64{opacity:0.6875;fill:#D1D0CE;}
	.st65{opacity:0.75;fill:#CDCBC9;}
	.st66{opacity:0.8125;fill:#C9C7C5;}
	.st67{opacity:0.875;fill:#C4C3C0;}
	.st68{opacity:0.9375;fill:#C0BEBC;}
	.st69{fill:#BCBAB7;}
	.st70{opacity:4.761900e-002;fill:#F8F8F8;}
	.st71{opacity:9.523800e-002;fill:#F1F1F1;}
	.st72{opacity:0.1429;fill:#EBEAEA;}
	.st73{opacity:0.1905;fill:#E4E3E2;}
	.st74{opacity:0.2381;fill:#DDDCDB;}
	.st75{opacity:0.2857;fill:#D6D5D4;}
	.st76{opacity:0.3333;fill:#CFCECD;}
	.st77{opacity:0.381;fill:#C9C7C6;}
	.st78{opacity:0.4286;fill:#C2C0BF;}
	.st79{opacity:0.4762;fill:#BBB9B8;}
	.st80{opacity:0.5238;fill:#B4B2B0;}
	.st81{opacity:0.5714;fill:#ADABA9;}
	.st82{opacity:0.619;fill:#A6A4A2;}
	.st83{opacity:0.6667;fill:#A09D9B;}
	.st84{opacity:0.7143;fill:#999694;}
	.st85{opacity:0.7619;fill:#928F8D;}
	.st86{opacity:0.8095;fill:#8B8886;}
	.st87{opacity:0.8571;fill:#84817E;}
	.st88{opacity:0.9048;fill:#7E7A77;}
	.st89{opacity:0.9524;fill:#777370;}
	.st90{fill:#706C69;}
	.st91{fill:#FF312A;}
	.st92{filter:url(#Adobe_OpacityMaskFilter);}
	.st93{filter:url(#Adobe_OpacityMaskFilter_1_);}
	.st94{mask:url(#SVGID_5_);fill:url(#SVGID_6_);}
	.st95{fill:url(#SVGID_7_);}
	.st96{filter:url(#Adobe_OpacityMaskFilter_2_);}
	.st97{filter:url(#Adobe_OpacityMaskFilter_3_);}
	.st98{mask:url(#SVGID_8_);fill:url(#SVGID_9_);}
	.st99{fill:url(#SVGID_10_);}
	.st100{fill:#FFFFFF;}
</style>
<g>
	<g>
		<linearGradient id="SVGID_1_" gradientUnits="userSpaceOnUse" x1="21.5337" y1="42.0694" x2="-1.174" y2="40.0599">
			<stop  offset="0" style="stop-color:#F2EBE6"/>
			<stop  offset="1.118590e-003" style="stop-color:#F1EAE5"/>
			<stop  offset="3.298860e-002" style="stop-color:#DBD8D6"/>
			<stop  offset="6.348371e-002" style="stop-color:#CECDCC"/>
			<stop  offset="9.090910e-002" style="stop-color:#C9C9C9"/>
			<stop  offset="0.1885" style="stop-color:#BEBEBE"/>
			<stop  offset="0.5333" style="stop-color:#9C9C9C"/>
			<stop  offset="0.8303" style="stop-color:#999999"/>
		</linearGradient>
		<polygon class="st0" points="15.5,81.6 0.7,76.6 0.7,0.1 15.4,3.1 		"/>
		
			<linearGradient id="SVGID_2_" gradientUnits="userSpaceOnUse" x1="143.272" y1="41.5089" x2="113.8475" y2="38.9049" gradientTransform="matrix(-1 0 0 1 177.1466 0)">
			<stop  offset="0" style="stop-color:#F2EBE6"/>
			<stop  offset="1.267731e-003" style="stop-color:#F1EAE5"/>
			<stop  offset="3.738696e-002" style="stop-color:#DBD8D6"/>
			<stop  offset="7.194799e-002" style="stop-color:#CECDCC"/>
			<stop  offset="0.103" style="stop-color:#C9C9C9"/>
			<stop  offset="0.1979" style="stop-color:#BEBEBE"/>
			<stop  offset="0.5333" style="stop-color:#9C9C9C"/>
			<stop  offset="0.8303" style="stop-color:#999999"/>
		</linearGradient>
		<polygon class="st1" points="40.6,79.6 62.1,76.8 62.1,0.4 50.6,4.2 		"/>
		<g>
			<linearGradient id="SVGID_3_" gradientUnits="userSpaceOnUse" x1="-12.1503" y1="38.4493" x2="80.1944" y2="38.2427">
				<stop  offset="0" style="stop-color:#F2EBE6"/>
				<stop  offset="8.959066e-002" style="stop-color:#F6F1ED"/>
				<stop  offset="0.326" style="stop-color:#FDFBFA"/>
				<stop  offset="0.5388" style="stop-color:#FFFFFF"/>
				<stop  offset="0.7984" style="stop-color:#F9F9F9"/>
				<stop  offset="0.8878" style="stop-color:#F5F5F5"/>
				<stop  offset="0.9731" style="stop-color:#EFEFF2"/>
				<stop  offset="1" style="stop-color:#ECECF0"/>
			</linearGradient>
			<rect x="0.7" y="0.1" class="st2" width="61.4" height="76.5"/>
			<rect x="0.7" y="0" class="st3" width="61.4" height="76.4"/>
			<g>
				<defs>
					<polygon id="SVGID_15_" points="62.1,76.4 0.7,76.4 0.6,0 62.1,0 					"/>
				</defs>
				<clipPath id="SVGID_4_">
					<use xlink:href="#SVGID_15_"  style="overflow:visible;"/>
				</clipPath>
				<g class="st4">
					<g>
						<g>
							<path class="st5" d="M-0.1,55.7c0,6.2,0,13.9,0,20l0,0c3.3-7.3,10.7-9.4,14.5-11l0,0c5.3-2.3,5.9-10.6,6.6-15.9l0,0
								c-1.2-2.1-2.2-3.9-2.4-4.2l0,0H-0.1C-0.1,45.3-0.1,49.8-0.1,55.7L-0.1,55.7z"/>
						</g>
					</g>
					<g>
						<path class="st6" d="M-0.3,58l-0.1-1c2.8-0.1,11.4-0.7,14.4-1.3c2.9-0.6,6.1-1.4,6.2-1.4l-0.2,1.1c0,0-2.9,0.7-5.8,1.3
							C11.2,57.3,2.5,57.8-0.3,58z"/>
					</g>
					<g>
						<path class="st6" d="M1.6,51.5c-0.9,0-1.6,0-1.8,0l0.1-1c1,0.1,10.8,0.1,14.8-1.8c3.7-1.8,4.4-3.1,4.4-3.1l0.6,0.9
							c-0.1,0.2-0.6,1.2-4.5,3.1C11.8,51.2,4.9,51.5,1.6,51.5z"/>
					</g>
					<g>
						<path class="st6" d="M14.5,64.5C12.4,61.8,3,62.7-0.1,63.2l-0.2-1c0.1,0,12.7-1.9,15.6,2L14.5,64.5z"/>
					</g>
					<g>
						<g>
							<path class="st7" d="M5.7,86.8L5.7,86.8L5.7,86.8L5.7,86.8z M14.8,77.1c-5.5,1.4-7,6.9-8.9,9.5l0,0l20.5-0.1l0.1-9.5
								c-0.4,0-1.7-0.1-3.9-0.1l0,0C20.6,77,18,77,14.8,77.1L14.8,77.1z"/>
						</g>
						<path class="st5" d="M14.8,77.2c-5.4,1.4-7,6.9-8.9,9.5l0,0l20.4-0.1l0.1-9.4c-0.4,0-1.7-0.1-3.9-0.1l0,0
							C20.6,77,18,77.1,14.8,77.2L14.8,77.2z"/>
					</g>
					<g>
						<g>
							<path class="st7" d="M38,86.5l20.5,0.1c-1.9-2.6-3.5-8.1-8.9-9.5l0,0C45.9,77.1,43,77,41,77l0,0c-1.7,0-2.7,0-3,0l0,0
								L38,86.5L38,86.5z"/>
						</g>
						<path class="st5" d="M38.1,86.5l20.4,0.1c-1.9-2.6-3.5-8-8.9-9.5l0,0c-3.7-0.1-6.6-0.1-8.6-0.1l0,0c-1.6,0-2.6,0-3,0l0,0
							L38.1,86.5L38.1,86.5z"/>
					</g>
					<g>
						<rect x="1.5" y="30.7" class="st8" width="8.6" height="3.8"/>
						<rect x="1.5" y="26.8" class="st8" width="5.1" height="2.5"/>
						<polygon class="st8" points="3.4,19.1 3.4,16.8 1.5,16.8 1.5,19.1 1.5,19.2 1.5,21.5 6.6,21.5 6.6,19.1 						"/>
						<rect x="7.5" y="19.1" class="st8" width="5.1" height="2.5"/>
						<rect x="7.5" y="26.9" class="st8" width="10.7" height="2.5"/>
						<rect x="11.1" y="30.7" class="st8" width="7" height="3.8"/>
						<rect x="19" y="27.4" class="st8" width="2.3" height="7.2"/>
						<rect x="1.5" y="11.9" class="st8" width="1.8" height="4.2"/>
					</g>
					<rect x="37.7" y="23.3" class="st8" width="9.1" height="4.8"/>
					<rect x="37.7" y="18.4" class="st8" width="5.4" height="3.1"/>
					<polygon class="st8" points="39.8,8.9 39.8,6.1 37.8,6.1 37.8,8.9 37.8,9.1 37.8,12 43.2,12 43.2,8.9 					"/>
					<rect x="44.2" y="8.9" class="st8" width="5.4" height="3.1"/>
					<rect x="50.6" y="8.9" class="st8" width="4.1" height="3.1"/>
					<rect x="44.2" y="-0.4" class="st8" width="5.4" height="8.1"/>
					<rect x="50.6" y="-0.4" class="st8" width="4.1" height="8.1"/>
					<rect x="44.1" y="18.5" class="st8" width="11.3" height="3.1"/>
					<rect x="47.9" y="23.3" class="st8" width="7.5" height="4.8"/>
					<rect x="47.9" y="29.4" class="st8" width="7.5" height="4.8"/>
					<g>
						<g>
							<path class="st8" d="M60.8,77.2V41.1h3.7v-4.7h-3.7V16h4.1v-1.6h-4.1V-1.8h-2.3v16.2H34.5V-3.6h-4.7V9.6l-6.3,2.1
								c-3.1-4.8-1.3-16.4-1.3-16.5l-1.5-0.2C20.6-4.6,18.9,6.7,22,12.2L16.4,14c-2.2-3.9-3.7-10.2-3.2-17.2l-2.9-0.2
								C9.4,9.3,14.3,20.5,21,21.1c0.9,0.1,1.6,0.5,2.2,1.2c0.2,0.2,0.4,0.5,0.5,0.8H-0.2v1.5h24.5c0.6,2.2,0.7,4.9,0.6,7.1
								c-1.3,1.3-2.3,2.9-2.8,4.6H0v4.7h21.8c0.3,2,1.3,3.9,2.6,5.3c0,4.6-0.7,21.8-8.8,22.8c-7.9,1-13.9,7.3-18,18.7l2.8,1
								C1.8,85,5.9,73.4,16,72.1c1.6-0.2,3-0.8,4.2-1.7l9.5,1.3v16.8h4.9V71.7l8.9-1.3c1.2,0.9,2.6,1.5,4.2,1.7
								C57.8,73.4,61.9,85,63.2,88.8l2.8-1C64.2,82.7,60.8,77.2,60.8,77.2z M58.6,16v20.3H42.2c-1.1-3.6-4-6.4-7.7-7.3V16H58.6z
								 M32.1,44.9c-3.1,0-5.6-2.5-5.6-5.6c0-3.1,2.5-5.6,5.6-5.6s5.6,2.5,5.6,5.6C37.7,42.4,35.2,44.9,32.1,44.9z M25.5,20.5
								c-1.1-1.4-2.5-2.2-4.3-2.4c-1.4-0.1-2.8-1.2-4-2.9l12.5-4.2v17.9c-0.7,0.1-1.3,0.4-1.9,0.6C27.9,26.6,27.4,22.9,25.5,20.5z
								 M21.6,69.1c4.5-4.9,5.6-14.6,5.7-20.5c0.7,0.4,1.5,0.7,2.3,0.9v20.8L21.6,69.1z M34.6,49.5c0.6-0.1,1.2-0.3,1.8-0.6
								c0.2,5.9,1.3,15.4,5.7,20.2l-7.5,1.1V49.5z M48.1,69.2c-7.8-1-8.7-17-8.8-22.2c1.7-1.5,2.8-3.6,3.2-5.9h16.1v33.7
								C55.5,71.6,52,69.7,48.1,69.2z"/>
						</g>
					</g>
					<rect x="43.4" y="44.3" class="st8" width="11.3" height="3.1"/>
					<rect x="47.3" y="49.1" class="st8" width="7.5" height="4.8"/>
					<rect x="47.3" y="55.2" class="st8" width="7.5" height="4.8"/>
					<rect x="47.3" y="61.8" class="st8" width="7.5" height="4.8"/>
				</g>
			</g>
			<path class="st9" d="M29.8,49.1v27.3h4.7V49.1c-0.8,0.2-1.5,0.3-2.3,0.3C31.3,49.4,30.5,49.3,29.8,49.1z"/>
			<path class="st9" d="M34.4,29.2V0h-4.5v29.2c0.7-0.2,1.5-0.2,2.2-0.2C32.9,28.9,33.6,29,34.4,29.2z"/>
			<path class="st9" d="M32.1,28.9c-5.7,0-10.4,4.6-10.4,10.4c0,5.7,4.6,10.4,10.4,10.4c5.7,0,10.4-4.6,10.4-10.4
				C42.5,33.6,37.8,28.9,32.1,28.9z M32.1,45c-3.2,0-5.7-2.6-5.7-5.7s2.6-5.7,5.7-5.7c3.2,0,5.7,2.6,5.7,5.7S35.3,45,32.1,45z"/>
		</g>
		<path class="st10" d="M31.3,76.3V46.7l0.7,0c0,0,0.1,0,0.3,0l0,0c0.2,0,0.5-0.1,0.8-0.1l0,0c0.7-0.2,1.6-0.4,2.5-0.9l0,0
			c1.8-1,3.7-2.8,3.8-6.6l0,0c0-0.1,0-0.2,0-0.3l0,0c0-2.8-1.4-4.5-3-5.7l0,0c-1.6-1.1-3.5-1.6-4.2-1.7l0,0c-0.2,0-0.3-0.1-0.3-0.1
			l0,0l-0.6-0.1V18.2h1.4v11.8c0.8,0.2,2.2,0.6,3.7,1.4l0,0c2.2,1.2,4.5,3.5,4.4,7.3l0,0c0,0.1,0,0.3,0,0.4l0,0
			c-0.1,4.2-2.4,6.6-4.6,7.7l0,0c-1.4,0.8-2.8,1.1-3.6,1.2l0,0v28.3H31.3L31.3,76.3z"/>
		<g>
			<g>
				<path class="st11" d="M38.1,19.4c0.4,1-1,2.4-3.1,3.2c-2.1,0.7-4,0.4-4.4-0.6c-0.4-1,1-2.4,3.1-3.2
					C35.8,18.1,37.7,18.3,38.1,19.4z"/>
				
					<ellipse transform="matrix(0.9462 -0.3237 0.3237 0.9462 -4.8541 12.2043)" class="st12" cx="34.3" cy="20.7" rx="3.8" ry="1.9"/>
				<path class="st13" d="M37.7,19.5c0.3,1-1,2.3-2.9,3c-1.9,0.7-3.8,0.4-4.1-0.6c-0.3-1,1-2.3,2.9-3C35.5,18.3,37.4,18.5,37.7,19.5
					z"/>
				
					<ellipse transform="matrix(0.9462 -0.3237 0.3237 0.9462 -4.8832 12.1603)" class="st14" cx="34.1" cy="20.8" rx="3.6" ry="1.8"/>
				<ellipse transform="matrix(0.9462 -0.3237 0.3237 0.9462 -4.8978 12.1393)" class="st15" cx="34" cy="20.8" rx="3.5" ry="1.7"/>
				<ellipse transform="matrix(0.9462 -0.3237 0.3237 0.9462 -4.9124 12.1183)" class="st16" cx="34" cy="20.8" rx="3.4" ry="1.7"/>
				
					<ellipse transform="matrix(0.9462 -0.3237 0.3237 0.9462 -4.927 12.0965)" class="st17" cx="33.9" cy="20.9" rx="3.3" ry="1.6"/>
				
					<ellipse transform="matrix(0.9461 -0.3238 0.3238 0.9461 -4.9418 12.0758)" class="st18" cx="33.8" cy="20.9" rx="3.1" ry="1.6"/>
				<ellipse transform="matrix(0.9461 -0.3237 0.3237 0.9461 -4.9562 12.0528)" class="st19" cx="33.8" cy="20.9" rx="3" ry="1.5"/>
				<ellipse transform="matrix(0.9461 -0.3238 0.3238 0.9461 -4.9708 12.0318)" class="st20" cx="33.7" cy="21" rx="2.9" ry="1.5"/>
				<ellipse transform="matrix(0.9461 -0.3238 0.3238 0.9461 -4.9855 12.011)" class="st21" cx="33.6" cy="21" rx="2.8" ry="1.4"/>
				<ellipse transform="matrix(0.9461 -0.3238 0.3238 0.9461 -5.0004 11.9907)" class="st22" cx="33.5" cy="21" rx="2.7" ry="1.3"/>
				
					<ellipse transform="matrix(0.9461 -0.3239 0.3239 0.9461 -5.0152 11.9699)" class="st23" cx="33.5" cy="21.1" rx="2.6" ry="1.3"/>
				<ellipse transform="matrix(0.9461 -0.324 0.324 0.9461 -5.0309 11.9532)" class="st24" cx="33.4" cy="21.1" rx="2.4" ry="1.2"/>
				<ellipse transform="matrix(0.9461 -0.3239 0.3239 0.9461 -5.0451 11.93)" class="st25" cx="33.3" cy="21.1" rx="2.3" ry="1.2"/>
				
					<ellipse transform="matrix(0.9461 -0.3239 0.3239 0.9461 -5.0593 11.907)" class="st26" cx="33.2" cy="21.2" rx="2.2" ry="1.1"/>
				<ellipse transform="matrix(0.9461 -0.3239 0.3239 0.9461 -5.0739 11.8855)" class="st27" cx="33.2" cy="21.2" rx="2.1" ry="1"/>
				<ellipse transform="matrix(0.946 -0.3241 0.3241 0.946 -5.0896 11.8686)" class="st28" cx="33.1" cy="21.2" rx="2" ry="1"/>
				<ellipse transform="matrix(0.946 -0.3241 0.3241 0.946 -5.1049 11.8501)" class="st29" cx="33" cy="21.2" rx="1.9" ry="0.9"/>
				<ellipse transform="matrix(0.946 -0.3241 0.3241 0.946 -5.1194 11.8273)" class="st30" cx="32.9" cy="21.3" rx="1.7" ry="0.9"/>
				<ellipse transform="matrix(0.946 -0.3241 0.3241 0.946 -5.1336 11.8044)" class="st31" cx="32.9" cy="21.3" rx="1.6" ry="0.8"/>
				<ellipse transform="matrix(0.946 -0.3242 0.3242 0.946 -5.1489 11.7852)" class="st32" cx="32.8" cy="21.3" rx="1.5" ry="0.8"/>
				
					<ellipse transform="matrix(0.9459 -0.3244 0.3244 0.9459 -5.1656 11.772)" class="st33" cx="32.7" cy="21.4" rx="1.4" ry="0.7"/>
				
					<ellipse transform="matrix(0.9459 -0.3245 0.3245 0.9459 -5.1812 11.7548)" class="st34" cx="32.7" cy="21.4" rx="1.3" ry="0.6"/>
				
					<ellipse transform="matrix(0.9459 -0.3245 0.3245 0.9459 -5.1959 11.7331)" class="st35" cx="32.6" cy="21.4" rx="1.2" ry="0.6"/>
				<ellipse transform="matrix(0.9459 -0.3245 0.3245 0.9459 -5.2105 11.7114)" class="st36" cx="32.5" cy="21.5" rx="1" ry="0.5"/>
				<path class="st37" d="M33.3,21.2c0.1,0.2-0.2,0.6-0.7,0.7c-0.5,0.2-0.9,0.1-1-0.1c-0.1-0.2,0.2-0.6,0.7-0.7
					C32.8,20.9,33.2,21,33.3,21.2z"/>
			</g>
			<g>
				<path class="st10" d="M38.6,9.2c0-3.7-3-6.7-6.7-6.7c-3.7,0-6.7,3-6.7,6.7c0,1,0.2,1.9,0.6,2.8c0,0,5.6,9.9,6.1,9.9
					c0.5,0,6-9.8,6-9.8C38.4,11.2,38.6,10.3,38.6,9.2z"/>
				<ellipse class="st38" cx="31.9" cy="9.5" rx="5.3" ry="5.2"/>
			</g>
		</g>
		<g>
			<path class="st11" d="M2.9,77.1c0,0.1-0.5,0.3-1.2,0.3l0,0c-0.7,0-1.2-0.1-1.2-0.3V0.3C0.5,0.2,1,0,1.7,0l0,0
				c0.7,0,1.2,0.1,1.2,0.3V77.1z"/>
			<path class="st39" d="M2.8,77c0,0.1-0.5,0.3-1.1,0.3l0,0c-0.6,0-1.1-0.1-1.1-0.3V0.3C0.5,0.1,1,0,1.6,0l0,0
				c0.6,0,1.1,0.1,1.1,0.3V77z"/>
			<path class="st40" d="M2.7,77c0,0.1-0.5,0.3-1.1,0.3l0,0c-0.6,0-1.1-0.1-1.1-0.3V0.3c0-0.1,0.5-0.2,1.1-0.2l0,0
				c0.6,0,1.1,0.1,1.1,0.3V77z"/>
			<path class="st41" d="M2.6,76.9c0,0.1-0.5,0.3-1,0.3l0,0c-0.6,0-1-0.1-1-0.3V0.3c0-0.1,0.5-0.2,1-0.2l0,0c0.6,0,1,0.1,1,0.3V76.9
				z"/>
			<path class="st42" d="M2.5,76.9c0,0.1-0.4,0.3-1,0.3l0,0c-0.5,0-1-0.1-1-0.3V0.3c0-0.1,0.4-0.2,1-0.2l0,0c0.5,0,1,0.1,1,0.3V76.9
				z"/>
			<path class="st43" d="M2.4,76.8c0,0.1-0.4,0.3-0.9,0.3l0,0c-0.5,0-0.9-0.1-0.9-0.3V0.2c0-0.1,0.4-0.2,0.9-0.2l0,0
				c0.5,0,0.9,0.1,0.9,0.3V76.8z"/>
			<path class="st44" d="M2.3,76.8c0,0.1-0.4,0.3-0.9,0.3l0,0c-0.5,0-0.9-0.1-0.9-0.3V0.2c0-0.1,0.4-0.2,0.9-0.2l0,0
				c0.5,0,0.9,0.1,0.9,0.3V76.8z"/>
			<path class="st45" d="M2.2,76.7c0,0.1-0.4,0.3-0.8,0.3l0,0c-0.5,0-0.8-0.1-0.8-0.3V0.2c0-0.1,0.4-0.1,0.8-0.1l0,0
				c0.5,0,0.8,0.1,0.8,0.3V76.7z"/>
			<path class="st46" d="M2.2,76.7c0,0.1-0.3,0.3-0.8,0.3l0,0c-0.4,0-0.8-0.1-0.8-0.3V0.2c0-0.1,0.3-0.1,0.8-0.1l0,0
				c0.4,0,0.8,0.1,0.8,0.3V76.7z"/>
			<path class="st47" d="M2.1,76.6c0,0.1-0.3,0.3-0.7,0.3l0,0c-0.4,0-0.7-0.1-0.7-0.3V0.2c0-0.1,0.3-0.1,0.7-0.1l0,0
				c0.4,0,0.7,0.1,0.7,0.3V76.6z"/>
			<path class="st48" d="M2,76.6c0,0.1-0.3,0.3-0.7,0.3l0,0c-0.4,0-0.7-0.1-0.7-0.3V0.2c0-0.1,0.3-0.1,0.7-0.1l0,0
				C1.7,0.1,2,0.2,2,0.4V76.6z"/>
			<path class="st49" d="M1.9,76.5c0,0.1-0.3,0.3-0.6,0.3l0,0c-0.3,0-0.6-0.1-0.6-0.3V0.2c0-0.1,0.3-0.1,0.6-0.1l0,0
				c0.3,0,0.6,0.1,0.6,0.3V76.5z"/>
			<path class="st50" d="M1.8,76.5c0,0.1-0.3,0.3-0.6,0.3l0,0c-0.3,0-0.6-0.1-0.6-0.3V0.2c0-0.1,0.3,0,0.6,0l0,0
				c0.3,0,0.6,0.1,0.6,0.3V76.5z"/>
			<path class="st51" d="M1.7,76.4c0,0.1-0.2,0.3-0.5,0.3l0,0c-0.3,0-0.5-0.1-0.5-0.3V0.2c0-0.1,0.2,0,0.5,0l0,0
				c0.3,0,0.5,0.1,0.5,0.3V76.4z"/>
			<path class="st52" d="M1.6,76.4c0,0.1-0.2,0.3-0.5,0.3l0,0c-0.3,0-0.5-0.1-0.5-0.3V0.2c0-0.1,0.2,0,0.5,0l0,0
				c0.3,0,0.5,0.1,0.5,0.3V76.4z"/>
			<path class="st53" d="M1.5,76.3c0,0.1-0.2,0.3-0.4,0.3l0,0c-0.2,0-0.4-0.1-0.4-0.3V0.1c0-0.1,0.2,0,0.4,0l0,0
				c0.2,0,0.4,0.1,0.4,0.3V76.3z"/>
			<path class="st54" d="M1.4,76.2c0,0.1-0.2,0.3-0.4,0.3l0,0c-0.2,0-0.4-0.1-0.4-0.3V0.1c0-0.1,0.2,0,0.4,0l0,0
				c0.2,0,0.4,0.1,0.4,0.3V76.2z"/>
		</g>
		<g>
			<path class="st11" d="M60.2,77.2c0-0.2,0.4-0.1,1-0.1l0,0c0.6,0,1-0.1,1-0.3l0-76.7c0-0.3-0.5,0-1,0l0,0c-0.6,0-1,0.1-1,0.6V77.2
				z"/>
			<path class="st39" d="M60.3,77.1c0-0.2,0.4-0.1,1-0.1l0,0c0.5,0,1-0.1,1-0.3l0-76.6c0-0.3-0.4,0-1,0l0,0c-0.5,0-1,0.1-1,0.6V77.1
				z"/>
			<path class="st55" d="M60.4,77c0-0.2,0.4-0.1,0.9-0.1l0,0c0.5,0,0.9-0.1,0.9-0.3l0-76.5c0-0.3-0.4,0-0.9,0l0,0
				c-0.5,0-0.9,0.1-0.9,0.6V77z"/>
			<path class="st56" d="M60.4,76.9c0-0.2,0.4,0,0.9,0l0,0c0.5,0,0.9-0.1,0.9-0.3l0-76.4c0-0.3-0.4,0-0.9,0l0,0
				c-0.5,0-0.9,0.1-0.9,0.6V76.9z"/>
			<path class="st57" d="M60.5,76.8c0-0.1,0.4,0,0.8,0l0,0c0.5,0,0.8-0.1,0.8-0.3l0-76.3c0-0.3-0.4,0-0.8,0l0,0
				c-0.5,0-0.8,0.1-0.8,0.5V76.8z"/>
			<path class="st58" d="M60.6,76.7c0-0.1,0.4,0,0.8,0l0,0c0.4,0,0.8-0.1,0.8-0.3l0-76.3c0-0.3-0.4-0.1-0.8-0.1l0,0
				c-0.4,0-0.8,0.1-0.8,0.5V76.7z"/>
			<path class="st59" d="M60.7,76.6c0-0.1,0.3,0,0.7,0l0,0c0.4,0,0.7-0.1,0.7-0.3l0-76.2c0-0.2-0.3-0.1-0.7-0.1l0,0
				c-0.4,0-0.7,0.1-0.7,0.5V76.6z"/>
			<path class="st60" d="M60.7,76.5c0-0.1,0.3,0.1,0.7,0.1l0,0c0.4,0,0.7-0.1,0.7-0.3l0-76.1c0-0.2-0.3-0.1-0.7-0.1l0,0
				c-0.4,0-0.7,0.1-0.7,0.5V76.5z"/>
			<path class="st61" d="M60.8,76.4c0,0,0.3,0.1,0.7,0.1l0,0c0.4,0,0.7-0.1,0.7-0.3l0-76c0-0.2-0.3-0.1-0.7-0.1l0,0
				c-0.4,0-0.7,0.1-0.7,0.4V76.4z"/>
			<path class="st62" d="M60.9,76.3c0,0,0.3,0.1,0.6,0.1l0,0c0.3,0,0.6-0.1,0.6-0.3l0-75.9c0-0.2-0.3-0.1-0.6-0.1l0,0
				c-0.3,0-0.6,0.1-0.6,0.4V76.3z"/>
			<path class="st63" d="M61,76.2c0,0,0.3,0.1,0.6,0.1l0,0c0.3,0,0.6-0.1,0.6-0.3l0-75.8c0-0.2-0.3-0.1-0.6-0.1l0,0
				c-0.3,0-0.6,0.1-0.6,0.4V76.2z"/>
			<path class="st64" d="M61,76.1c0,0,0.2,0.1,0.5,0.1l0,0c0.3,0,0.5-0.1,0.5-0.3l0-75.7c0-0.2-0.2-0.2-0.5-0.2l0,0
				c-0.3,0-0.5,0.1-0.5,0.4V76.1z"/>
			<path class="st65" d="M61.1,76c0,0.1,0.2,0.2,0.5,0.2l0,0c0.3,0,0.5-0.1,0.5-0.3l0-75.6c0-0.2-0.2-0.2-0.5-0.2l0,0
				c-0.3,0-0.5,0.1-0.5,0.3V76z"/>
			<path class="st66" d="M61.2,75.9c0,0.1,0.2,0.2,0.4,0.2l0,0c0.2,0,0.4-0.1,0.4-0.3l0-75.5c0-0.2-0.2-0.2-0.4-0.2l0,0
				c-0.2,0-0.4,0.1-0.4,0.3V75.9z"/>
			<path class="st67" d="M61.3,75.8c0,0.1,0.2,0.2,0.4,0.2l0,0c0.2,0,0.4-0.1,0.4-0.3l0-75.4c0-0.2-0.2-0.2-0.4-0.2l0,0
				c-0.2,0-0.4,0.1-0.4,0.3V75.8z"/>
			<path class="st68" d="M61.3,75.7c0,0.1,0.2,0.2,0.4,0.2l0,0c0.2,0,0.3-0.1,0.3-0.3l0-75.3c0-0.2-0.2-0.2-0.3-0.2l0,0
				c-0.2,0-0.4,0.1-0.4,0.3V75.7z"/>
			<path class="st69" d="M61.4,75.6c0,0.1,0.1,0.3,0.3,0.3l0,0c0.2,0,0.3-0.1,0.3-0.3V0.4c0-0.1-0.1-0.3-0.3-0.3l0,0
				c-0.2,0-0.3,0.1-0.3,0.3V75.6z"/>
		</g>
		<g>
			<g>
				<path class="st11" d="M32.2,63.2c0,0-0.3-0.3-0.7,0c-0.4,0.3-7.1,11-5.8,11.4c0.7,0.2,10,1,11.8-0.1
					C38.3,74,32.2,63.2,32.2,63.2z"/>
				<path class="st70" d="M32.2,63.2c0,0-0.3-0.3-0.7,0c-0.4,0.3-6.9,10.9-5.7,11.3c0.6,0.2,9.9,1,11.6-0.1
					C38.2,74,32.2,63.2,32.2,63.2z"/>
				<path class="st71" d="M32.2,63.2c0,0-0.3-0.3-0.7,0c-0.4,0.3-6.8,10.8-5.6,11.2c0.6,0.2,9.8,0.9,11.5-0.1
					C38.1,74,32.2,63.2,32.2,63.2z"/>
				<path class="st72" d="M32.2,63.3c0,0-0.3-0.3-0.7,0C31.2,63.6,24.9,74,26,74.4c0.5,0.2,9.6,0.9,11.3-0.1
					C38,73.9,32.2,63.3,32.2,63.3z"/>
				<path class="st73" d="M32.2,63.3c0,0-0.3-0.3-0.7,0c-0.4,0.3-6.5,10.6-5.5,11c0.5,0.3,9.5,0.9,11.1,0
					C37.9,73.9,32.2,63.3,32.2,63.3z"/>
				<path class="st74" d="M32.2,63.3c0,0-0.3-0.3-0.7,0c-0.4,0.3-6.4,10.5-5.4,10.9c0.5,0.3,9.4,0.9,11,0
					C37.8,73.9,32.2,63.3,32.2,63.3z"/>
				<path class="st75" d="M32.2,63.3c0,0-0.3-0.3-0.7,0c-0.4,0.3-6.2,10.4-5.3,10.8c0.4,0.3,9.3,0.8,10.8,0
					C37.8,73.9,32.2,63.3,32.2,63.3z"/>
				<path class="st76" d="M32.2,63.4c0,0-0.3-0.3-0.6,0c-0.4,0.3-6.1,10.3-5.2,10.7c0.4,0.3,9.2,0.8,10.7,0
					C37.7,73.9,32.2,63.4,32.2,63.4z"/>
				<path class="st77" d="M32.2,63.4c0,0-0.3-0.3-0.6,0c-0.4,0.3-5.9,10.2-5.2,10.7c0.4,0.3,9.1,0.8,10.5,0.1
					C37.6,73.8,32.2,63.4,32.2,63.4z"/>
				<path class="st78" d="M32.2,63.4c0,0-0.3-0.3-0.6,0c-0.4,0.3-5.8,10.1-5.1,10.6c0.3,0.4,9,0.7,10.3,0.1
					C37.5,73.8,32.2,63.4,32.2,63.4z"/>
				<path class="st79" d="M32.2,63.5c0,0-0.3-0.3-0.6,0c-0.4,0.3-5.7,10-5,10.5c0.3,0.4,8.9,0.7,10.2,0.1
					C37.4,73.8,32.2,63.5,32.2,63.5z"/>
				<path class="st80" d="M32.2,63.5c0,0-0.3-0.3-0.6,0c-0.4,0.3-5.5,9.9-5,10.4c0.2,0.4,8.8,0.7,10,0.1
					C37.3,73.8,32.2,63.5,32.2,63.5z"/>
				<path class="st81" d="M32.2,63.5c0,0-0.3-0.3-0.6,0c-0.4,0.3-5.4,9.8-4.9,10.3c0.2,0.4,8.7,0.7,9.9,0.2
					C37.2,73.8,32.2,63.5,32.2,63.5z"/>
				<path class="st82" d="M32.2,63.6c0,0-0.3-0.3-0.6,0c-0.3,0.3-5.2,9.7-4.8,10.2c0.2,0.4,8.6,0.6,9.7,0.2
					C37.2,73.7,32.2,63.6,32.2,63.6z"/>
				<path class="st83" d="M32.2,63.6c0,0-0.3-0.3-0.6,0c-0.3,0.3-5.1,9.6-4.7,10.1c0.1,0.5,8.5,0.6,9.5,0.2
					C37.1,73.7,32.2,63.6,32.2,63.6z"/>
				<path class="st84" d="M32.2,63.6c0,0-0.3-0.3-0.6,0c-0.3,0.3-5,9.5-4.7,10c0.1,0.5,8.4,0.6,9.4,0.2C37,73.7,32.2,63.6,32.2,63.6
					z"/>
				<path class="st85" d="M32.2,63.6c0,0-0.3-0.3-0.6,0c-0.3,0.3-4.8,9.4-4.6,9.9c0.1,0.5,8.3,0.6,9.2,0.2
					C36.9,73.7,32.2,63.6,32.2,63.6z"/>
				<path class="st86" d="M32.2,63.7c0,0-0.3-0.3-0.6,0c-0.3,0.3-4.7,9.3-4.5,9.8c0,0.5,8.2,0.5,9,0.3
					C36.8,73.7,32.2,63.7,32.2,63.7z"/>
				<path class="st87" d="M32.2,63.7c0,0-0.3-0.3-0.6,0c-0.3,0.3-4.5,9.2-4.5,9.8c0,0.5,8.1,0.5,8.9,0.3
					C36.7,73.6,32.2,63.7,32.2,63.7z"/>
				<path class="st88" d="M32.2,63.7c0,0-0.3-0.3-0.6,0c-0.3,0.3-4.4,9.1-4.4,9.7c-0.1,0.5,8,0.5,8.7,0.3
					C36.6,73.6,32.2,63.7,32.2,63.7z"/>
				<path class="st89" d="M32.2,63.8c0,0-0.2-0.3-0.6,0c-0.3,0.3-4.3,9-4.3,9.6c-0.1,0.6,7.9,0.5,8.6,0.3
					C36.5,73.6,32.2,63.8,32.2,63.8z"/>
				<path class="st90" d="M32.2,63.8c0,0-0.2-0.3-0.6,0c-0.3,0.3-4.1,8.9-4.2,9.5c-0.1,0.6,7.8,0.4,8.4,0.4
					C36.5,73.6,32.2,63.8,32.2,63.8z"/>
			</g>
			<g>
				<polygon class="st91" points="26.9,73.2 36.2,73.3 31.8,70.9 				"/>
				<polygon class="st91" points="26.9,73.2 32.1,62.7 31.8,71.6 				"/>
				<polygon class="st91" points="36.2,73.3 32.1,62.7 31.8,71.6 				"/>
				<defs>
					<filter id="Adobe_OpacityMaskFilter" filterUnits="userSpaceOnUse" x="27" y="71.4" width="4.8" height="1.9">
						<feFlood  style="flood-color:white;flood-opacity:1" result="back"/>
						<feBlend  in="SourceGraphic" in2="back" mode="normal"/>
					</filter>
				</defs>
				<mask maskUnits="userSpaceOnUse" x="27" y="71.4" width="4.8" height="1.9" id="SVGID_5_">
					<g class="st92">
						<defs>
							<filter id="Adobe_OpacityMaskFilter_1_" filterUnits="userSpaceOnUse" x="27" y="71.4" width="4.8" height="1.9">
								<feFlood  style="flood-color:white;flood-opacity:1" result="back"/>
								<feBlend  in="SourceGraphic" in2="back" mode="normal"/>
							</filter>
						</defs>
						<mask maskUnits="userSpaceOnUse" x="27" y="71.4" width="4.8" height="1.9" id="SVGID_5_">
							<g class="st93">
							</g>
						</mask>
						
							<linearGradient id="SVGID_6_" gradientUnits="userSpaceOnUse" x1="-588.9889" y1="56.1848" x2="-589.3956" y2="54.6548" gradientTransform="matrix(0.991 -0.134 0.134 0.991 605.9265 -61.2538)">
							<stop  offset="0.2909" style="stop-color:#FFFFFF"/>
							<stop  offset="0.4577" style="stop-color:#FDFDFD"/>
							<stop  offset="0.5327" style="stop-color:#F6F6F6"/>
							<stop  offset="0.5892" style="stop-color:#E9E9E9"/>
							<stop  offset="0.6366" style="stop-color:#D7D7D7"/>
							<stop  offset="0.6782" style="stop-color:#BFBFBF"/>
							<stop  offset="0.7158" style="stop-color:#A2A2A2"/>
							<stop  offset="0.7503" style="stop-color:#808080"/>
							<stop  offset="0.7825" style="stop-color:#585858"/>
							<stop  offset="0.8116" style="stop-color:#2C2C2C"/>
							<stop  offset="0.8364" style="stop-color:#000000"/>
							<stop  offset="0.8444" style="stop-color:#000000"/>
							<stop  offset="1" style="stop-color:#000000"/>
						</linearGradient>
						<polygon class="st94" points="27,73.1 31.6,71.4 31.8,71.6 27,73.2 						"/>
					</g>
				</mask>
				
					<linearGradient id="SVGID_7_" gradientUnits="userSpaceOnUse" x1="-588.9889" y1="56.1848" x2="-589.3956" y2="54.6548" gradientTransform="matrix(0.991 -0.134 0.134 0.991 605.9265 -61.2538)">
					<stop  offset="0.2909" style="stop-color:#FFFFFF"/>
					<stop  offset="0.4577" style="stop-color:#FDFDFD"/>
					<stop  offset="0.5327" style="stop-color:#F6F6F6"/>
					<stop  offset="0.5892" style="stop-color:#E9E9E9"/>
					<stop  offset="0.6366" style="stop-color:#D7D7D7"/>
					<stop  offset="0.6782" style="stop-color:#BFBFBF"/>
					<stop  offset="0.7158" style="stop-color:#A2A2A2"/>
					<stop  offset="0.7503" style="stop-color:#808080"/>
					<stop  offset="0.7825" style="stop-color:#585858"/>
					<stop  offset="0.8116" style="stop-color:#2C2C2C"/>
					<stop  offset="0.8364" style="stop-color:#000000"/>
					<stop  offset="0.8444" style="stop-color:#000000"/>
					<stop  offset="1" style="stop-color:#000000"/>
				</linearGradient>
				<polygon class="st95" points="27,73.1 31.6,71.4 31.8,71.6 27,73.2 				"/>
				<g>
					<defs>
						<filter id="Adobe_OpacityMaskFilter_2_" filterUnits="userSpaceOnUse" x="28.8" y="63.4" width="3.2" height="9.2">
							<feFlood  style="flood-color:white;flood-opacity:1" result="back"/>
							<feBlend  in="SourceGraphic" in2="back" mode="normal"/>
						</filter>
					</defs>
					<mask maskUnits="userSpaceOnUse" x="28.8" y="63.4" width="3.2" height="9.2" id="SVGID_8_">
						<g class="st96">
							<defs>
								<filter id="Adobe_OpacityMaskFilter_3_" filterUnits="userSpaceOnUse" x="28.8" y="63.4" width="3.2" height="9.2">
									<feFlood  style="flood-color:white;flood-opacity:1" result="back"/>
									<feBlend  in="SourceGraphic" in2="back" mode="normal"/>
								</filter>
							</defs>
							<mask maskUnits="userSpaceOnUse" x="28.8" y="63.4" width="3.2" height="9.2" id="SVGID_8_">
								<g class="st97">
								</g>
							</mask>
							
								<linearGradient id="SVGID_9_" gradientUnits="userSpaceOnUse" x1="-585.0292" y1="51.5775" x2="-589.4675" y2="50.4348" gradientTransform="matrix(0.991 -0.134 0.134 0.991 605.9265 -61.2538)">
								<stop  offset="1.547480e-002" style="stop-color:#FFFFFF"/>
								<stop  offset="6.212867e-002" style="stop-color:#F5F5F5"/>
								<stop  offset="0.1411" style="stop-color:#DBDBDB"/>
								<stop  offset="0.2429" style="stop-color:#AFAFAF"/>
								<stop  offset="0.3634" style="stop-color:#737373"/>
								<stop  offset="0.4981" style="stop-color:#272727"/>
								<stop  offset="0.5636" style="stop-color:#000000"/>
							</linearGradient>
							<polygon class="st98" points="32,63.4 30.7,66 28.8,72.5 31.7,71.5 							"/>
						</g>
					</mask>
					
						<linearGradient id="SVGID_10_" gradientUnits="userSpaceOnUse" x1="-585.0292" y1="51.5775" x2="-589.4675" y2="50.4348" gradientTransform="matrix(0.991 -0.134 0.134 0.991 605.9265 -61.2538)">
						<stop  offset="0" style="stop-color:#FFFFFF"/>
						<stop  offset="0.5636" style="stop-color:#FFFFFF"/>
					</linearGradient>
					<polygon class="st99" points="32,63.4 30.7,66 28.8,72.5 31.7,71.5 					"/>
				</g>
			</g>
		</g>
	</g>
</g>
<g>
	<polygon class="st100" points="32.9,10.3 32.8,10.7 33,10.9 33.8,12 35.1,12 34.1,10.5 35,9.1 33.8,9.1 33,10.2 	"/>
	<path class="st100" d="M33,9.9c-0.1-0.9-0.7-1.5-1.6-1.5c-0.2,0-0.3,0-0.5,0.1c-0.2,0-0.3,0.1-0.5,0.2l0-0.8h2.2V6.8H29l0,3l1.3,0
		c0.2-0.4,0.7-0.5,0.9-0.3c0.2,0.2,0.3,0.5,0.3,0.7c0,0.7-1,1.1-1.3,0.2l-1.4,0c0.1,0.5,0.2,0.9,0.7,1.2c0.2,0.1,0.4,0.2,0.6,0.3
		c0.2,0.1,0.5,0.1,0.9,0.1c0.5,0,0.8-0.1,1.1-0.2c0.3-0.2,0.5-0.5,0.6-0.7C32.9,10.8,33,10.4,33,9.9L33,9.9z"/>
</g>
</svg>
