<svg xmlns="http://www.w3.org/2000/svg" xmlns:xlink="http://www.w3.org/1999/xlink" preserveAspectRatio="xMidYMid" width="20" height="17.09" viewBox="0 0 20 17.09">
  <defs>
    <style>
      .cls-1 {
        fill: #fc352e;
      }

      .cls-1, .cls-2 {
        fill-rule: evenodd;
      }

      .cls-2 {
        fill: #131313;
      }
    </style>
  </defs>
  <g>
    <path d="M16.404,16.996 L3.597,16.996 C2.201,16.996 0.954,17.088 0.261,15.877 C-0.431,14.668 0.391,13.231 1.094,12.030 L6.696,1.899 C7.393,0.710 8.632,-0.000 10.012,-0.000 L10.015,-0.000 C11.396,0.001 12.636,0.713 13.331,1.904 L18.910,12.035 C19.611,13.236 20.430,14.673 19.739,15.879 C19.045,17.089 17.799,16.996 16.404,16.996 L16.404,16.996 ZM10.012,1.628 C9.769,1.628 9.167,1.696 8.801,2.321 L2.386,13.266 C2.017,13.894 2.258,14.452 2.379,14.662 C2.500,14.875 2.862,15.368 3.597,15.368 L16.404,15.368 C17.139,15.368 17.500,14.875 17.622,14.663 C17.743,14.453 17.983,13.896 17.616,13.268 L11.224,2.322 C10.859,1.696 10.255,1.628 10.013,1.628 C10.013,1.628 10.012,1.628 10.012,1.628 L10.012,1.628 Z" class="cls-1"/>
    <path d="M13.999,8.999 L13.999,13.998 L12.238,13.998 L9.119,13.998 L6.922,13.998 L6.000,13.998 L6.000,8.999 L7.761,8.999 L7.761,12.544 L9.119,12.544 L9.119,8.999 L10.880,8.999 L10.880,12.544 L12.238,12.544 L12.238,8.999 L13.999,8.999 Z" class="cls-2"/>
  </g>
</svg>
