<svg xmlns="http://www.w3.org/2000/svg" xmlns:xlink="http://www.w3.org/1999/xlink" preserveAspectRatio="xMidYMid" width="18" height="20" viewBox="0 0 18 20">
  <defs>
    <style>
      .cls-1 {
        fill: #009cff;
        fill-rule: evenodd;
      }
    </style>
  </defs>
  <path d="M17.650,14.067 L15.561,12.895 L17.371,11.857 C17.705,11.665 17.816,11.247 17.619,10.922 C17.422,10.598 16.992,10.490 16.658,10.681 L14.164,12.111 L10.405,9.999 L14.164,7.889 L16.658,9.319 C16.770,9.383 16.893,9.414 17.014,9.414 C17.254,9.414 17.489,9.293 17.619,9.077 C17.816,8.753 17.705,8.334 17.371,8.143 L15.560,7.105 L17.650,5.932 C17.986,5.744 18.100,5.326 17.907,5.000 C17.713,4.673 17.284,4.561 16.948,4.750 L14.859,5.923 L14.840,3.879 C14.837,3.502 14.518,3.197 14.132,3.203 C13.744,3.206 13.433,3.514 13.436,3.891 L13.463,6.707 L9.703,8.818 L9.703,4.596 L12.224,3.211 C12.561,3.025 12.680,2.609 12.489,2.281 C12.299,1.953 11.870,1.837 11.533,2.022 L9.703,3.028 L9.703,0.682 C9.703,0.306 9.388,-0.000 9.001,-0.000 C8.613,-0.000 8.299,0.306 8.299,0.682 L8.299,3.028 L6.469,2.022 C6.131,1.837 5.703,1.953 5.513,2.281 C5.322,2.609 5.441,3.025 5.778,3.211 L8.299,4.596 L8.299,8.818 L4.539,6.707 L4.565,3.891 C4.569,3.514 4.257,3.206 3.870,3.203 L3.863,3.203 C3.479,3.203 3.165,3.504 3.162,3.879 L3.142,5.923 L1.053,4.750 C0.718,4.561 0.288,4.673 0.095,5.000 C-0.099,5.326 0.016,5.744 0.351,5.932 L2.441,7.105 L0.630,8.143 C0.296,8.334 0.185,8.753 0.382,9.078 C0.513,9.294 0.747,9.414 0.987,9.414 C1.108,9.414 1.231,9.383 1.343,9.319 L3.838,7.889 L7.597,10.000 L3.837,12.111 L1.343,10.681 C1.010,10.490 0.579,10.597 0.382,10.922 C0.185,11.247 0.296,11.665 0.630,11.856 L2.441,12.895 L0.351,14.067 C0.016,14.256 -0.099,14.673 0.095,14.999 C0.225,15.219 0.461,15.341 0.703,15.341 C0.822,15.341 0.943,15.312 1.053,15.249 L3.142,14.077 L3.162,16.121 C3.165,16.496 3.478,16.797 3.863,16.797 C3.865,16.797 3.868,16.797 3.870,16.797 C4.257,16.793 4.569,16.485 4.565,16.108 L4.539,13.292 L8.299,11.182 L8.299,15.403 L5.778,16.789 C5.441,16.974 5.322,17.391 5.513,17.719 C5.642,17.941 5.880,18.065 6.124,18.065 C6.241,18.065 6.360,18.037 6.469,17.977 L8.299,16.971 L8.299,19.317 C8.299,19.694 8.613,19.999 9.001,19.999 C9.388,19.999 9.703,19.694 9.703,19.317 L9.703,16.971 L11.533,17.977 C11.642,18.037 11.760,18.065 11.877,18.065 C12.122,18.065 12.360,17.941 12.489,17.719 C12.680,17.391 12.561,16.974 12.224,16.789 L9.703,15.403 L9.703,11.182 L13.463,13.292 L13.436,16.108 C13.432,16.485 13.743,16.793 14.131,16.797 C14.133,16.797 14.136,16.797 14.138,16.797 C14.522,16.797 14.836,16.496 14.839,16.121 L14.859,14.077 L16.948,15.250 C17.059,15.312 17.179,15.341 17.298,15.341 C17.541,15.341 17.777,15.219 17.907,14.999 C18.101,14.673 17.986,14.256 17.650,14.067 L17.650,14.067 Z" class="cls-1"/>
</svg>
