<?xml version="1.0" encoding="iso-8859-1"?>
<!-- Generator: Adobe Illustrator 19.0.0, SVG Export Plug-In . SVG Version: 6.00 Build 0)  -->
<svg version="1.1" id="&#x421;&#x43B;&#x43E;&#x439;_1"
	 xmlns="http://www.w3.org/2000/svg" xmlns:xlink="http://www.w3.org/1999/xlink" x="0px" y="0px" viewBox="0 0 512 513"
	 style="enable-background:new 0 0 512 513;" xml:space="preserve">
<path style="fill:#FFFFFF;" d="M512,493c0,11.047-8.953,20-20,20H256c-11.047,0-20-8.953-20-20s8.953-20,20-20h236
	C503.047,473,512,481.953,512,493L512,493z M492,394.332H334.668c-11.047,0-20,8.957-20,20c0,11.047,8.953,20,20,20H492
	c11.047,0,20-8.953,20-20C512,403.289,503.047,394.332,492,394.332L492,394.332z M492,315.668h-78.668c-11.047,0-20,8.953-20,20
	s8.953,20,20,20H492c11.047,0,20-8.953,20-20S503.047,315.668,492,315.668L492,315.668z M506.141,153.14l-354,354
	c-3.75,3.754-8.836,5.86-14.141,5.86H20c-11.047,0-20-8.953-20-20V375c0-5.305,2.105-10.391,5.859-14.141l354-354
	c7.809-7.812,20.473-7.812,28.282,0l118,118C513.953,132.668,513.953,145.332,506.141,153.14L506.141,153.14z M463.715,139
	L374,49.285l-334,334V473h89.715L463.715,139z M463.715,139"/>
</svg>
