<svg xmlns="http://www.w3.org/2000/svg" xmlns:xlink="http://www.w3.org/1999/xlink" preserveAspectRatio="xMidYMid" width="18" height="15" viewBox="0 0 18 15">
  <defs>
    <style>
      .cls-1 {
        fill: #fff;
        fill-rule: evenodd;
      }
    </style>
  </defs>
  <path d="M14.769,10.730 L14.738,10.730 C14.676,10.830 14.584,10.909 14.455,10.909 L6.317,10.909 C5.141,10.906 4.130,10.104 3.897,8.990 L2.179,0.681 L0.352,0.681 C0.158,0.681 0.000,0.529 0.000,0.340 C0.000,0.152 0.158,-0.001 0.352,-0.001 L2.468,-0.001 C2.635,-0.001 2.780,0.114 2.813,0.272 L4.588,8.856 C4.744,9.601 5.392,10.131 6.162,10.200 L9.013,6.013 L6.061,1.858 L9.757,1.858 L12.827,5.998 L9.939,10.227 L11.317,10.227 L14.187,6.013 L11.234,1.858 L14.932,1.858 L18.000,5.998 L14.769,10.730 ZM5.993,11.590 C6.967,11.590 7.756,12.354 7.756,13.295 C7.756,14.236 6.967,15.000 5.993,15.000 C5.020,15.000 4.231,14.236 4.231,13.295 C4.231,12.354 5.020,11.590 5.993,11.590 ZM13.044,11.590 C14.018,11.590 14.807,12.354 14.807,13.295 C14.807,14.236 14.018,15.000 13.044,15.000 C12.071,15.000 11.282,14.236 11.282,13.295 C11.282,12.354 12.071,11.590 13.044,11.590 Z" class="cls-1"/>
</svg>
