<?xml version="1.0" encoding="utf-8"?>
<!-- Generator: Adobe Illustrator 19.0.0, SVG Export Plug-In . SVG Version: 6.00 Build 0)  -->
<svg version="1.1" id="Слой_1" xmlns="http://www.w3.org/2000/svg" xmlns:xlink="http://www.w3.org/1999/xlink" x="0px" y="0px"
	 viewBox="-49 140 512 513" style="enable-background:new -49 140 512 513;" xml:space="preserve">
<style type="text/css">
	.st0{fill:#FFFFFF;}
</style>
<path class="st0" d="M463,633c0,11-9,20-20,20H207c-11,0-20-9-20-20s9-20,20-20h236C454,613,463,622,463,633L463,633z M443,534.3
	H285.7c-11,0-20,9-20,20c0,11,9,20,20,20H443c11,0,20-9,20-20C463,543.3,454,534.3,443,534.3L443,534.3z M443,455.7h-78.7
	c-11,0-20,9-20,20s9,20,20,20H443c11,0,20-9,20-20S454,455.7,443,455.7L443,455.7z M457.1,293.1l-354,354c-3.8,3.8-8.8,5.9-14.1,5.9
	H-29c-11,0-20-9-20-20V515c0-5.3,2.1-10.4,5.9-14.1l354-354c7.8-7.8,20.5-7.8,28.3,0l118,118C465,272.7,465,285.3,457.1,293.1
	L457.1,293.1z"/>
</svg>
