<svg xmlns="http://www.w3.org/2000/svg" xmlns:xlink="http://www.w3.org/1999/xlink" preserveAspectRatio="xMidYMid" width="81.22" height="48.25" viewBox="0 0 81.22 48.25">
  <defs>
    <style>
      .cls-1 {
        fill: #fff;
      }

      .cls-1, .cls-2 {
        fill-rule: evenodd;
      }

      .cls-2 {
        fill: #898682;
      }
    </style>
  </defs>
  <g>
    <path d="M73.659,29.571 L73.659,17.767 C73.659,15.199 72.011,13.997 69.982,13.997 C67.656,13.997 66.050,15.323 66.050,18.264 L66.050,29.571 L59.710,29.571 L59.710,8.861 L66.050,8.861 L66.050,10.808 C67.192,9.275 69.305,8.281 72.095,8.281 C76.364,8.281 80.000,11.264 80.000,16.855 L80.000,29.571 L73.659,29.571 ZM49.308,23.586 C50.883,22.879 51.947,21.672 52.329,20.500 L58.155,21.029 C57.468,24.435 55.240,27.029 51.589,28.667 C45.017,31.615 38.919,29.112 36.297,23.500 C33.675,17.889 35.802,11.696 41.875,8.972 C47.487,6.454 53.626,8.848 56.283,14.534 C56.653,15.325 56.928,16.113 57.108,16.897 L43.464,23.018 C45.109,24.650 47.194,24.534 49.308,23.586 ZM49.641,15.146 C48.006,13.237 45.907,13.222 44.177,13.998 C41.986,14.981 41.018,16.691 41.378,18.853 L49.641,15.146 Z" class="cls-1"/>
    <path d="M26.969,29.421 L26.969,29.419 L26.969,27.475 C25.574,29.048 23.503,30.001 20.670,30.001 C15.133,30.001 10.567,25.238 10.567,19.066 C10.567,12.895 15.134,8.229 20.670,8.131 C22.971,8.091 25.112,8.420 26.969,9.283 L26.969,0.425 L33.310,0.425 L33.310,18.872 L33.310,29.419 L33.310,29.421 L26.969,29.421 ZM21.938,14.013 C19.022,14.013 16.908,15.959 16.908,19.066 C16.908,22.172 19.022,24.119 21.938,24.119 C24.855,24.119 26.969,22.172 26.969,19.066 C26.969,15.959 24.855,14.013 21.938,14.013 ZM3.804,7.455 C1.733,7.455 -0.000,5.757 -0.000,3.727 C-0.000,1.697 1.733,-0.001 3.804,-0.001 C5.875,-0.001 7.609,1.697 7.609,3.727 C7.609,5.757 5.875,7.455 3.804,7.455 ZM6.975,29.987 L0.634,29.987 L0.634,9.277 L6.975,9.277 L6.975,29.987 Z" class="cls-2"/>
    <path d="M80.522,45.000 L80.522,43.297 C79.963,44.402 78.884,45.143 77.532,45.143 C75.530,45.143 74.138,43.570 74.138,41.425 C74.138,39.280 75.543,37.707 77.519,37.707 C78.884,37.707 79.963,38.448 80.522,39.566 L80.522,37.850 L81.211,37.850 L81.211,45.000 L80.522,45.000 ZM77.623,38.370 C75.972,38.370 74.827,39.657 74.827,41.425 C74.827,43.193 75.972,44.480 77.623,44.480 C79.274,44.480 80.535,43.206 80.535,41.425 C80.535,39.657 79.274,38.370 77.623,38.370 ZM72.696,45.000 L68.431,41.412 L68.431,45.000 L67.742,45.000 L67.742,37.850 L68.431,37.850 L68.431,41.113 L72.319,37.850 L73.255,37.850 L69.211,41.230 L73.645,45.000 L72.696,45.000 ZM63.713,45.000 L63.024,45.000 L63.024,38.500 L60.410,38.500 L60.410,37.850 L63.713,37.850 L66.313,37.850 L66.313,38.500 L63.713,38.500 L63.713,45.000 ZM55.978,45.143 C53.937,45.143 52.311,43.557 52.311,41.425 C52.311,39.280 53.963,37.707 55.978,37.707 C58.006,37.707 59.644,39.280 59.644,41.425 C59.644,43.557 58.032,45.143 55.978,45.143 ZM55.978,38.370 C54.340,38.370 53.013,39.631 53.013,41.425 C53.013,43.193 54.327,44.480 55.978,44.480 C57.629,44.480 58.942,43.193 58.942,41.425 C58.942,39.644 57.616,38.370 55.978,38.370 ZM47.489,37.915 C49.413,37.915 50.856,39.319 50.856,41.425 C50.856,43.648 49.270,45.143 47.229,45.143 C45.201,45.143 43.641,43.700 43.615,41.191 C43.615,35.835 45.734,34.847 50.050,34.847 L50.050,35.510 C46.254,35.510 44.603,36.251 44.343,39.878 C44.902,38.591 46.163,37.915 47.489,37.915 ZM44.304,41.451 C44.304,43.323 45.552,44.519 47.203,44.519 C48.841,44.519 50.167,43.323 50.167,41.451 C50.167,39.696 48.971,38.526 47.359,38.526 C45.773,38.526 44.304,39.657 44.304,41.451 ZM41.132,43.297 C40.573,44.402 39.494,45.143 38.142,45.143 C36.140,45.143 34.749,43.570 34.749,41.425 C34.749,39.280 36.153,37.707 38.129,37.707 C39.494,37.707 40.573,38.448 41.132,39.566 L41.132,37.850 L41.821,37.850 L41.821,45.000 L41.132,45.000 L41.132,43.297 ZM38.233,38.370 C36.582,38.370 35.438,39.657 35.438,41.425 C35.438,43.193 36.582,44.480 38.233,44.480 C39.884,44.480 41.145,43.206 41.145,41.425 C41.145,39.657 39.884,38.370 38.233,38.370 ZM29.913,45.143 C28.561,45.143 27.469,44.402 26.910,43.284 L26.910,48.250 L26.221,48.250 L26.221,37.850 L26.910,37.850 L26.910,39.566 C27.469,38.448 28.561,37.707 29.913,37.707 C31.902,37.707 33.293,39.280 33.293,41.425 C33.293,43.570 31.902,45.143 29.913,45.143 ZM29.809,38.370 C28.158,38.370 26.897,39.657 26.897,41.425 C26.897,43.206 28.158,44.480 29.809,44.480 C31.460,44.480 32.604,43.193 32.604,41.425 C32.604,39.657 31.473,38.370 29.809,38.370 ZM21.645,45.143 C19.617,45.143 18.525,44.246 18.239,42.738 L18.928,42.738 C19.240,44.012 20.163,44.571 21.619,44.571 C23.153,44.571 23.842,43.856 23.842,42.972 C23.842,42.348 23.556,41.555 22.126,41.555 L20.566,41.555 L20.566,40.996 L21.762,40.996 C23.192,40.996 23.608,40.437 23.608,39.761 C23.608,38.994 23.036,38.279 21.515,38.279 C20.475,38.279 19.513,38.656 19.201,39.657 L18.499,39.657 C18.811,38.409 19.890,37.707 21.541,37.707 C23.387,37.707 24.310,38.617 24.310,39.722 C24.310,40.411 23.972,40.931 23.231,41.217 C24.193,41.490 24.531,42.283 24.531,43.024 C24.531,44.220 23.517,45.143 21.645,45.143 ZM16.042,43.297 C15.483,44.402 14.404,45.143 13.052,45.143 C11.050,45.143 9.659,43.570 9.659,41.425 C9.659,39.280 11.063,37.707 13.039,37.707 C14.404,37.707 15.483,38.448 16.042,39.566 L16.042,37.850 L16.731,37.850 L16.731,45.000 L16.042,45.000 L16.042,43.297 ZM13.143,38.370 C11.492,38.370 10.348,39.657 10.348,41.425 C10.348,43.193 11.492,44.480 13.143,44.480 C14.794,44.480 16.055,43.206 16.055,41.425 C16.055,39.657 14.794,38.370 13.143,38.370 ZM4.823,45.143 C3.471,45.143 2.379,44.402 1.820,43.284 L1.820,48.250 L1.131,48.250 L1.131,37.850 L1.820,37.850 L1.820,39.566 C2.379,38.448 3.471,37.707 4.823,37.707 C6.812,37.707 8.203,39.280 8.203,41.425 C8.203,43.570 6.812,45.143 4.823,45.143 ZM4.719,38.370 C3.068,38.370 1.807,39.657 1.807,41.425 C1.807,43.206 3.068,44.480 4.719,44.480 C6.370,44.480 7.514,43.193 7.514,41.425 C7.514,39.657 6.383,38.370 4.719,38.370 Z" class="cls-1"/>
  </g>
</svg>
