<?xml version="1.0" encoding="iso-8859-1"?>
<!-- Generator: Adobe Illustrator 19.0.0, SVG Export Plug-In . SVG Version: 6.00 Build 0)  -->
<svg version="1.1" id="&#x421;&#x43B;&#x43E;&#x439;_1"
	 xmlns="http://www.w3.org/2000/svg" xmlns:xlink="http://www.w3.org/1999/xlink" x="0px" y="0px" viewBox="0 0 472 512"
	 style="enable-background:new 0 0 472 512; fill: #ffffff;" xml:space="preserve">
<g>
	<g>
		<path d="M472,492c0,11.047-8.953,20-20,20H216c-11.047,0-20-8.953-20-20s8.953-20,20-20h236C463.047,472,472,480.953,472,492
			L472,492z M452,393.332H294.668c-11.047,0-20,8.957-20,20c0,11.047,8.953,20,20,20H452c11.047,0,20-8.953,20-20
			C472,402.289,463.047,393.332,452,393.332L452,393.332z M452,314.668h-78.668c-11.047,0-20,8.953-20,20s8.953,20,20,20H452
			c11.047,0,20-8.953,20-20S463.047,314.668,452,314.668L452,314.668z M466.141,112.14l-354,394c-3.75,3.754-8.836,5.86-14.141,5.86
			H20c-11.047,0-20-8.953-20-20v-78c0-5.305,2.105-10.391,5.859-14.141l354-394c7.809-7.812,20.473-7.812,28.282,0l78,78
			C473.953,91.668,473.953,104.332,466.141,112.14L466.141,112.14z M423.715,138"/>
	</g>
</g>
</svg>
