<?xml version="1.0" encoding="iso-8859-1"?>
<!-- Generator: Adobe Illustrator 19.0.0, SVG Export Plug-In . SVG Version: 6.00 Build 0)  -->
<svg version="1.1" id="&#x421;&#x43B;&#x43E;&#x439;_1"
	 xmlns="http://www.w3.org/2000/svg" xmlns:xlink="http://www.w3.org/1999/xlink" x="0px" y="0px" viewBox="0 0 492 512"
	 style="enable-background:new 0 0 492 512; fill: #ffffff;" xml:space="preserve">
<g>
	<g>
		<path d="M492,492c0,11.047-8.953,20-20,20H236c-11.047,0-20-8.953-20-20s8.953-20,20-20h236C483.047,472,492,480.953,492,492
			L492,492z M472,393.332H314.668c-11.047,0-20,8.957-20,20c0,11.047,8.953,20,20,20H472c11.047,0,20-8.953,20-20
			C492,402.289,483.047,393.332,472,393.332L472,393.332z M472,314.668h-78.668c-11.047,0-20,8.953-20,20s8.953,20,20,20H472
			c11.047,0,20-8.953,20-20S483.047,314.668,472,314.668L472,314.668z M486.141,142.14l-354,364c-3.75,3.754-8.836,5.86-14.141,5.86
			H20c-11.047,0-20-8.953-20-20V384c0-5.305,2.105-10.391,5.859-14.141l354-364c7.809-7.812,20.473-7.812,28.282,0l98,108
			C493.953,121.668,493.953,134.332,486.141,142.14L486.141,142.14z M443.715,138"/>
	</g>
</g>
</svg>
