<?xml version="1.0" encoding="utf-8"?>
<!-- Generator: Adobe Illustrator 19.0.0, SVG Export Plug-In . SVG Version: 6.00 Build 0)  -->
<svg version="1.1" id="Layer_1" xmlns="http://www.w3.org/2000/svg" xmlns:xlink="http://www.w3.org/1999/xlink" x="0px" y="0px"
	 viewBox="0 0 667.3 104.2" style="enable-background:new 0 0 667.3 104.2;" xml:space="preserve">
<style type="text/css">
	.st0{fill-rule:evenodd;clip-rule:evenodd;fill:#4B4B4B;}
	.st1{fill:#FC352E;}
	.st2{fill:#4B4B4B;}
</style>
<g>
	<g>
		<polygon class="st0" points="563,46.3 585.5,46.3 604.2,72.4 584.5,102.2 561.4,102.2 581,72.5 563,46.3 		"/>
		<polygon class="st0" points="594.7,46 617.2,46 635.8,72 616.2,101.8 593.1,101.8 612.6,72.1 594.7,46 		"/>
		<polygon class="st0" points="626.2,46 648.7,46 667.3,72 647.7,101.8 624.6,101.8 644.1,72.1 626.2,46 		"/>
		<polygon class="st0" points="104.4,46.3 81.8,46.3 63.2,72.4 82.8,102.2 105.9,102.2 86.4,72.5 104.4,46.3 		"/>
		<polygon class="st0" points="72.7,46 50.2,46 31.5,72 51.2,101.8 74.2,101.8 54.7,72.1 72.7,46 		"/>
		<polygon class="st0" points="41.2,46 18.7,46 0,72 19.7,101.8 42.8,101.8 23.2,72.1 41.2,46 		"/>
	</g>
	<polygon class="st1" points="298.4,104 320,46.8 342.3,46.8 363.5,104.2 341.4,104.2 329.7,67.6 318.2,104 298.4,104 	"/>
	<path class="st1" d="M493.8,71.4c-0.1,21,12.8,32.9,33.7,32.8c23.8-0.1,32.5-12.3,32.2-31.8C559.1,33,494,32.6,493.8,71.4z
		 M526.3,91.3c-10.8-0.5-10.5-20.2-7.3-29.8c0.8-2.4,4.4-4.5,7.2-4.4c3.1,0.1,6.5,1.2,7.3,4.1C537.9,75,535.6,91.7,526.3,91.3z"/>
	<path class="st1" d="M486,65.5h-20.1c0.1-3.6,0.2-8.4-6.3-9.9c-12.9-1.5-13.3,36.5-0.4,35.4c6-0.8,6.2-5,6.6-11.3l20.2-0.1
		c1.1,8.6-2.5,14.1-6.7,17.9c-4.9,4.4-12,6.7-21.5,6.7c-9.1,0-16.1-2.2-21-6.5c-5.8-5.2-8.7-13.2-8.7-24c0-10.4,3.1-18.3,9.2-23.7
		c5.2-4.5,12.4-6.8,21.7-6.8c8.5,0,15.2,2,20,6C485.6,54.6,486.4,57.9,486,65.5L486,65.5z"/>
	<path class="st1" d="M233.4,71.4c-0.1,21,12.8,32.9,33.6,32.8c23.9-0.2,32.5-12.3,32.2-31.8C298.8,33,233.7,32.6,233.4,71.4z
		 M265.9,91.3c-10.8-0.5-10.5-20.2-7.3-29.8c0.8-2.4,4.5-4.5,7.2-4.4c3.1,0.1,6.5,1.2,7.3,4.1C277.5,75,275.2,91.7,265.9,91.3z"/>
	<polygon class="st1" points="187.5,71.6 185.9,78.6 190.2,82.7 206.7,104.2 232.4,104.2 212.2,74.5 230,47.1 206.6,47.1 
		190.6,67.9 	"/>
	<path class="st1" d="M190.2,63.1c-1.4-17.5-14.2-30.3-31.4-30.3c-3.1,0-6.2,0.4-9.3,1.1c-3.1,0.7-6.3,1.9-9.5,3.4l0-15.6h43.8V0
		h-72.6l0.1,60.1l26.6,0c3.8-8.8,13.7-9,18.1-5.8c4.2,3.1,5.3,9,5.6,14.1c0.7,14.2-19.1,22.2-26.9,3.9l-27.3,0
		c3,10.1,4.8,17.5,13.6,24.1c3.4,2.6,7.6,4.5,12.4,5.8c4.9,1.3,10.7,1.9,17.5,1.9c9.5,0,15.6-1.6,21.7-4.9
		c6.1-3.3,10.7-9.5,12.8-13.5C188.2,81,190.6,71.8,190.2,63.1L190.2,63.1z"/>
	<path class="st1" d="M422.9,79.7h-37.6c0,7.7,0-0.8,0,0.4c0,12.6,13.6,15.9,18.5,5.9l18.2,0c1.2,14.7-18.5,18.2-27.5,18.2
		c-8.6,0-15.8-1.7-20.7-5.7c-6.3-5.1-9.1-13.5-9.1-23.1c0-10.2,2.8-16.4,7.8-23.2c7-9.4,30.7-11,40.4-3.2c5.5,4.5,8.4,10.7,9.7,18.8
		C422.8,69.7,422.9,75.4,422.9,79.7L422.9,79.7z M404.1,68.1c0-0.7,0.1-1.2,0.1-1.5c0-3.5-0.8-6.2-2.4-8c-1.6-1.8-3.9-2.8-6.9-2.8
		c-4.2,0-7,1.9-8.4,5.7c-0.5,1.6-0.9,3.8-0.9,6.7H404.1L404.1,68.1z"/>
	<path class="st2" d="M192.2,29.8V0.6h9.8v22.3h7V0.6h9.8v22.3h7V0.6h9.8v29.2H192.2L192.2,29.8z M251.4,26.7v3.1h-9.8V0.6h9.8v11.7
		c0,1.6-0.1,3.4-0.3,5.6c1.2-2.3,2.4-4.4,3.6-6.2l5.2-7.9V0.6h9.8v29.2h-9.8V18.2c0-1.7,0.1-3.5,0.3-5.5c-1,2-2.2,4-3.6,6.2
		L251.4,26.7L251.4,26.7z M303.6,0.6v29.2h-10.1V18.4h-7.7v11.4h-10.1V0.6h10.1v10.7h7.7V0.6H303.6L303.6,0.6z M323.8,30.3
		c-4.6,0-8.4-1.4-11.3-4.1c-2.9-2.7-4.4-6.4-4.4-10.9c0-4.4,1.4-8,4.2-10.8c2.8-2.8,6.6-4.3,11.6-4.3c4.6,0,8.3,1.4,11.2,4
		c2.9,2.7,4.3,6.3,4.3,10.7c0,4.6-1.5,8.3-4.4,11.1C332.1,28.9,328.4,30.3,323.8,30.3L323.8,30.3z M323.7,23.6c1.7,0,2.9-0.7,3.7-2
		c0.8-1.3,1.1-3.7,1.1-7.2c0-5.1-1.5-7.6-4.6-7.6c-3.3,0-5,2.9-5,8.7C319,20.9,320.6,23.6,323.7,23.6L323.7,23.6z M379.7,0.6v29.2
		h-9.4V8.9l-6.1,20.9h-6.4l-6.3-20.9v20.9h-7.6V0.6h13.2l4.8,15.5l4.6-15.5H379.7L379.7,0.6z M399.9,30.3c-4.6,0-8.4-1.4-11.3-4.1
		c-2.9-2.7-4.4-6.4-4.4-10.9c0-4.4,1.4-8,4.2-10.8c2.8-2.8,6.7-4.3,11.6-4.3c4.6,0,8.3,1.4,11.2,4c2.9,2.7,4.3,6.3,4.3,10.7
		c0,4.6-1.5,8.3-4.4,11.1C408.2,28.9,404.5,30.3,399.9,30.3L399.9,30.3z M399.8,23.6c1.7,0,2.9-0.7,3.7-2c0.8-1.3,1.1-3.7,1.1-7.2
		c0-5.1-1.5-7.6-4.6-7.6c-3.3,0-5,2.9-5,8.7C395.1,20.9,396.7,23.6,399.8,23.6L399.8,23.6z M447.9,0.6v29.2h-10.1V18.4h-7.7v11.4
		H420V0.6h10.1v10.7h7.7V0.6H447.9L447.9,0.6z M467.4,7.6v22.2h-9.6V7.6H451v-7h23.2v7H467.4L467.4,7.6z M494.1,29.8l-1.9-5.8h-8.8
		l-2,5.8h-8.2l10.2-29.2h10.7l10.3,29.2H494.1L494.1,29.8z M485.1,17.7h5.3l-2.7-8.5L485.1,17.7L485.1,17.7z M541.5,13.3l12,16.5
		H543l-9-12.1l-1.5,0.3v11.8h-8.8V18l-1.5-0.3l-8.9,12.1h-9.4l11.3-14.3L504.9,0.6H515l7.4,11.9l1.3,0.2V0.6h8.8v12.1l1.3-0.2
		l7.4-11.9h9.1L541.5,13.3L541.5,13.3z"/>
</g>
</svg>
