<svg xmlns="http://www.w3.org/2000/svg" xmlns:xlink="http://www.w3.org/1999/xlink" preserveAspectRatio="xMidYMid" width="48" height="40" viewBox="0 0 48 40">
  <defs>
    <style>
      .cls-1 {
        fill: #ffffff;
        fill-rule: evenodd;
      }
    </style>
  </defs>
  <path d="M47.998,40.000 L38.116,40.000 L31.770,31.756 L30.865,30.901 C30.618,31.690 30.344,32.392 30.063,32.932 C29.259,34.474 27.473,36.878 25.124,38.130 C22.780,39.381 20.426,40.000 16.768,40.000 C14.144,40.000 11.888,39.750 10.019,39.261 C8.146,38.761 6.547,38.017 5.232,37.028 C1.858,34.499 1.142,31.678 -0.000,27.785 L10.500,27.795 C13.477,34.814 21.093,31.766 20.833,26.301 C20.706,24.328 20.269,22.056 18.661,20.871 C16.959,19.625 13.153,19.696 11.682,23.089 L1.446,23.084 L1.402,-0.001 L29.327,-0.001 L29.327,8.360 L12.481,8.360 L12.471,14.337 C13.707,13.754 14.923,13.318 16.130,13.031 C17.332,12.743 18.523,12.593 19.700,12.593 C26.321,12.593 31.211,17.534 31.765,24.240 C31.799,24.938 31.777,25.644 31.725,26.345 L31.951,26.081 L38.091,18.082 L47.106,18.082 L40.245,28.593 L47.998,40.000 Z" class="cls-1"/>
</svg>
