<svg xmlns="http://www.w3.org/2000/svg" xmlns:xlink="http://www.w3.org/1999/xlink" preserveAspectRatio="xMidYMid" width="10" height="14.031" viewBox="0 0 10 14.031">
  <defs>
    <style>
      .cls-1 {
        fill: #fc352e;
        fill-rule: evenodd;
      }
    </style>
  </defs>
  <path d="M5.335,13.848 C5.156,14.050 4.844,14.050 4.665,13.848 C4.474,13.633 -0.000,8.539 -0.000,5.070 C-0.000,2.274 2.243,-0.000 5.000,-0.000 C7.757,-0.000 10.000,2.274 10.000,5.070 C10.000,8.539 5.525,13.633 5.335,13.848 ZM5.000,0.913 C2.739,0.913 0.900,2.778 0.900,5.070 C0.900,7.451 3.494,11.030 5.000,12.844 C6.506,11.029 9.099,7.451 9.099,5.070 C9.099,2.778 7.260,0.913 5.000,0.913 ZM5.000,7.621 C3.613,7.621 2.484,6.476 2.484,5.070 C2.484,3.663 3.613,2.519 5.000,2.519 C6.387,2.519 7.515,3.663 7.515,5.070 C7.515,6.476 6.387,7.621 5.000,7.621 ZM5.000,3.432 C4.109,3.432 3.385,4.167 3.385,5.070 C3.385,5.973 4.109,6.708 5.000,6.708 C5.891,6.708 6.615,5.973 6.615,5.070 C6.615,4.167 5.891,3.432 5.000,3.432 Z" class="cls-1"/>
</svg>
