<svg xmlns="http://www.w3.org/2000/svg" xmlns:xlink="http://www.w3.org/1999/xlink" preserveAspectRatio="xMidYMid" width="14" height="10" viewBox="0 0 14 10">
  <defs>
    <style>
      .cls-1 {
        fill: #fc352e;
        fill-rule: evenodd;
      }
    </style>
  </defs>
  <path d="M13.747,1.382 L12.518,0.237 C12.350,0.080 12.145,0.002 11.905,0.002 C11.664,0.002 11.459,0.080 11.290,0.237 L5.365,5.766 L2.710,3.283 C2.541,3.127 2.336,3.048 2.095,3.048 C1.855,3.048 1.650,3.127 1.481,3.283 L0.253,4.428 C0.084,4.585 -0.000,4.776 -0.000,5.000 C-0.000,5.225 0.084,5.416 0.253,5.573 L3.522,8.619 L4.751,9.763 C4.919,9.921 5.124,9.999 5.365,9.999 C5.606,9.999 5.811,9.921 5.979,9.763 L7.208,8.619 L13.747,2.526 C13.916,2.369 14.000,2.178 14.000,1.954 C14.000,1.730 13.916,1.539 13.747,1.382 L13.747,1.382 Z" class="cls-1"/>
</svg>
