<svg xmlns="http://www.w3.org/2000/svg" xmlns:xlink="http://www.w3.org/1999/xlink" preserveAspectRatio="xMidYMid" width="14" height="14" viewBox="0 0 14 14">
  <defs>
    <style>
      .cls-1 {
        fill: #ffffff;
        fill-rule: evenodd;
      }
    </style>
  </defs>
  <path d="M13.415,4.494 L8.814,5.950 C8.195,6.145 7.853,5.806 8.050,5.191 L9.516,0.625 C9.714,0.010 10.217,-0.146 10.641,0.274 L13.768,3.378 C14.192,3.799 14.034,4.299 13.415,4.494 ZM6.011,8.012 C7.001,9.006 7.942,9.530 8.630,9.912 C8.705,9.954 8.776,9.993 8.845,10.032 L9.934,8.940 C10.379,8.493 11.092,8.480 11.523,8.910 L13.684,11.078 C14.113,11.510 14.101,12.224 13.655,12.672 L13.038,13.278 L13.025,13.266 C12.765,13.471 12.464,13.641 12.143,13.767 C11.843,13.884 11.549,13.957 11.242,13.994 C11.101,14.009 7.832,14.316 3.776,10.249 C0.842,7.307 -0.239,5.138 0.046,2.766 C0.079,2.470 0.152,2.175 0.270,1.865 C0.396,1.540 0.567,1.239 0.772,0.977 L0.755,0.961 L1.364,0.347 C1.810,-0.101 2.523,-0.114 2.953,0.317 L5.114,2.484 C5.544,2.916 5.532,3.631 5.085,4.078 L4.726,4.439 L3.995,5.170 C4.033,5.238 4.072,5.308 4.112,5.381 C4.494,6.071 5.017,7.016 6.011,8.012 Z" class="cls-1"/>
</svg>
