<svg xmlns="http://www.w3.org/2000/svg" xmlns:xlink="http://www.w3.org/1999/xlink" preserveAspectRatio="xMidYMid" width="20" height="20" viewBox="0 0 20 20">
  <defs>
    <style>
      .cls-1 {
        fill: #6fa4e6;
        fill-rule: evenodd;
      }
    </style>
  </defs>
  <path d="M19.481,14.133 L12.070,9.999 L19.481,5.865 C19.976,5.589 20.145,4.977 19.860,4.499 C19.574,4.021 18.941,3.857 18.446,4.133 L11.035,8.268 L11.035,0.999 C11.035,0.447 10.571,-0.001 9.999,-0.001 C9.428,-0.001 8.964,0.447 8.964,0.999 L8.964,8.267 L1.553,4.133 C1.058,3.857 0.425,4.021 0.140,4.499 C-0.146,4.977 0.023,5.589 0.518,5.865 L7.930,9.999 L0.518,14.133 C0.023,14.410 -0.146,15.021 0.140,15.500 C0.331,15.821 0.679,15.999 1.037,15.999 C1.213,15.999 1.391,15.957 1.553,15.865 L8.964,11.731 L8.964,18.999 C8.964,19.552 9.428,20.000 9.999,20.000 C10.571,20.000 11.035,19.552 11.035,18.999 L11.035,11.731 L18.446,15.865 C18.608,15.957 18.787,15.999 18.962,15.999 C19.320,15.999 19.668,15.820 19.860,15.500 C20.146,15.021 19.976,14.410 19.481,14.133 L19.481,14.133 Z" class="cls-1"/>
</svg>
