<svg xmlns="http://www.w3.org/2000/svg" xmlns:xlink="http://www.w3.org/1999/xlink" preserveAspectRatio="xMidYMid" width="20" height="20" viewBox="0 0 20 20">
  <defs>
    <style>
      .cls-1 {
        fill: #f6df19;
        fill-rule: evenodd;
      }
    </style>
  </defs>
  <path d="M19.091,10.908 L17.879,10.908 C17.376,10.908 16.970,10.502 16.970,10.000 C16.970,9.497 17.376,9.090 17.879,9.090 L19.091,9.090 C19.593,9.090 20.000,9.497 20.000,10.000 C20.000,10.502 19.593,10.908 19.091,10.908 ZM16.214,5.071 C16.036,5.249 15.804,5.338 15.571,5.338 C15.338,5.338 15.106,5.249 14.928,5.071 C14.573,4.716 14.573,4.141 14.928,3.785 L15.785,2.928 C16.140,2.573 16.716,2.573 17.071,2.928 C17.426,3.284 17.426,3.859 17.071,4.214 L16.214,5.071 ZM10.000,15.151 C7.160,15.151 4.849,12.840 4.849,10.000 C4.849,7.159 7.160,4.848 10.000,4.848 C12.840,4.848 15.152,7.159 15.152,10.000 C15.152,12.840 12.840,15.151 10.000,15.151 ZM10.000,3.029 C9.498,3.029 9.091,2.623 9.091,2.121 L9.091,0.908 C9.091,0.406 9.498,-0.000 10.000,-0.000 C10.502,-0.000 10.909,0.406 10.909,0.908 L10.909,2.121 C10.909,2.623 10.502,3.029 10.000,3.029 ZM4.429,5.338 C4.196,5.338 3.963,5.249 3.786,5.071 L2.929,4.214 C2.574,3.859 2.574,3.284 2.929,2.929 C3.284,2.573 3.859,2.573 4.214,2.929 L5.071,3.785 C5.427,4.141 5.427,4.716 5.071,5.071 C4.894,5.249 4.661,5.338 4.429,5.338 ZM3.030,10.000 C3.030,10.502 2.623,10.908 2.121,10.908 L0.909,10.908 C0.407,10.908 -0.000,10.502 -0.000,10.000 C-0.000,9.497 0.407,9.090 0.909,9.090 L2.121,9.090 C2.623,9.090 3.030,9.497 3.030,10.000 ZM3.786,14.928 C4.141,14.573 4.717,14.573 5.071,14.928 C5.427,15.283 5.427,15.858 5.071,16.214 L4.214,17.070 C4.037,17.248 3.804,17.336 3.572,17.336 C3.339,17.336 3.106,17.248 2.929,17.070 C2.574,16.716 2.574,16.140 2.929,15.785 L3.786,14.928 ZM10.000,16.969 C10.502,16.969 10.909,17.376 10.909,17.878 L10.909,19.090 C10.909,19.592 10.502,19.999 10.000,19.999 C9.498,19.999 9.091,19.592 9.091,19.090 L9.091,17.878 C9.091,17.376 9.498,16.969 10.000,16.969 ZM16.214,14.928 L17.071,15.785 C17.426,16.140 17.426,16.716 17.071,17.070 C16.893,17.248 16.661,17.336 16.428,17.336 C16.195,17.336 15.963,17.248 15.785,17.070 L14.928,16.214 C14.573,15.858 14.573,15.283 14.928,14.928 C15.283,14.573 15.859,14.573 16.214,14.928 Z" class="cls-1"/>
</svg>
