<?xml version="1.0" encoding="iso-8859-1"?>
<!-- Generator: Adobe Illustrator 19.0.0, SVG Export Plug-In . SVG Version: 6.00 Build 0)  -->
<svg version="1.1" id="&#x421;&#x43B;&#x43E;&#x439;_1"
	 xmlns="http://www.w3.org/2000/svg" xmlns:xlink="http://www.w3.org/1999/xlink" x="0px" y="0px" viewBox="0 0 496 496"
	 style="enable-background:new 0 0 496 496;" xml:space="preserve">
<g>
	<rect x="32" y="208" style="fill:#FC352E;" width="96" height="96"/>
	<rect x="32" y="344" style="fill:#FC352E;" width="96" height="96"/>
	<rect x="32" y="80" style="fill:#FC352E;" width="208" height="80"/>
	<path style="fill:#4B4B4B;" d="M352.504,256c4.754,0,9.351,1.391,13.312,4.031l55.872,37.25c6.601,4.391,14.273,6.719,22.191,6.719
		H496v-16h-52.113c-4.75,0-9.36-1.391-13.321-4.031L408,268.922V0H104v48H0v448h304v-48h104v-67.305
		c0.504-0.121,1.023-0.16,1.527-0.281l37.215-9.301C455,369.047,463.496,368,472,368h24v-16h-24c-9.809,0-19.617,1.207-29.137,3.586
		l-37.215,9.301c-19.128,4.777-39.488,4-58.175-2.231l-13.481-4.496C321.719,354.07,308.938,352,296,352h-69.809
		c0-13.23,10.77-24,24-24h88c13.235,0,24-10.77,24-24c0-12.273-9.296-22.305-21.191-23.719L347.566,256H352.504z M342.398,377.832
		c12.274,4.098,25.059,6.168,37.993,6.168c3.882,0,7.754-0.336,11.609-0.711V432h-88v-26.168c2.809-3.238,4.984-7.07,6.152-11.406
		l6.551-24.266c4.121,0.84,8.207,1.84,12.219,3.184L342.398,377.832z M300.672,368.184l-5.961,22.062
		c-1.551,5.746-6.789,9.754-12.734,9.754h-2.594c-7.27,0-13.184-5.91-13.184-13.184c0-1.168,0.153-2.32,0.457-3.441L270.809,368H296
		C297.559,368,299.113,368.121,300.672,368.184L300.672,368.184z M254.23,368l-3.023,11.191c-0.672,2.481-1.008,5.039-1.008,7.625
		c0,10.817,5.985,20.168,14.746,25.207l-2.511,10.032l15.519,3.883l2.488-9.938h1.536c2.062,0,4.062-0.289,6.023-0.703V480H16V64
		h104V16h272v242.258l-17.305-11.539c-6.597-4.391-14.269-6.719-22.191-6.719h-0.617l33.297-123.191
		c0.671-2.481,1.007-5.039,1.007-7.625C386.191,93.09,373.098,80,357.008,80h-2.594c-13.156,0-24.742,8.871-28.176,21.574
		L304,183.863V48H136v16h152v176h-16.551c-8.707,0-16.906,2.887-23.761,8H168v16h62.879l-16,16H168v16h30.887l-13.367,13.367
		c-4.719,4.711-7.321,10.985-7.321,17.664c0,13.77,11.199,24.969,24.977,24.969c2.465,0,4.84-0.473,7.144-1.16
		c-0.008,0.39-0.121,0.762-0.121,1.16c0,8.824,7.176,16,16,16H254.23z M315.855,312h-29.91l33.782-124.992l27.441,9.144L315.855,312
		z M254.48,263.023c4.473-4.464,10.657-7.023,16.969-7.023h13.055l-6.527,24.145c-10.122,0.367-19.61,4.367-26.809,11.566
		l-41.656,41.656c-1.672,1.672-3.985,2.633-6.344,2.633c-4.953,0-8.977-4.023-8.977-8.969c0-2.398,0.938-4.648,2.633-6.343
		L254.48,263.023z M262.48,303.023c3.024-3.023,6.872-5.085,10.977-6.16L269.367,312h-15.855L262.48,303.023z M369.734,112.633
		l-9.796,36.246l-27.442-9.145l9.184-33.98c1.558-5.746,6.793-9.754,12.734-9.754h2.594c7.273,0,13.183,5.91,13.183,13.184
		C370.191,110.352,370.039,111.504,369.734,112.633L369.734,112.633z M328.32,155.207l27.442,9.145l-4.418,16.328l-27.442-9.145
		L328.32,155.207z M338.191,296c4.411,0,8,3.594,8,8s-3.589,8-8,8h-5.765l4.328-16H338.191z M338.191,296"/>
	<rect x="64" y="112" style="fill:#4B4B4B;" width="16" height="16"/>
	<rect x="96" y="112" style="fill:#4B4B4B;" width="16" height="16"/>
	<rect x="128" y="112" style="fill:#4B4B4B;" width="16" height="16"/>
	<rect x="160" y="112" style="fill:#4B4B4B;" width="16" height="16"/>
	<rect x="192" y="112" style="fill:#4B4B4B;" width="16" height="16"/>
	<path style="fill:#4B4B4B;" d="M165.656,189.656l-11.312-11.312L80,252.688l-10.344-10.344l-11.312,11.312L80,275.312
		L165.656,189.656z M165.656,189.656"/>
	<path style="fill:#4B4B4B;" d="M154.344,314.344L80,388.688l-10.344-10.344l-11.312,11.312L80,411.312l85.656-85.656
		L154.344,314.344z M154.344,314.344"/>
	<rect x="256" y="440" style="fill:#4B4B4B;" width="16" height="16"/>
	<rect x="152" y="440" style="fill:#4B4B4B;" width="88" height="16"/>
	<rect x="168" y="216" style="fill:#4B4B4B;" width="104" height="16"/>
</g>
</svg>
