<?xml version="1.0" encoding="utf-8"?>
<!-- Generator: Adobe Illustrator 19.0.0, SVG Export Plug-In . SVG Version: 6.00 Build 0)  -->
<svg version="1.1" id="Layer_1" xmlns="http://www.w3.org/2000/svg" xmlns:xlink="http://www.w3.org/1999/xlink" x="0px" y="0px"
	 viewBox="0 0 848.9 224.8" style="enable-background:new 0 0 848.9 224.8;" xml:space="preserve">
<style type="text/css">
	.st0{fill:#FF312A;}
	.st1{fill-rule:evenodd;clip-rule:evenodd;fill:#FFFFFF;}
	.st2{fill:#FFFFFF;}
	.st3{display:none;fill:#FFFFFF;}
</style>
<polygon class="st0" points="848.9,224.8 55.4,224.8 0,170.2 0,0 848.9,0 "/>
<g>
	<g>
		<polygon class="st1" points="643.2,108.7 665.7,108.7 684.4,134.7 664.7,164.5 641.6,164.5 661.2,134.8 643.2,108.7 		"/>
		<polygon class="st1" points="674.9,108.3 697.4,108.3 716.1,134.3 696.4,164.1 673.3,164.1 692.8,134.4 674.9,108.3 		"/>
		<polygon class="st1" points="706.4,108.3 728.9,108.3 747.5,134.3 727.9,164.1 704.8,164.1 724.3,134.4 706.4,108.3 		"/>
		<polygon class="st1" points="184.6,108.7 162.1,108.7 143.4,134.7 163,164.5 186.1,164.5 166.6,134.8 184.6,108.7 		"/>
		<polygon class="st1" points="152.9,108.3 130.4,108.3 111.7,134.3 131.4,164.1 154.5,164.1 134.9,134.4 152.9,108.3 		"/>
		<polygon class="st1" points="121.4,108.3 98.9,108.3 80.2,134.3 99.9,164.1 123,164.1 103.4,134.4 121.4,108.3 		"/>
	</g>
	<polygon class="st2" points="378.6,166.4 400.2,109.2 422.6,109.2 443.8,166.5 421.6,166.5 409.9,130 398.4,166.4 378.6,166.4 	"/>
	<path class="st2" d="M574,133.7c-0.1,21,12.8,32.9,33.7,32.8c23.8-0.1,32.5-12.3,32.2-31.8C639.4,95.4,574.3,94.9,574,133.7z
		 M606.5,153.6c-10.8-0.5-10.5-20.2-7.3-29.8c0.8-2.4,4.4-4.5,7.2-4.4c3.1,0.1,6.5,1.2,7.3,4.1C618.1,137.3,615.8,154,606.5,153.6z"
		/>
	<path class="st2" d="M566.2,127.8h-20.1c0.1-3.6,0.2-8.4-6.3-9.9c-12.9-1.5-13.3,36.5-0.4,35.4c6-0.8,6.2-5,6.6-11.3l20.2-0.1
		c1.1,8.6-2.5,14.1-6.7,17.9c-4.9,4.4-12,6.7-21.5,6.7c-9.1,0-16.1-2.2-21-6.5c-5.8-5.2-8.7-13.2-8.7-24c0-10.4,3.1-18.3,9.2-23.7
		c5.2-4.5,12.4-6.8,21.7-6.8c8.5,0,15.2,2,20,6C565.8,117,566.6,120.2,566.2,127.8L566.2,127.8z"/>
	<path class="st2" d="M313.7,133.7c-0.1,21,12.8,32.9,33.6,32.8c23.9-0.2,32.5-12.3,32.2-31.8C379,95.4,313.9,94.9,313.7,133.7z
		 M346.2,153.6c-10.8-0.5-10.5-20.2-7.3-29.8c0.8-2.4,4.5-4.5,7.2-4.4c3.1,0.1,6.5,1.2,7.3,4.1C357.7,137.3,355.4,154,346.2,153.6z"
		/>
	<polygon class="st2" points="267.7,133.9 266.1,141 270.4,145 286.9,166.5 312.6,166.5 292.4,136.8 310.3,109.4 286.8,109.4 
		270.9,130.3 	"/>
	<path class="st2" d="M270.4,125.5c-1.4-17.5-14.2-30.3-31.4-30.3c-3.1,0-6.2,0.4-9.3,1.1c-3.1,0.7-6.3,1.9-9.5,3.4l0-15.6H264V62.3
		h-72.6l0.1,60.1l26.6,0c3.8-8.8,13.7-9,18.1-5.8c4.2,3.1,5.3,9,5.6,14.1c0.7,14.2-19.1,22.2-26.9,3.9l-27.3,0
		c3,10.1,4.8,17.5,13.6,24.1c3.4,2.6,7.6,4.5,12.4,5.8c4.9,1.3,10.7,1.9,17.5,1.9c9.5,0,15.6-1.6,21.7-4.9
		c6.1-3.3,10.7-9.5,12.8-13.5C268.4,143.3,270.8,134.1,270.4,125.5L270.4,125.5z"/>
	<path class="st2" d="M503.2,142.1h-37.6c0,7.7,0-0.8,0,0.4c0,12.6,13.6,15.9,18.5,5.9l18.2,0c1.2,14.7-18.5,18.2-27.5,18.2
		c-8.6,0-15.8-1.7-20.7-5.7c-6.3-5.1-9.1-13.5-9.1-23.1c0-10.2,2.8-16.4,7.8-23.2c7-9.4,30.7-11,40.4-3.2c5.5,4.5,8.4,10.7,9.7,18.8
		C503,132,503.1,137.8,503.2,142.1L503.2,142.1z M484.3,130.5c0-0.7,0.1-1.2,0.1-1.5c0-3.5-0.8-6.2-2.4-8c-1.6-1.8-3.9-2.8-6.9-2.8
		c-4.2,0-7,1.9-8.4,5.7c-0.5,1.6-0.9,3.8-0.9,6.7H484.3L484.3,130.5z"/>
	<path class="st3" d="M272.4,92.1V63h9.8v22.3h7V63h9.8v22.3h7V63h9.8v29.2H272.4L272.4,92.1z M331.6,89.1v3.1h-9.8V63h9.8v11.7
		c0,1.6-0.1,3.4-0.3,5.6c1.2-2.3,2.4-4.4,3.6-6.2l5.2-7.9V63h9.8v29.2h-9.8V80.5c0-1.7,0.1-3.5,0.3-5.5c-1,2-2.2,4-3.6,6.2
		L331.6,89.1L331.6,89.1z M383.8,63v29.2h-10.1V80.8H366v11.4h-10.1V63H366v10.7h7.7V63H383.8L383.8,63z M404,92.6
		c-4.6,0-8.4-1.4-11.3-4.1c-2.9-2.7-4.4-6.4-4.4-10.9c0-4.4,1.4-8,4.2-10.8c2.8-2.8,6.6-4.3,11.6-4.3c4.6,0,8.3,1.4,11.2,4
		c2.9,2.7,4.3,6.3,4.3,10.7c0,4.6-1.5,8.3-4.4,11.1C412.3,91.2,408.6,92.6,404,92.6L404,92.6z M404,86c1.7,0,2.9-0.7,3.7-2
		c0.8-1.3,1.1-3.7,1.1-7.2c0-5.1-1.5-7.6-4.6-7.6c-3.3,0-5,2.9-5,8.7C399.2,83.2,400.8,86,404,86L404,86z M459.9,63v29.2h-9.4V71.3
		l-6.1,20.9H438l-6.3-20.9v20.9h-7.6V63h13.2l4.8,15.5l4.6-15.5H459.9L459.9,63z M480.1,92.6c-4.6,0-8.4-1.4-11.3-4.1
		c-2.9-2.7-4.4-6.4-4.4-10.9c0-4.4,1.4-8,4.2-10.8c2.8-2.8,6.7-4.3,11.6-4.3c4.6,0,8.3,1.4,11.2,4c2.9,2.7,4.3,6.3,4.3,10.7
		c0,4.6-1.5,8.3-4.4,11.1C488.4,91.2,484.7,92.6,480.1,92.6L480.1,92.6z M480,86c1.7,0,2.9-0.7,3.7-2c0.8-1.3,1.1-3.7,1.1-7.2
		c0-5.1-1.5-7.6-4.6-7.6c-3.3,0-5,2.9-5,8.7C475.3,83.2,476.9,86,480,86L480,86z M528.1,63v29.2H518V80.8h-7.7v11.4h-10.1V63h10.1
		v10.7h7.7V63H528.1L528.1,63z M547.6,69.9v22.2H538V69.9h-6.8v-7h23.2v7H547.6L547.6,69.9z M574.3,92.1l-1.9-5.8h-8.8l-2,5.8h-8.2
		L563.6,63h10.7l10.3,29.2H574.3L574.3,92.1z M565.3,80h5.3l-2.7-8.5L565.3,80L565.3,80z M621.7,75.6l12,16.5h-10.4l-9-12.1
		l-1.5,0.3v11.8H604V80.3l-1.5-0.3l-8.9,12.1h-9.4l11.3-14.3L585.2,63h10.1l7.4,11.9L604,75V63h8.8V75l1.3-0.2l7.4-11.9h9.1
		L621.7,75.6L621.7,75.6z"/>
</g>
<path class="st2" d="M272.2,92.8V63.6h9.8v22.3h7V63.6h9.8v22.3h7V63.6h9.8v29.2H272.2L272.2,92.8z M331.4,89.7v3.1h-9.8V63.6h9.8
	v11.7c0,1.6-0.1,3.4-0.3,5.6c1.2-2.3,2.4-4.4,3.6-6.2l5.2-7.9v-3.1h9.8v29.2h-9.8V81.2c0-1.7,0.1-3.5,0.3-5.5c-1,2-2.2,4-3.6,6.2
	L331.4,89.7L331.4,89.7z M383.6,63.6v29.2h-10.1V81.4h-7.7v11.4h-10.1V63.6h10.1v10.7h7.7V63.6H383.6L383.6,63.6z M403.8,93.3
	c-4.6,0-8.4-1.4-11.3-4.1c-2.9-2.7-4.4-6.4-4.4-10.9c0-4.4,1.4-8,4.2-10.8c2.8-2.8,6.6-4.3,11.6-4.3c4.6,0,8.3,1.4,11.2,4
	c2.9,2.7,4.3,6.3,4.3,10.7c0,4.6-1.5,8.3-4.4,11.1C412.1,91.9,408.4,93.3,403.8,93.3L403.8,93.3z M403.7,86.6c1.7,0,2.9-0.7,3.7-2
	c0.8-1.3,1.1-3.7,1.1-7.2c0-5.1-1.5-7.6-4.6-7.6c-3.3,0-5,2.9-5,8.7C399,83.9,400.6,86.6,403.7,86.6L403.7,86.6z M459.7,63.6v29.2
	h-9.4V71.9l-6.1,20.9h-6.4l-6.3-20.9v20.9h-7.6V63.6h13.2l4.8,15.5l4.6-15.5H459.7L459.7,63.6z M479.9,93.3c-4.6,0-8.4-1.4-11.3-4.1
	c-2.9-2.7-4.4-6.4-4.4-10.9c0-4.4,1.4-8,4.2-10.8c2.8-2.8,6.7-4.3,11.6-4.3c4.6,0,8.3,1.4,11.2,4c2.9,2.7,4.3,6.3,4.3,10.7
	c0,4.6-1.5,8.3-4.4,11.1C488.2,91.9,484.5,93.3,479.9,93.3L479.9,93.3z M479.8,86.6c1.7,0,2.9-0.7,3.7-2c0.8-1.3,1.1-3.7,1.1-7.2
	c0-5.1-1.5-7.6-4.6-7.6c-3.3,0-5,2.9-5,8.7C475.1,83.9,476.7,86.6,479.8,86.6L479.8,86.6z M527.9,63.6v29.2h-10.1V81.4h-7.7v11.4
	H500V63.6h10.1v10.7h7.7V63.6H527.9L527.9,63.6z M547.4,70.6v22.2h-9.6V70.6H531v-7h23.2v7H547.4L547.4,70.6z M574.1,92.8l-1.9-5.8
	h-8.8l-2,5.8h-8.2l10.2-29.2h10.7l10.3,29.2H574.1L574.1,92.8z M565.1,80.7h5.3l-2.7-8.5L565.1,80.7L565.1,80.7z M621.5,76.3
	l12,16.5H623l-9-12.1l-1.5,0.3v11.8h-8.8V81l-1.5-0.3l-8.9,12.1h-9.4l11.3-14.3l-10.3-14.9H595l7.4,11.9l1.3,0.2V63.6h8.8v12.1
	l1.3-0.2l7.4-11.9h9.1L621.5,76.3L621.5,76.3z"/>
</svg>
