<svg xmlns="http://www.w3.org/2000/svg" xmlns:xlink="http://www.w3.org/1999/xlink" preserveAspectRatio="xMidYMid" width="121" height="49.94" viewBox="0 0 121 49.94">
  <defs>
    <style>
      .cls-1 {
        fill: #fc352e;
        fill-rule: evenodd;
      }
    </style>
  </defs>
  <path d="M119.047,28.093 C119.767,27.572 120.250,27.371 121.000,27.768 C120.431,28.390 119.891,28.270 119.047,28.093 ZM118.623,31.677 C118.658,31.652 118.720,31.596 118.724,31.599 C118.783,31.656 118.833,31.721 118.886,31.786 C118.850,31.814 118.814,31.843 118.779,31.872 C118.727,31.806 118.676,31.742 118.623,31.677 ZM114.842,20.476 C114.895,20.385 114.939,20.227 115.005,20.218 C115.137,20.200 115.281,20.266 115.419,20.298 C115.368,20.390 115.315,20.481 115.235,20.629 C115.110,20.580 114.976,20.527 114.842,20.476 ZM113.112,32.654 C113.030,32.588 113.237,32.166 113.315,31.905 C113.666,32.024 114.020,32.144 114.495,32.304 C114.059,32.772 113.682,33.128 113.112,32.654 ZM113.306,31.834 C113.309,31.856 113.313,31.878 113.316,31.900 C113.316,31.902 113.315,31.904 113.315,31.905 C113.307,31.903 113.298,31.900 113.290,31.897 C113.297,31.876 113.299,31.855 113.306,31.834 ZM113.327,31.746 C113.328,31.775 113.315,31.805 113.306,31.834 C113.295,31.768 113.285,31.702 113.275,31.637 C113.293,31.673 113.327,31.711 113.327,31.746 ZM106.923,24.855 C107.568,24.521 107.847,24.956 108.061,25.575 C106.746,26.115 105.541,26.610 104.337,27.105 C104.889,25.929 105.906,25.383 106.923,24.855 ZM104.914,49.272 C104.898,49.273 104.881,49.273 104.865,49.274 C104.614,49.301 104.362,49.327 104.110,49.354 C103.948,49.316 103.786,49.279 103.624,49.243 L103.626,49.223 C103.790,49.259 103.952,49.294 104.113,49.331 C104.366,49.302 104.618,49.274 104.870,49.245 C104.885,49.253 104.899,49.263 104.914,49.272 ZM105.015,49.320 C104.980,49.314 104.947,49.293 104.914,49.272 C104.985,49.270 105.057,49.267 105.129,49.266 C105.090,49.284 105.050,49.326 105.015,49.320 ZM103.447,30.366 C103.472,30.320 103.501,30.235 103.518,30.236 C103.614,30.251 103.707,30.288 103.800,30.317 C103.776,30.363 103.747,30.450 103.731,30.447 C103.634,30.432 103.541,30.396 103.447,30.366 ZM101.997,27.973 C102.057,27.914 102.193,27.933 102.296,27.918 C102.303,28.015 102.307,28.110 102.311,28.205 C102.209,28.225 102.104,28.245 102.001,28.265 C101.997,28.164 101.950,28.022 101.997,27.973 ZM100.424,33.035 C100.515,33.037 100.608,33.040 100.701,33.041 C100.710,33.088 100.719,33.134 100.727,33.180 C100.635,33.178 100.542,33.183 100.451,33.169 C100.437,33.168 100.432,33.082 100.424,33.035 ZM99.057,28.284 C99.400,28.257 99.743,28.230 100.085,28.202 C100.103,28.309 100.123,28.415 100.142,28.523 C99.792,28.593 99.442,28.665 99.093,28.736 C99.082,28.586 99.069,28.435 99.057,28.284 ZM99.524,9.382 L99.621,9.341 L99.616,9.456 L99.524,9.382 ZM99.201,11.427 C99.216,11.400 99.346,11.409 99.347,11.416 C99.367,11.511 99.373,11.606 99.382,11.703 C99.289,11.700 99.196,11.697 99.105,11.693 C99.134,11.603 99.155,11.506 99.201,11.427 ZM97.946,32.646 L98.043,32.650 L98.099,32.680 L98.037,32.682 L97.946,32.646 ZM97.635,42.305 L97.725,42.267 L97.720,42.376 L97.635,42.305 ZM94.546,33.652 C95.240,33.137 95.931,32.622 96.624,32.106 C96.711,32.224 96.797,32.342 96.882,32.459 C96.150,32.931 95.418,33.404 94.684,33.877 C94.639,33.802 94.592,33.728 94.546,33.652 ZM95.825,28.729 C95.836,28.723 95.848,28.721 95.859,28.715 C95.884,28.716 95.909,28.716 95.934,28.716 C95.908,28.726 95.883,28.736 95.857,28.746 C95.846,28.741 95.836,28.734 95.825,28.729 ZM90.511,28.458 C91.600,27.775 92.569,28.101 93.509,28.186 L93.485,28.182 C94.396,27.753 95.087,28.348 95.825,28.729 C94.114,29.480 92.425,29.273 90.511,28.458 ZM96.789,28.381 C96.817,28.496 96.846,28.609 96.874,28.725 C96.561,28.722 96.247,28.719 95.934,28.716 C96.218,28.605 96.503,28.493 96.789,28.381 ZM95.026,14.006 C95.047,13.822 95.123,13.646 95.178,13.467 C95.257,13.532 95.336,13.596 95.488,13.724 C95.407,13.877 95.315,14.045 95.226,14.214 C95.154,14.144 95.018,14.064 95.026,14.006 ZM94.408,16.752 C94.423,16.727 94.490,16.736 94.533,16.729 C94.536,16.777 94.539,16.825 94.542,16.871 C94.499,16.878 94.455,16.885 94.411,16.891 C94.408,16.844 94.387,16.785 94.408,16.752 ZM92.571,13.751 C92.589,13.703 92.594,13.633 92.628,13.611 C92.664,13.590 92.730,13.616 92.781,13.619 C92.763,13.670 92.759,13.739 92.724,13.760 C92.688,13.783 92.624,13.756 92.571,13.751 ZM91.774,16.343 C91.797,16.289 91.933,16.289 92.018,16.263 C92.045,16.410 92.073,16.558 92.105,16.727 C91.950,16.702 91.802,16.711 91.778,16.663 C91.733,16.573 91.733,16.434 91.774,16.343 ZM92.012,1.832 C91.915,2.006 91.633,2.073 91.432,2.187 C91.445,1.985 91.394,1.746 91.486,1.592 C91.585,1.424 91.798,1.325 91.967,1.199 C91.996,1.419 92.098,1.679 92.012,1.832 ZM91.991,1.183 C91.984,1.189 91.975,1.194 91.967,1.199 C91.966,1.192 91.964,1.185 91.963,1.178 L91.991,1.183 ZM89.779,26.094 C90.305,25.945 90.832,25.795 91.359,25.645 C91.384,25.792 91.409,25.939 91.433,26.087 C90.883,26.090 90.330,26.092 89.779,26.094 ZM89.713,26.095 C89.735,26.094 89.757,26.094 89.779,26.094 C89.755,26.101 89.732,26.108 89.708,26.114 L89.713,26.095 ZM89.656,2.481 C89.626,2.468 89.646,2.214 89.666,2.210 C89.806,2.190 89.951,2.208 90.097,2.213 C90.090,2.311 90.083,2.410 90.072,2.567 C89.928,2.541 89.783,2.537 89.656,2.481 ZM89.700,4.331 C89.650,4.327 89.602,4.323 89.555,4.320 C89.562,4.240 89.564,4.159 89.583,4.084 C89.586,4.073 89.672,4.086 89.720,4.088 C89.713,4.168 89.706,4.249 89.700,4.331 ZM88.814,1.297 C88.752,1.247 88.744,1.127 88.713,1.038 C88.802,1.032 88.921,0.988 88.973,1.031 C89.035,1.082 89.042,1.203 89.072,1.295 C88.985,1.300 88.868,1.338 88.814,1.297 ZM88.599,17.826 C88.610,17.806 88.627,17.790 88.643,17.773 C88.622,17.827 88.602,17.882 88.582,17.936 C88.587,17.900 88.583,17.858 88.599,17.826 ZM88.666,17.711 C88.663,17.667 88.661,17.620 88.658,17.575 C88.669,17.622 88.679,17.670 88.688,17.718 C88.673,17.736 88.659,17.755 88.643,17.773 C88.650,17.752 88.658,17.732 88.666,17.711 ZM87.084,26.201 C86.952,26.188 86.836,25.954 86.711,25.822 C86.876,25.710 87.060,25.480 87.199,25.507 C87.629,25.590 88.043,25.772 88.462,25.916 C88.442,26.009 88.422,26.101 88.401,26.194 C87.962,26.203 87.520,26.242 87.084,26.201 ZM88.264,11.729 C88.302,11.726 88.341,11.722 88.379,11.719 L88.375,11.737 C88.338,11.734 88.301,11.731 88.264,11.729 ZM80.449,12.295 C79.350,11.030 78.071,11.685 76.830,11.836 C76.157,11.916 75.473,11.960 74.795,11.934 C74.579,11.926 74.298,11.679 74.180,11.468 C74.113,11.347 74.254,10.998 74.403,10.891 C74.993,10.468 75.620,10.092 76.241,9.712 C76.998,9.249 77.718,8.835 78.733,9.153 C79.197,9.299 79.946,9.110 80.322,8.788 C81.837,7.496 83.530,8.136 85.174,8.319 C85.783,8.387 86.374,8.658 86.975,8.837 C86.966,8.902 86.959,8.968 86.950,9.033 C86.666,9.181 86.381,9.332 86.096,9.480 L86.120,9.486 C85.188,9.312 84.277,10.077 83.324,9.478 C83.228,9.419 82.889,9.536 82.890,9.565 C82.943,10.638 81.897,10.182 81.407,10.604 C82.811,11.524 84.341,11.467 85.845,11.557 C86.651,11.605 87.458,11.671 88.264,11.729 C85.768,11.939 83.274,12.152 80.776,12.360 C80.668,12.369 80.507,12.361 80.449,12.295 ZM86.952,9.032 C86.959,8.968 86.966,8.902 86.975,8.837 C87.075,8.854 87.175,8.873 87.275,8.891 C87.168,8.938 87.059,8.985 86.952,9.032 ZM86.810,2.529 C87.106,2.157 87.181,1.965 87.293,1.942 C87.465,1.907 87.665,1.980 87.844,2.037 C87.871,2.045 87.876,2.292 87.844,2.303 C87.670,2.368 87.480,2.391 86.810,2.529 ZM86.541,1.047 C86.491,0.919 86.441,0.790 86.390,0.660 C86.383,0.659 86.375,0.657 86.368,0.655 L86.388,0.655 C86.493,0.556 86.599,0.456 86.704,0.358 C86.758,0.493 86.813,0.627 86.867,0.763 L86.883,0.771 C86.876,0.769 86.870,0.768 86.863,0.766 C86.755,0.860 86.648,0.954 86.541,1.047 ZM84.448,2.690 C84.466,2.691 84.485,2.692 84.503,2.693 C84.528,2.694 84.553,2.694 84.578,2.695 C84.550,2.705 84.522,2.716 84.494,2.726 C84.478,2.714 84.463,2.702 84.448,2.690 ZM84.147,2.447 C84.248,2.528 84.348,2.609 84.448,2.690 C84.323,2.683 84.198,2.677 84.073,2.670 C84.097,2.595 84.121,2.522 84.147,2.447 ZM85.151,2.481 C85.161,2.557 85.172,2.635 85.182,2.712 C84.981,2.707 84.779,2.701 84.578,2.695 C84.769,2.624 84.960,2.552 85.151,2.481 ZM84.238,0.445 C84.215,0.443 84.186,0.154 84.191,0.153 C84.519,0.091 84.849,0.046 85.180,-0.001 C85.176,0.159 85.170,0.320 85.166,0.480 C84.856,0.473 84.546,0.472 84.238,0.445 ZM83.861,4.984 C83.872,4.962 83.988,4.963 83.996,4.982 C84.032,5.054 84.044,5.136 84.064,5.216 C83.974,5.217 83.882,5.217 83.791,5.216 C83.812,5.137 83.823,5.055 83.861,4.984 ZM81.070,2.871 C81.138,2.712 81.170,2.455 81.283,2.417 C81.453,2.357 81.680,2.448 81.882,2.477 C81.836,2.615 81.788,2.750 81.721,2.950 C81.482,2.920 81.275,2.896 81.070,2.871 ZM79.884,2.369 C79.881,2.363 79.999,2.311 80.002,2.317 C80.045,2.387 80.079,2.465 80.114,2.541 C80.069,2.559 80.025,2.576 79.979,2.595 C79.944,2.521 79.908,2.446 79.884,2.369 ZM77.779,2.894 C77.757,2.866 77.840,2.690 77.878,2.690 C77.962,2.690 78.050,2.757 78.136,2.798 C78.097,2.875 78.059,2.950 78.020,3.026 C77.937,2.985 77.832,2.961 77.779,2.894 ZM75.912,8.244 C75.904,8.193 75.896,8.140 75.889,8.088 C75.940,8.082 75.990,8.076 76.041,8.067 C76.048,8.119 76.077,8.186 76.055,8.219 C76.036,8.246 75.961,8.237 75.912,8.244 ZM73.852,3.010 C74.320,2.826 74.768,2.441 75.464,2.898 C74.874,3.363 74.348,3.061 73.852,3.010 ZM73.775,3.015 C73.783,3.011 73.791,3.007 73.798,3.004 C73.816,3.005 73.834,3.009 73.852,3.010 C73.833,3.018 73.813,3.028 73.793,3.035 C73.787,3.029 73.781,3.021 73.775,3.015 ZM73.339,3.165 C73.169,3.123 73.029,2.942 72.878,2.822 C73.061,2.774 73.253,2.668 73.424,2.699 C73.553,2.723 73.660,2.897 73.775,3.015 C73.626,3.079 73.465,3.197 73.339,3.165 ZM72.943,27.572 C72.847,27.543 72.714,27.542 72.668,27.477 C72.625,27.416 72.671,27.290 72.678,27.193 C72.772,27.222 72.903,27.228 72.950,27.292 C72.994,27.352 72.949,27.476 72.943,27.572 ZM72.157,6.236 C72.098,6.159 72.180,5.974 72.200,5.838 C72.348,5.872 72.527,5.868 72.631,5.954 C72.694,6.007 72.640,6.202 72.638,6.399 C72.418,6.332 72.228,6.329 72.157,6.236 ZM70.948,24.657 C71.272,24.577 71.595,24.496 71.919,24.416 C71.946,24.500 71.973,24.584 72.001,24.669 C71.687,24.789 71.374,24.910 71.061,25.030 C71.024,24.906 70.986,24.782 70.948,24.657 ZM65.397,3.254 C65.491,3.117 68.978,2.717 70.925,2.634 C69.411,3.907 67.127,4.081 65.397,3.254 ZM66.089,29.337 C65.675,29.465 65.262,29.593 64.594,29.802 C65.039,28.872 65.537,29.018 66.089,29.337 ZM63.837,27.682 C63.874,27.542 63.870,27.357 63.959,27.274 C64.042,27.198 64.225,27.232 64.427,27.211 C64.400,27.417 64.418,27.656 64.358,27.677 C64.202,27.732 64.013,27.687 63.837,27.682 ZM63.652,35.067 L63.670,35.072 C63.046,34.903 62.422,34.734 61.633,34.519 C62.397,33.934 63.108,33.389 63.823,32.839 C64.504,33.856 64.504,33.856 63.652,35.067 ZM62.970,18.108 C63.008,18.083 63.048,18.058 63.089,18.032 C63.126,18.058 63.186,18.080 63.201,18.119 C63.213,18.152 63.174,18.204 63.160,18.249 C63.097,18.202 63.034,18.156 62.970,18.108 ZM62.492,31.727 C62.569,31.664 62.641,31.592 62.728,31.547 C62.756,31.532 62.822,31.588 62.872,31.611 C62.827,31.693 62.785,31.775 62.741,31.859 C62.657,31.814 62.574,31.770 62.492,31.727 ZM61.762,18.148 C61.806,18.155 61.853,18.162 61.897,18.168 C61.908,18.213 61.937,18.268 61.923,18.302 C61.907,18.334 61.846,18.342 61.804,18.362 C61.790,18.291 61.776,18.219 61.762,18.148 ZM61.059,30.888 C61.240,31.245 61.421,31.602 61.662,32.078 C60.747,32.004 60.641,31.574 61.059,30.888 ZM60.216,26.263 C60.230,26.113 60.220,25.840 60.265,25.831 C60.527,25.781 60.801,25.795 61.072,25.787 C61.059,25.936 61.047,26.086 61.025,26.342 C60.719,26.313 60.467,26.288 60.216,26.263 ZM59.392,33.170 C59.428,33.033 59.460,32.782 59.505,32.781 C59.737,32.775 59.972,32.833 60.208,32.868 C60.144,32.994 60.079,33.123 59.981,33.320 C59.769,33.265 59.582,33.218 59.392,33.170 ZM55.784,32.131 C54.570,32.269 53.458,32.469 52.616,33.444 C52.472,33.613 52.098,33.580 51.830,33.639 L51.824,33.664 C51.919,33.191 52.013,32.718 52.106,32.245 C52.078,32.239 52.049,32.232 52.020,32.226 C52.051,32.221 52.082,32.217 52.113,32.213 L52.109,32.246 C53.098,31.013 54.285,30.470 55.893,31.122 C56.223,31.256 56.652,31.131 57.037,31.124 C57.662,31.390 58.534,31.028 59.125,32.179 C57.831,31.569 56.829,32.013 55.784,32.131 ZM51.165,32.031 C51.450,32.096 51.735,32.161 52.020,32.226 C51.738,32.264 51.455,32.303 51.173,32.341 C51.169,32.238 51.168,32.135 51.165,32.031 ZM57.042,31.124 C57.041,31.124 57.039,31.124 57.037,31.124 C57.032,31.122 57.026,31.121 57.021,31.119 L57.042,31.124 ZM56.255,29.785 C56.237,29.773 56.252,29.708 56.253,29.664 C56.321,29.672 56.389,29.678 56.458,29.686 C56.435,29.722 56.411,29.761 56.387,29.796 C56.342,29.794 56.288,29.807 56.255,29.785 ZM55.892,22.827 C55.923,22.853 55.955,22.879 55.986,22.904 C55.962,22.932 55.938,22.958 55.912,22.986 C55.906,22.932 55.899,22.880 55.892,22.827 ZM53.988,26.052 C54.039,26.042 54.095,26.013 54.141,26.026 C54.179,26.037 54.204,26.096 54.235,26.133 C54.201,26.173 54.166,26.212 54.131,26.249 C54.083,26.184 54.035,26.119 53.988,26.052 ZM51.155,30.779 C51.151,30.779 51.147,30.779 51.144,30.780 C51.149,30.772 51.157,30.765 51.162,30.757 C51.227,30.862 51.292,30.968 51.358,31.074 L51.340,31.069 C51.279,30.971 51.217,30.874 51.155,30.779 ZM49.058,32.534 L49.094,32.544 C49.083,32.552 49.070,32.560 49.059,32.567 C49.059,32.560 49.059,32.554 49.059,32.547 C48.468,32.587 47.878,32.650 47.286,32.662 C46.548,32.675 45.808,32.641 45.043,32.443 C45.975,31.679 46.672,30.497 48.160,31.149 C48.338,31.226 48.630,30.968 48.879,30.944 C49.631,30.868 50.389,30.831 51.144,30.780 C50.915,31.088 50.584,31.369 50.499,31.716 C50.297,32.552 49.690,32.527 49.058,32.534 ZM49.067,33.786 C49.067,33.778 49.067,33.770 49.067,33.761 C49.069,33.761 49.071,33.760 49.074,33.759 L49.067,33.786 ZM48.109,33.991 C47.923,34.011 47.720,33.893 47.222,33.751 C47.980,33.263 48.522,32.913 49.059,32.567 C49.063,32.965 49.065,33.363 49.067,33.761 C48.748,33.842 48.434,33.957 48.109,33.991 ZM47.167,27.910 C47.132,27.867 47.218,27.721 47.248,27.622 C47.385,27.690 47.534,27.740 47.649,27.832 C47.677,27.857 47.596,28.018 47.545,28.177 C47.407,28.084 47.259,28.020 47.167,27.910 ZM46.437,18.640 C46.435,18.606 46.483,18.570 46.511,18.533 C46.547,18.562 46.607,18.587 46.611,18.620 C46.615,18.652 46.563,18.691 46.535,18.727 C46.500,18.698 46.439,18.670 46.437,18.640 ZM46.121,10.813 C46.155,10.841 46.188,10.867 46.221,10.895 C46.164,10.909 46.109,10.921 46.029,10.941 C46.072,10.881 46.097,10.847 46.121,10.813 ZM42.561,34.907 C42.500,34.800 42.623,34.455 42.729,34.424 C42.887,34.376 43.136,34.469 43.285,34.584 C43.381,34.658 43.368,34.874 43.406,35.028 C43.298,35.120 43.191,35.211 43.083,35.303 C42.902,35.176 42.658,35.081 42.561,34.907 ZM41.765,28.248 C41.713,28.235 41.656,28.227 41.611,28.201 C41.600,28.195 41.619,28.092 41.633,28.090 C41.685,28.083 41.739,28.102 41.792,28.108 C41.895,28.075 41.999,28.011 42.103,28.015 C42.254,28.021 42.405,28.074 42.557,28.105 C42.397,28.191 42.244,28.302 42.073,28.351 C41.987,28.375 41.869,28.287 41.765,28.248 ZM42.076,26.407 C42.128,26.328 42.202,26.177 42.229,26.186 C42.340,26.221 42.437,26.306 42.539,26.373 C42.465,26.432 42.394,26.529 42.313,26.539 C42.242,26.546 42.157,26.455 42.076,26.407 ZM41.786,31.512 C41.698,31.478 41.612,31.444 41.525,31.411 C41.546,31.365 41.557,31.284 41.587,31.278 C41.678,31.258 41.774,31.266 41.868,31.262 C41.841,31.347 41.813,31.429 41.786,31.512 ZM39.572,33.670 C40.032,32.061 40.168,31.973 41.585,32.373 C40.893,32.819 40.302,33.200 39.572,33.670 ZM40.366,11.862 C40.363,11.825 40.416,11.786 40.443,11.747 C40.482,11.778 40.546,11.807 40.549,11.839 C40.551,11.876 40.497,11.915 40.468,11.952 C40.431,11.922 40.366,11.893 40.366,11.862 ZM38.448,48.123 C38.519,48.008 38.571,47.871 38.671,47.790 C38.714,47.754 38.925,47.824 38.933,47.867 C38.955,47.993 38.915,48.130 38.890,48.341 C38.692,48.244 38.571,48.184 38.448,48.123 ZM37.491,28.818 C37.404,28.797 37.332,28.714 37.255,28.652 C37.347,28.619 37.441,28.570 37.530,28.577 C37.678,28.589 37.821,28.648 37.965,28.694 C37.970,28.696 37.951,28.833 37.939,28.833 C37.790,28.839 37.636,28.853 37.491,28.818 ZM37.196,28.664 C37.210,28.653 37.221,28.645 37.234,28.634 C37.241,28.639 37.248,28.646 37.255,28.652 C37.246,28.655 37.237,28.659 37.229,28.662 C37.218,28.663 37.207,28.662 37.196,28.664 ZM33.869,29.300 C34.848,28.294 36.096,28.801 37.196,28.664 C35.899,29.731 35.214,29.872 33.869,29.300 ZM31.807,34.693 C31.950,34.537 32.071,34.365 32.232,34.256 C32.276,34.228 32.450,34.395 32.564,34.472 C32.423,34.628 32.288,34.791 32.131,34.929 C32.115,34.944 31.973,34.816 31.807,34.693 ZM28.262,30.338 C29.053,30.167 29.873,30.245 30.643,29.786 C31.128,29.497 31.941,29.348 32.513,30.164 C31.416,30.559 30.376,30.933 29.282,31.325 C28.955,31.009 28.609,30.673 28.262,30.338 ZM28.245,30.321 C28.251,30.326 28.256,30.332 28.262,30.338 C28.255,30.339 28.248,30.340 28.241,30.342 L28.245,30.321 ZM31.892,9.461 C31.928,9.486 31.965,9.510 32.002,9.536 C31.976,9.569 31.950,9.605 31.924,9.640 C31.914,9.580 31.902,9.521 31.892,9.461 ZM28.940,28.198 C28.865,28.156 28.829,27.831 28.896,27.769 C29.483,27.236 30.136,27.198 30.919,27.598 C30.814,27.853 30.805,27.921 30.769,27.952 C30.221,28.419 29.610,28.575 28.940,28.198 ZM29.726,11.074 C29.739,10.994 29.723,10.874 29.769,10.841 C29.856,10.779 29.979,10.769 30.107,10.732 C30.085,10.824 30.091,10.938 30.040,10.974 C29.953,11.033 29.832,11.042 29.726,11.074 ZM26.775,34.814 C26.862,34.832 26.951,34.848 27.039,34.866 C27.040,34.917 27.042,34.970 27.042,35.021 C26.954,35.005 26.862,34.995 26.778,34.964 C26.761,34.958 26.774,34.867 26.775,34.814 ZM24.590,38.936 C24.884,38.683 25.066,38.502 25.280,38.370 C25.316,38.349 25.489,38.549 25.600,38.646 C25.463,38.800 25.352,38.997 25.181,39.095 C25.090,39.147 24.898,39.025 24.590,38.936 ZM23.409,32.534 C23.361,32.473 23.330,32.396 23.293,32.326 C23.381,32.302 23.469,32.277 23.569,32.248 C23.560,32.332 23.563,32.415 23.537,32.485 C23.524,32.516 23.418,32.545 23.409,32.534 ZM23.296,46.081 C23.208,46.041 23.114,46.007 23.034,45.953 C23.020,45.943 23.047,45.815 23.074,45.809 C23.161,45.786 23.257,45.794 23.366,45.789 C23.341,45.890 23.319,45.986 23.296,46.081 ZM22.431,28.041 C22.499,27.986 22.619,27.992 22.716,27.974 C22.733,28.091 22.749,28.210 22.766,28.327 C22.663,28.318 22.562,28.307 22.459,28.297 C22.446,28.209 22.395,28.072 22.431,28.041 ZM21.332,30.555 C21.397,30.537 21.463,30.519 21.554,30.495 C21.506,30.565 21.478,30.605 21.451,30.647 C21.410,30.616 21.372,30.585 21.332,30.555 ZM19.901,30.876 C19.838,30.763 19.940,30.510 20.043,30.377 C20.084,30.324 20.392,30.380 20.454,30.469 C20.546,30.603 20.528,30.812 20.587,31.174 C20.227,31.030 19.974,31.003 19.901,30.876 ZM18.979,45.947 C18.971,45.767 18.966,45.659 18.960,45.552 C19.111,45.576 19.269,45.582 19.408,45.639 C19.441,45.653 19.433,45.918 19.403,45.925 C19.270,45.961 19.123,45.945 18.979,45.947 ZM18.914,31.581 C18.888,31.446 18.936,31.261 19.025,31.159 C19.069,31.109 19.358,31.165 19.381,31.228 C19.425,31.351 19.362,31.512 19.334,31.728 C19.153,31.669 18.926,31.644 18.914,31.581 ZM17.710,42.719 C17.678,42.677 17.896,42.342 18.060,42.257 C18.213,42.177 18.446,42.250 18.645,42.256 C18.598,42.439 18.549,42.624 18.386,43.263 C18.110,43.055 17.873,42.918 17.710,42.719 ZM18.005,25.687 C18.044,25.716 18.081,25.746 18.118,25.773 C18.055,25.789 17.992,25.803 17.904,25.825 C17.950,25.761 17.979,25.725 18.005,25.687 ZM17.097,19.305 C17.107,19.226 17.137,19.151 17.160,19.075 C17.211,19.139 17.268,19.200 17.309,19.270 C17.315,19.281 17.250,19.332 17.219,19.365 C17.175,19.345 17.094,19.318 17.097,19.305 ZM14.254,28.207 C14.273,28.197 14.293,28.186 14.312,28.176 L14.388,28.211 L14.306,28.207 C14.288,28.207 14.271,28.207 14.254,28.207 ZM13.859,28.205 C13.991,28.206 14.123,28.207 14.254,28.207 C14.142,28.268 14.028,28.329 13.916,28.390 C13.898,28.328 13.878,28.267 13.859,28.205 ZM8.657,44.216 C9.005,44.182 9.355,44.148 9.888,44.096 C9.355,44.785 9.003,44.587 8.657,44.216 ZM8.637,44.195 C8.643,44.202 8.650,44.208 8.657,44.216 C8.649,44.216 8.640,44.217 8.632,44.218 L8.637,44.195 ZM9.256,30.997 C9.269,31.000 9.281,31.003 9.293,31.006 L9.288,31.026 C9.278,31.016 9.267,31.007 9.256,30.997 ZM8.832,30.616 C8.974,30.744 9.116,30.870 9.256,30.997 C9.062,30.950 8.867,30.905 8.672,30.858 C8.727,30.777 8.779,30.696 8.832,30.616 ZM5.939,33.307 L5.997,33.424 L5.850,33.424 L5.939,33.307 ZM4.379,33.520 L4.490,33.515 L4.429,33.607 L4.379,33.520 ZM3.636,30.835 C3.660,30.808 3.692,30.756 3.708,30.761 C3.744,30.771 3.771,30.811 3.803,30.837 C3.778,30.863 3.747,30.915 3.731,30.910 C3.695,30.900 3.668,30.860 3.636,30.835 ZM1.630,28.541 C1.717,28.518 1.804,28.496 1.891,28.473 C1.801,28.503 1.714,28.533 1.626,28.562 L1.630,28.541 ZM0.001,28.617 C0.061,28.543 0.117,28.411 0.183,28.407 C0.271,28.403 0.366,28.498 0.459,28.550 C0.399,28.623 0.343,28.749 0.278,28.752 C0.189,28.755 0.094,28.667 0.001,28.617 ZM24.921,44.751 C24.914,44.702 24.908,44.654 24.902,44.606 C24.949,44.600 24.996,44.594 25.044,44.587 C25.003,44.641 24.963,44.696 24.921,44.751 ZM29.403,39.212 L29.308,39.156 L29.388,39.105 L29.403,39.212 ZM31.156,46.304 C31.155,46.339 31.107,46.374 31.080,46.410 C31.045,46.382 30.986,46.352 30.986,46.324 C30.985,46.287 31.034,46.252 31.061,46.216 C31.094,46.245 31.155,46.274 31.156,46.304 ZM31.528,32.912 C31.517,32.842 31.494,32.786 31.512,32.758 C31.527,32.734 31.590,32.741 31.632,32.734 C31.601,32.788 31.570,32.841 31.528,32.912 ZM37.502,31.266 C36.651,31.306 35.800,31.347 34.950,31.386 C34.942,31.258 34.935,31.129 34.927,31.001 C35.750,30.481 36.604,30.509 37.502,31.266 ZM37.006,33.462 L36.905,33.501 L36.912,33.384 L37.006,33.462 ZM37.518,48.913 L37.404,48.908 L37.474,48.820 L37.518,48.913 ZM40.134,45.467 C40.086,45.539 40.049,45.620 39.987,45.680 C39.964,45.704 39.891,45.683 39.841,45.681 C39.845,45.598 39.849,45.513 39.854,45.429 C39.947,45.441 40.039,45.454 40.134,45.467 ZM40.356,47.640 C40.261,47.653 40.168,47.667 40.073,47.680 C40.171,47.656 40.265,47.632 40.361,47.609 L40.356,47.640 ZM42.876,38.188 C42.881,38.235 42.905,38.294 42.885,38.325 C42.871,38.349 42.802,38.338 42.757,38.345 C42.751,38.297 42.747,38.249 42.742,38.202 C42.786,38.198 42.832,38.193 42.876,38.188 ZM41.334,45.364 C41.326,45.369 41.318,45.372 41.310,45.377 L41.314,45.358 C41.321,45.360 41.328,45.362 41.334,45.364 ZM43.171,45.954 C42.380,45.700 41.856,45.533 41.334,45.364 C41.948,45.027 42.534,44.860 43.171,45.954 ZM45.975,34.576 C45.952,34.654 45.935,34.795 45.901,34.799 C45.809,34.810 45.708,34.762 45.610,34.737 C45.635,34.659 45.651,34.521 45.686,34.518 C45.778,34.505 45.877,34.552 45.975,34.576 ZM45.888,43.968 C45.879,44.050 45.873,44.131 45.856,44.211 C45.855,44.218 45.769,44.204 45.724,44.200 C45.732,44.116 45.742,44.034 45.752,43.952 C45.798,43.958 45.842,43.962 45.888,43.968 ZM48.205,42.625 L48.115,42.570 L48.195,42.520 L48.205,42.625 ZM51.463,40.499 C51.478,40.540 51.509,40.588 51.499,40.625 C51.492,40.657 51.440,40.678 51.407,40.705 C51.371,40.678 51.335,40.651 51.299,40.624 C51.354,40.581 51.409,40.540 51.463,40.499 ZM51.871,44.599 C50.677,44.597 49.485,44.593 48.291,44.591 C48.291,44.461 48.291,44.332 48.291,44.202 C49.486,44.009 50.681,43.986 51.875,44.097 C51.874,44.265 51.872,44.432 51.871,44.599 ZM51.987,49.364 C51.990,49.493 51.992,49.623 51.995,49.752 C50.406,49.912 48.813,49.989 47.216,49.932 C47.226,49.729 47.237,49.526 47.247,49.323 C48.826,49.336 50.407,49.350 51.987,49.364 ZM54.373,38.702 C54.348,38.797 54.324,38.894 54.298,38.990 C54.198,39.010 54.098,39.029 53.998,39.049 C54.026,38.949 54.026,38.822 54.088,38.761 C54.148,38.704 54.276,38.718 54.373,38.702 ZM55.095,33.044 L55.036,32.954 L55.154,32.939 L55.095,33.044 ZM55.991,38.026 C55.998,38.058 55.951,38.099 55.929,38.135 C55.885,38.129 55.844,38.122 55.802,38.114 C55.833,38.055 55.865,37.994 55.896,37.934 C55.929,37.965 55.984,37.990 55.991,38.026 ZM57.695,36.764 C57.707,36.793 57.674,36.840 57.660,36.880 C57.602,36.844 57.545,36.807 57.486,36.769 C57.519,36.743 57.555,36.717 57.589,36.691 C57.626,36.714 57.682,36.731 57.695,36.764 ZM58.454,33.041 C58.472,33.131 58.467,33.223 58.471,33.315 C58.381,33.297 58.292,33.281 58.205,33.263 C58.238,33.182 58.264,33.093 58.312,33.022 C58.325,33.002 58.451,33.026 58.454,33.041 ZM58.471,38.487 C58.932,38.190 59.392,37.893 60.150,37.405 C59.706,38.374 59.051,38.372 58.471,38.487 ZM60.142,34.066 C60.285,34.112 60.429,34.158 60.690,34.242 C60.622,34.499 60.585,34.738 60.482,34.939 C60.455,34.992 60.216,34.931 60.074,34.922 C60.097,34.638 60.120,34.352 60.142,34.066 ZM67.944,15.551 C68.078,15.580 68.213,15.608 68.347,15.636 C68.315,15.727 68.308,15.874 68.252,15.896 C68.172,15.925 68.057,15.859 67.955,15.835 C67.951,15.740 67.948,15.645 67.944,15.551 ZM69.701,17.662 C69.812,17.664 69.923,17.666 70.034,17.667 C69.997,17.693 69.955,17.746 69.923,17.739 C69.847,17.721 69.774,17.690 69.701,17.662 ZM69.598,17.653 C69.606,17.647 69.614,17.641 69.623,17.635 C69.649,17.645 69.675,17.652 69.701,17.662 C69.673,17.662 69.646,17.661 69.618,17.661 C69.611,17.659 69.604,17.655 69.598,17.653 ZM68.735,17.848 C68.868,17.734 68.983,17.557 69.135,17.523 C69.271,17.491 69.442,17.599 69.598,17.653 C69.466,17.743 69.340,17.857 69.193,17.895 C69.055,17.931 68.890,17.867 68.735,17.848 ZM70.260,19.621 C70.179,19.638 70.098,19.653 70.016,19.669 C70.001,19.627 69.985,19.586 69.968,19.543 C70.050,19.527 70.132,19.505 70.214,19.500 C70.227,19.500 70.244,19.579 70.260,19.621 ZM65.532,31.320 C66.591,30.886 67.654,30.457 68.980,29.922 C68.049,31.655 69.741,30.947 70.309,31.544 C69.316,31.736 68.456,31.880 67.610,32.072 C66.907,32.230 66.223,32.467 65.520,32.619 C65.294,32.668 65.029,32.559 64.783,32.521 C64.834,32.222 64.826,31.890 64.957,31.632 C65.040,31.471 65.326,31.405 65.532,31.320 ZM65.679,34.005 C65.646,34.084 65.631,34.214 65.575,34.231 C65.495,34.257 65.388,34.201 65.292,34.182 C65.340,34.074 65.385,33.966 65.431,33.859 C65.514,33.907 65.597,33.956 65.679,34.005 ZM68.548,34.114 C68.411,34.264 68.302,34.480 68.133,34.545 C67.906,34.632 67.631,34.601 67.051,34.646 C67.487,34.271 67.651,34.032 67.866,33.973 C68.064,33.919 68.320,34.060 68.548,34.114 ZM71.565,28.971 C71.521,29.107 71.515,29.250 71.461,29.270 C71.321,29.323 71.160,29.321 71.006,29.341 C71.041,29.215 71.039,29.025 71.120,28.980 C71.229,28.919 71.402,28.969 71.565,28.971 ZM71.919,31.238 C71.939,31.356 72.004,31.559 71.968,31.578 C71.849,31.644 71.693,31.641 71.549,31.665 C71.528,31.531 71.481,31.374 71.506,31.361 C71.634,31.299 71.780,31.275 71.919,31.238 ZM72.231,34.030 C72.209,34.062 72.137,34.055 72.088,34.064 C72.058,34.018 72.029,33.974 71.999,33.928 C72.078,33.911 72.156,33.894 72.236,33.877 C72.236,33.929 72.257,33.997 72.231,34.030 ZM73.221,31.796 C73.172,31.807 73.123,31.818 73.075,31.829 C73.126,31.812 73.176,31.794 73.226,31.777 L73.221,31.796 ZM76.636,32.785 C76.696,32.787 76.751,32.947 76.928,33.217 C75.873,33.370 74.913,33.524 73.946,33.621 C73.824,33.634 73.558,33.344 73.549,33.188 C73.537,33.024 73.751,32.707 73.875,32.704 C74.795,32.693 75.716,32.737 76.636,32.785 ZM75.536,29.452 C75.238,29.416 75.025,29.391 74.812,29.365 C74.836,29.226 74.831,28.980 74.887,28.967 C75.085,28.921 75.304,28.937 75.508,28.974 C75.537,28.979 75.525,29.239 75.536,29.452 ZM76.141,17.628 L76.059,17.621 L76.067,17.588 L76.141,17.628 ZM77.534,18.546 L77.463,18.630 L77.424,18.537 L77.534,18.546 ZM75.324,26.311 C75.249,26.041 75.091,25.569 75.124,25.556 C76.237,25.113 77.372,24.717 78.487,24.318 C78.094,25.479 78.052,25.508 75.324,26.311 ZM75.298,26.319 C75.308,26.316 75.314,26.314 75.324,26.311 C75.325,26.316 75.327,26.322 75.328,26.327 L75.298,26.319 ZM77.982,31.524 C77.982,31.524 77.982,31.524 77.982,31.523 C78.915,30.789 79.890,30.535 80.955,31.307 C80.194,31.606 79.443,31.939 78.658,32.163 C78.481,32.214 78.182,31.863 77.939,31.697 C77.634,31.666 77.327,31.636 77.021,31.605 C77.034,31.507 77.047,31.407 77.060,31.308 C77.367,31.380 77.674,31.453 77.982,31.524 ZM80.989,31.329 C80.978,31.320 80.967,31.316 80.955,31.307 C80.968,31.302 80.981,31.297 80.993,31.292 L80.989,31.329 ZM81.017,31.311 C81.008,31.317 80.998,31.324 80.989,31.329 L80.994,31.294 C81.002,31.299 81.009,31.306 81.017,31.311 ZM81.286,31.176 C81.439,31.155 81.600,31.181 81.759,31.188 C81.757,31.282 81.771,31.456 81.751,31.460 C81.597,31.485 81.433,31.504 81.281,31.476 C81.187,31.458 81.104,31.374 81.017,31.311 C81.105,31.258 81.191,31.190 81.286,31.176 ZM78.783,42.859 C78.791,42.868 78.732,42.968 78.706,42.966 C78.622,42.961 78.540,42.927 78.458,42.904 C78.507,42.832 78.555,42.762 78.605,42.691 C78.667,42.746 78.732,42.796 78.783,42.859 ZM81.788,22.483 C81.822,22.514 81.878,22.544 81.883,22.579 C81.888,22.615 81.843,22.658 81.822,22.698 C81.779,22.692 81.736,22.685 81.692,22.680 C81.725,22.612 81.757,22.548 81.788,22.483 ZM80.562,32.458 C81.061,32.423 81.579,32.587 82.089,32.667 C82.065,32.839 82.041,33.008 82.016,33.177 C81.527,33.167 81.034,33.116 80.551,33.161 C80.213,33.194 79.777,33.708 79.685,32.973 C79.665,32.823 80.240,32.480 80.562,32.458 ZM80.754,41.509 C80.728,41.580 80.700,41.651 80.673,41.721 C80.629,41.714 80.584,41.707 80.541,41.700 C80.568,41.629 80.587,41.554 80.627,41.491 C80.636,41.476 80.710,41.502 80.754,41.509 ZM83.104,29.398 L82.963,29.390 L83.054,29.279 L83.104,29.398 ZM83.696,21.028 C83.553,21.091 83.410,21.153 83.268,21.216 L83.275,21.185 C83.416,21.133 83.555,21.080 83.696,21.028 ZM84.229,28.951 C84.250,28.990 84.292,29.036 84.285,29.069 C84.276,29.105 84.223,29.133 84.189,29.164 C84.157,29.104 84.124,29.042 84.093,28.981 C84.138,28.971 84.183,28.960 84.229,28.951 ZM86.018,19.653 L85.957,19.735 L85.916,19.651 L86.018,19.653 ZM87.859,33.903 C86.583,33.966 85.307,34.030 84.032,34.094 C85.288,33.017 86.559,33.211 87.859,33.903 ZM93.868,32.496 C93.316,32.744 92.766,32.993 92.049,33.316 C92.511,32.113 92.508,32.104 93.868,32.496 ZM96.343,49.270 C95.269,49.848 95.269,49.848 94.264,49.563 C94.849,48.873 95.447,49.021 96.343,49.270 ZM107.369,39.137 C107.360,39.156 107.247,39.150 107.239,39.131 C107.207,39.061 107.200,38.981 107.183,38.905 C107.270,38.904 107.356,38.906 107.442,38.906 C107.421,38.984 107.405,39.067 107.369,39.137 Z" class="cls-1"/>
</svg>
