<?xml version="1.0" encoding="utf-8"?>
<!-- Generator: Adobe Illustrator 19.0.0, SVG Export Plug-In . SVG Version: 6.00 Build 0)  -->
<svg version="1.1" id="Слой_1" xmlns="http://www.w3.org/2000/svg" xmlns:xlink="http://www.w3.org/1999/xlink" x="0px" y="0px"
	 viewBox="0 0 496 496" style="enable-background:new 0 0 496 496;" xml:space="preserve">
<style type="text/css">
	.st0{fill:#2e2e2e;}
	.st1{fill:#FC352E;}
	.st2{fill:#F4F4F4;}
</style>
<g>
	<path class="st0" d="M368,0H128c-22.1,0-40,17.9-40,40v208h16V64h288v24h16V40C408,17.9,390.1,0,368,0L368,0z M104,48v-8
		c0-13.2,10.8-24,24-24h240c13.2,0,24,10.8,24,24v8H104z M104,48"/>
	<path class="st0" d="M392,224v192H104v-24H88v64c0,22.1,17.9,40,40,40h240c22.1,0,40-17.9,40-40V224H392z M368,480H128
		c-13.2,0-24-10.8-24-24v-24h288v24C392,469.2,381.2,480,368,480L368,480z M368,480"/>
	<rect x="216" y="448" class="st0" width="64" height="16"/>
	<path class="st1" d="M496,288l-74.3-48H280c-22.1,0-40-17.9-40-40v-80c0-22.1,17.9-40,40-40h176c22.1,0,40,17.9,40,40V288z
		 M496,288"/>
	<path class="st1" d="M0,448V280c0-22.1,17.9-40,40-40h176c22.1,0,40,17.9,40,40v80c0,22.1-17.9,40-40,40H74.3L0,448z M0,448"/>
	<path class="st2" d="M368,184c-13.2,0-24-10.8-24-24c0-13.2,10.8-24,24-24s24,10.8,24,24C392,173.2,381.2,184,368,184L368,184z
		 M368,152c-4.4,0-8,3.6-8,8c0,4.4,3.6,8,8,8s8-3.6,8-8C376,155.6,372.4,152,368,152L368,152z M368,152"/>
	<path class="st2" d="M432,184c-13.2,0-24-10.8-24-24c0-13.2,10.8-24,24-24c13.2,0,24,10.8,24,24C456,173.2,445.2,184,432,184
		L432,184z M432,152c-4.4,0-8,3.6-8,8c0,4.4,3.6,8,8,8c4.4,0,8-3.6,8-8C440,155.6,436.4,152,432,152L432,152z M432,152"/>
	<path class="st2" d="M304,184c-13.2,0-24-10.8-24-24c0-13.2,10.8-24,24-24c13.2,0,24,10.8,24,24C328,173.2,317.2,184,304,184
		L304,184z M304,152c-4.4,0-8,3.6-8,8c0,4.4,3.6,8,8,8c4.4,0,8-3.6,8-8C312,155.6,308.4,152,304,152L304,152z M304,152"/>
</g>
<path class="st2" d="M65.5,350.4l-12.3-8.2l-6.8,10.2L71,368.7l39.7-92.6l-11.3-4.8L65.5,350.4z M65.5,350.4"/>
<path class="st2" d="M113.9,350.4l-12.3-8.2l-6.8,10.2l24.5,16.4l39.7-92.6l-11.3-4.8L113.9,350.4z M113.9,350.4"/>
<path class="st2" d="M162.5,350.4l-12.3-8.2l-6.8,10.2l24.5,16.4l39.7-92.6l-11.3-4.8L162.5,350.4z M162.5,350.4"/>
</svg>
