<svg xmlns="http://www.w3.org/2000/svg" width="24" height="47" viewBox="0 0 24 47">
  <defs>
    <style>
      .cls-1 {
        fill: #131313;
        fill-rule: evenodd;
      }
    </style>
  </defs>
  <path id="Фигура_735" data-name="Фигура 735" class="cls-1" d="M264,328.94a12,12,0,1,0-12.8,11.913V363.2a0.8,0.8,0,0,0,1.6,0V340.853A11.981,11.981,0,0,0,264,328.94h0ZM252,339.3a10.356,10.356,0,1,1,10.4-10.356A10.388,10.388,0,0,1,252,339.3h0Zm0,0-4-16.728a3.186,3.186,0,1,0,3.2,3.186,3.193,3.193,0,0,0-3.2-3.186h0Zm0,4.777a1.593,1.593,0,1,1,1.6-1.591,1.6,1.6,0,0,1-1.6,1.591h0Zm0,0" transform="translate(-240 -317)"/>
</svg>
