<svg xmlns="http://www.w3.org/2000/svg" width="38.656" height="38.781" viewBox="0 0 38.656 38.781">
  <defs>
    <style>
      .cls-1 {
        fill: #131313;
        fill-rule: evenodd;
      }
    </style>
  </defs>
  <path id="Фигура_665_копия" data-name="Фигура 665 копия" class="cls-1" d="M629.722,364a6.346,6.346,0,0,0,4.922-2.115l0.033-.032a19.964,19.964,0,0,1,1.546-1.6c0.374-.365.764-0.739,1.131-1.122a3.893,3.893,0,0,0-.017-5.79l-4.824-4.822a3.93,3.93,0,0,0-2.84-1.309,4.034,4.034,0,0,0-2.864,1.293l-2.872,2.871c-0.26-.155-0.529-0.285-0.789-0.415-0.317-.162-0.618-0.309-0.887-0.48A30.221,30.221,0,0,1,615,343.856a17.3,17.3,0,0,1-2.449-3.912c0.748-.683,1.456-1.39,2.131-2.082,0.244-.252.488-0.5,0.741-0.748a3.826,3.826,0,0,0,0-5.806l-2.393-2.391c-0.276-.277-0.553-0.553-0.821-0.829-0.529-.546-1.082-1.107-1.627-1.611a3.965,3.965,0,0,0-2.824-1.252,4.113,4.113,0,0,0-2.864,1.252l-3.01,3a6.254,6.254,0,0,0-1.847,3.96,14.816,14.816,0,0,0,1.115,6.432A37.372,37.372,0,0,0,607.828,351a40.977,40.977,0,0,0,13.684,10.71,21.288,21.288,0,0,0,7.657,2.261c0.187,0.016.374,0.025,0.553,0.025h0Zm-20.365-14.272a35.6,35.6,0,0,1-6.338-10.556,12.841,12.841,0,0,1-1-5.57,4.178,4.178,0,0,1,1.27-2.717l2.986-2.984a2.161,2.161,0,0,1,1.472-.683,2.059,2.059,0,0,1,1.441.691c0.537,0.5,1.049,1.025,1.586,1.578,0.277,0.285.553,0.569,0.838,0.846L614,332.723a1.854,1.854,0,0,1,0,2.976c-0.252.252-.5,0.5-0.749,0.756-0.74.756-1.448,1.464-2.213,2.155l-0.04.041a1.589,1.589,0,0,0-.407,1.8c0.008,0.025.016,0.041,0.024,0.064a19,19,0,0,0,2.815,4.587,32.206,32.206,0,0,0,7.746,7.051,10.661,10.661,0,0,0,1.066.578c0.317,0.163.618,0.308,0.887,0.479,0.032,0.017.057,0.033,0.089,0.049a1.763,1.763,0,0,0,.781.2,1.7,1.7,0,0,0,1.2-.553l3-3a2.11,2.11,0,0,1,1.456-.707,2.024,2.024,0,0,1,1.416.707l4.841,4.839a1.922,1.922,0,0,1-.025,3.009c-0.341.357-.691,0.7-1.066,1.065a22.957,22.957,0,0,0-1.676,1.74,4.395,4.395,0,0,1-3.441,1.456c-0.138,0-.285-0.008-0.423-0.016a19.228,19.228,0,0,1-6.916-2.074,39.086,39.086,0,0,1-13.018-10.189h0Zm0,0" transform="translate(-600 -325.219)"/>
</svg>
