<svg xmlns="http://www.w3.org/2000/svg" width="48" height="48" viewBox="0 0 48 48">
  <defs>
    <style>
      .cls-1 {
        fill: #131313;
        fill-rule: evenodd;
      }
    </style>
  </defs>
  <path id="_3" data-name="3" class="cls-1" d="M999,316a24,24,0,1,0,24,24,24.027,24.027,0,0,0-24-24h0Zm0,46.4a22.4,22.4,0,1,1,22.4-22.4A22.421,22.421,0,0,1,999,362.4h0Zm0,0,0-41.6a0.8,0.8,0,0,0-.8.8V340h-12a0.8,0.8,0,1,0,0,1.6H999a0.8,0.8,0,0,0,.8-0.8V321.6a0.8,0.8,0,0,0-.8-0.8h0Zm0,0" transform="translate(-975 -316)"/>
</svg>
