<svg xmlns="http://www.w3.org/2000/svg" xmlns:xlink="http://www.w3.org/1999/xlink" preserveAspectRatio="xMidYMid" width="48" height="47.719" viewBox="0 0 48 47.719">
  <defs>
    <style>
      .cls-1 {
        fill: #131313;
        fill-rule: evenodd;
      }
    </style>
  </defs>
  <path d="M-0.000,47.715 L-0.000,21.104 L4.801,16.659 L4.801,7.127 L15.094,7.127 L21.965,0.761 C23.105,-0.296 24.895,-0.296 26.035,0.761 L32.906,7.127 L43.199,7.127 L43.199,16.659 L48.000,21.104 L48.000,47.715 L-0.000,47.715 ZM44.828,46.122 L30.129,34.981 L17.871,34.981 L3.172,46.122 L44.828,46.122 ZM1.602,45.313 L16.039,34.370 C16.023,34.309 16.000,34.250 16.000,34.184 C16.000,34.122 16.023,34.064 16.039,34.001 L1.602,23.059 L1.602,45.313 ZM4.801,18.834 L2.031,21.399 C2.055,21.415 2.082,21.423 2.105,21.442 L4.801,23.482 L4.801,18.834 ZM24.941,1.927 C24.414,1.437 23.586,1.437 23.055,1.927 L17.441,7.127 L30.559,7.127 L24.941,1.927 ZM41.602,8.719 L6.398,8.719 L6.398,24.695 L17.871,33.392 L30.129,33.392 L41.602,24.695 L41.602,8.719 ZM43.199,18.834 L43.199,23.482 L45.895,21.442 C45.918,21.423 45.945,21.415 45.969,21.399 L43.199,18.834 ZM46.398,23.059 L31.719,34.188 L46.398,45.313 L46.398,23.059 ZM28.000,27.023 C28.000,26.583 28.359,26.226 28.801,26.226 L33.602,26.226 C34.043,26.226 34.398,26.583 34.398,27.023 C34.398,27.461 34.043,27.819 33.602,27.819 L28.801,27.819 C28.359,27.819 28.000,27.461 28.000,27.023 ZM33.602,21.454 C33.391,21.454 33.184,21.364 33.031,21.220 C32.879,21.069 32.801,20.863 32.801,20.657 C32.801,20.439 32.887,20.241 33.031,20.090 C33.328,19.798 33.863,19.798 34.168,20.090 C34.312,20.241 34.398,20.439 34.398,20.657 C34.398,20.863 34.312,21.069 34.168,21.220 C34.016,21.364 33.809,21.454 33.602,21.454 ZM30.398,21.454 L24.801,21.454 C24.359,21.454 24.000,21.096 24.000,20.657 C24.000,20.218 24.359,19.860 24.801,19.860 L30.398,19.860 C30.844,19.860 31.199,20.214 31.199,20.657 C31.199,21.096 30.844,21.454 30.398,21.454 ZM26.398,15.085 L21.602,15.085 C21.156,15.085 20.801,14.731 20.801,14.288 C20.801,13.849 21.156,13.495 21.602,13.495 L26.398,13.495 C26.844,13.495 27.199,13.849 27.199,14.288 C27.199,14.731 26.844,15.085 26.398,15.085 ZM18.398,21.454 L14.398,21.454 C13.957,21.454 13.602,21.096 13.602,20.657 C13.602,20.214 13.957,19.860 14.398,19.860 L18.398,19.860 C18.844,19.860 19.199,20.214 19.199,20.657 C19.199,21.096 18.844,21.454 18.398,21.454 ZM14.969,26.459 C15.113,26.607 15.199,26.816 15.199,27.023 C15.199,27.229 15.113,27.438 14.969,27.590 C14.816,27.729 14.617,27.819 14.398,27.819 C14.191,27.819 13.984,27.729 13.832,27.590 C13.680,27.438 13.602,27.229 13.602,27.023 C13.602,26.816 13.680,26.607 13.832,26.459 C14.129,26.163 14.672,26.163 14.969,26.459 ZM21.031,21.220 C20.887,21.069 20.801,20.863 20.801,20.657 C20.801,20.439 20.887,20.233 21.031,20.090 C21.328,19.798 21.871,19.798 22.168,20.090 C22.312,20.241 22.398,20.439 22.398,20.657 C22.398,20.863 22.312,21.069 22.168,21.220 C22.016,21.364 21.809,21.454 21.602,21.454 C21.391,21.454 21.184,21.364 21.031,21.220 ZM17.602,26.226 L25.602,26.226 C26.043,26.226 26.398,26.583 26.398,27.023 C26.398,27.461 26.043,27.819 25.602,27.819 L17.602,27.819 C17.156,27.819 16.801,27.461 16.801,27.023 C16.801,26.583 17.156,26.226 17.602,26.226 Z" class="cls-1"/>
</svg>
