<svg xmlns="http://www.w3.org/2000/svg" width="15" height="15" viewBox="0 0 15 15">
  <defs>
    <style>
      .cls-1 {
        fill: #fc352e;
        fill-rule: evenodd;
      }
    </style>
  </defs>
  <path id="Фигура_10_копия_2" data-name="Фигура 10 копия 2" class="cls-1" d="M664.985,905.708a0.273,0.273,0,0,0-.217-0.192l-4.856-.741-2.172-4.62a0.262,0.262,0,0,0-.481,0l-2.172,4.62-4.856.741a0.275,0.275,0,0,0-.217.192,0.294,0.294,0,0,0,.068.289l3.514,3.6-0.829,5.078a0.291,0.291,0,0,0,.106.276,0.256,0.256,0,0,0,.283.021l4.344-2.4,4.343,2.4a0.257,0.257,0,0,0,.125.033,0.265,0.265,0,0,0,.158-0.054,0.29,0.29,0,0,0,.107-0.276l-0.83-5.078,3.514-3.6A0.291,0.291,0,0,0,664.985,905.708Z" transform="translate(-650 -900)"/>
</svg>
