<?xml version="1.0" encoding="utf-8"?>
<!-- Generator: Adobe Illustrator 19.0.0, SVG Export Plug-In . SVG Version: 6.00 Build 0)  -->
<svg version="1.1" id="OBJECTS" xmlns="http://www.w3.org/2000/svg" xmlns:xlink="http://www.w3.org/1999/xlink" x="0px" y="0px"
	 viewBox="0 0 298.1 360.8" style="enable-background:new 0 0 298.1 360.8;" xml:space="preserve">
<style type="text/css">
	.st0{fill:#2C2C2C;}
	.st1{fill:url(#XMLID_3_);stroke:#606060;stroke-width:0.1594;stroke-miterlimit:10;}
	.st2{fill:url(#XMLID_5_);stroke:#606060;stroke-width:0.1594;stroke-miterlimit:10;}
	.st3{fill:url(#XMLID_6_);stroke:#606060;stroke-width:0.1594;stroke-miterlimit:10;}
	.st4{fill:url(#XMLID_7_);stroke:#878787;stroke-width:0.3187;stroke-miterlimit:10;}
	.st5{fill:url(#XMLID_8_);stroke:#545454;stroke-width:0.3187;stroke-miterlimit:10;}
	.st6{fill:url(#XMLID_9_);}
	.st7{fill:#1C212B;}
	.st8{fill:#011226;}
	.st9{fill:#232323;}
	.st10{fill:#FFFFFF;}
	.st11{fill:#FC352E;}
	.st12{fill:#24272C;}
	.st13{font-family:'Stolzl-Regular';}
	.st14{font-size:26.8376px;}
	.st15{fill-rule:evenodd;clip-rule:evenodd;fill:#FFFFFF;}
</style>
<g>
	<g id="XMLID_112_">
		<path id="XMLID_111_" class="st0" d="M212.5,360.8H90.6c-15.3,0-27.8-12.4-27.8-27.8V27.8C62.8,12.4,75.2,0,90.6,0h121.9
			c15.3,0,27.8,12.4,27.8,27.8V333C240.3,348.4,227.8,360.8,212.5,360.8z"/>
		<linearGradient id="XMLID_3_" gradientUnits="userSpaceOnUse" x1="63.6139" y1="74.9058" x2="63.6139" y2="100.0337">
			<stop  offset="0" style="stop-color:#A8A8A8"/>
			<stop  offset="0.2688" style="stop-color:#787878"/>
			<stop  offset="0.914" style="stop-color:#6C6C6C"/>
			<stop  offset="1" style="stop-color:#808285"/>
		</linearGradient>
		<path id="XMLID_93_" class="st1" d="M64.9,100h-1.8c-0.4,0-0.8-0.4-0.8-0.8V75.7c0-0.4,0.4-0.8,0.8-0.8h1.8V100z"/>
		<linearGradient id="XMLID_5_" gradientUnits="userSpaceOnUse" x1="63.6405" y1="107.8962" x2="63.6405" y2="133.0242">
			<stop  offset="0" style="stop-color:#A8A8A8"/>
			<stop  offset="0.2688" style="stop-color:#787878"/>
			<stop  offset="0.914" style="stop-color:#58595B"/>
			<stop  offset="1" style="stop-color:#808285"/>
		</linearGradient>
		<path id="XMLID_92_" class="st2" d="M64.9,133h-1.8c-0.4,0-0.8-0.4-0.8-0.8v-23.5c0-0.4,0.4-0.8,0.8-0.8h1.8V133z"/>
		
			<linearGradient id="XMLID_6_" gradientUnits="userSpaceOnUse" x1="-1976.2358" y1="-36.7284" x2="-1976.2358" y2="-78.2453" gradientTransform="matrix(-1 0 0 -1 -1736.6965 46.5445)">
			<stop  offset="0" style="stop-color:#A8A8A8"/>
			<stop  offset="0.2688" style="stop-color:#787878"/>
			<stop  offset="0.914" style="stop-color:#6C6C6C"/>
			<stop  offset="1" style="stop-color:#808285"/>
		</linearGradient>
		<path id="XMLID_91_" class="st3" d="M238.2,83.3L238.2,83.3c1.4,0,2.6,1.2,2.6,2.6v36.3c0,1.4-1.2,2.6-2.6,2.6l0,0V83.3z"/>
		<linearGradient id="XMLID_7_" gradientUnits="userSpaceOnUse" x1="151.5417" y1="1.275" x2="151.5417" y2="359.5478">
			<stop  offset="3.763440e-002" style="stop-color:#A7A9AC"/>
			<stop  offset="0.3925" style="stop-color:#FFFFFF"/>
			<stop  offset="1" style="stop-color:#939598"/>
		</linearGradient>
		<path id="XMLID_110_" class="st4" d="M90.6,359.5c-14.6,0-26.5-11.9-26.5-26.5V27.8C64.1,13.2,76,1.3,90.6,1.3h121.9
			c14.6,0,26.5,11.9,26.5,26.5V333c0,14.6-11.9,26.5-26.5,26.5H90.6z"/>
		<linearGradient id="XMLID_8_" gradientUnits="userSpaceOnUse" x1="65.9845" y1="180.4113" x2="237.0989" y2="180.4113">
			<stop  offset="0" style="stop-color:#231F20"/>
			<stop  offset="1" style="stop-color:#0D0D0D"/>
		</linearGradient>
		<path id="XMLID_109_" class="st5" d="M90.6,357.6C77,357.6,66,346.6,66,333V27.8C66,14.2,77,3.2,90.6,3.2h121.9
			c13.6,0,24.6,11,24.6,24.6V333c0,13.6-11,24.6-24.6,24.6H90.6z"/>
		
			<image style="overflow:visible;" width="159" height="343" id="XMLID_1_" xlink:href="B6C309B9.png"  transform="matrix(1 0 0 1 71.7768 9.0639)">
		</image>
		
			<image style="overflow:visible;" width="34" height="355" id="XMLID_107_" xlink:href="B6C309BB.png"  transform="matrix(1 0 0 1 65.7768 3.0639)">
		</image>
		
			<image style="overflow:visible;" width="34" height="355" id="XMLID_106_" xlink:href="B6C309BE.png"  transform="matrix(1 0 0 1 203.7768 3.0639)">
		</image>
		<linearGradient id="XMLID_9_" gradientUnits="userSpaceOnUse" x1="110.2373" y1="15.778" x2="195.2368" y2="15.778">
			<stop  offset="0" style="stop-color:#231F20"/>
			<stop  offset="1" style="stop-color:#0D0D0D"/>
		</linearGradient>
		<path id="XMLID_105_" class="st6" d="M186.7,23.6h-67.9c-4.7,0-8.6-3.8-8.6-8.6V7.9h85v7.2C195.2,19.8,191.4,23.6,186.7,23.6z"/>
		
			<image style="overflow:visible;opacity:0.51;" width="132" height="4" id="XMLID_104_" xlink:href="B6C309BF.png"  transform="matrix(1 0 0 1 86.7768 8.0639)">
		</image>
		
			<image style="overflow:visible;" width="125" height="10" id="XMLID_103_" xlink:href="B6C309BA.png"  transform="matrix(1 0 0 1 90.7768 6.390000e-002)">
		</image>
		
			<image style="overflow:visible;" width="132" height="8" id="XMLID_102_" xlink:href="B6C309B5.png"  transform="matrix(1 0 0 1 86.7768 352.0639)">
		</image>
		<g id="XMLID_95_">
			<circle id="XMLID_101_" class="st7" cx="175.7" cy="16.5" r="3.9"/>
			<g id="XMLID_96_">
				<circle id="XMLID_98_" class="st8" cx="175.7" cy="16.5" r="2.5"/>
				
					<image style="overflow:visible;" width="6" height="5" id="XMLID_97_" xlink:href="B6C309B6.png"  transform="matrix(1 0 0 1 172.7768 14.0639)">
				</image>
			</g>
		</g>
		<path id="XMLID_94_" class="st9" d="M163.1,17.9h-24.5c-0.6,0-1.1-0.5-1.1-1.1l0,0c0-0.6,0.5-1.1,1.1-1.1h24.5
			c0.6,0,1.1,0.5,1.1,1.1l0,0C164.3,17.4,163.8,17.9,163.1,17.9z"/>
		<g id="XMLID_88_">
			<path id="XMLID_90_" class="st0" d="M63.7,50.9h-1.6c-0.3,0-0.5-0.2-0.5-0.5v-1c0-0.3,0.2-0.5,0.5-0.5h1.6V50.9z"/>
			<path id="XMLID_89_" class="st0" d="M63.7,62.4h-1.6c-0.3,0-0.5-0.2-0.5-0.5v-1c0-0.3,0.2-0.5,0.5-0.5h1.6V62.4z"/>
		</g>
		<g id="XMLID_99_">
			<rect id="XMLID_77_" x="63.8" y="35.8" class="st0" width="2.4" height="1.7"/>
			<rect id="XMLID_100_" x="236.9" y="35.8" class="st0" width="2.4" height="1.7"/>
		</g>
		<g id="XMLID_113_">
			<rect id="XMLID_115_" x="63.8" y="325.9" class="st0" width="2.4" height="1.7"/>
			<rect id="XMLID_114_" x="236.9" y="325.9" class="st0" width="2.4" height="1.7"/>
		</g>
	</g>
</g>
<g>
	<g>
		<path class="st10" d="M298.1,44.9V170c0,2.1-1.4,3.9-3.2,3.9H88.3c-1.8,0-3.2-1.8-3.2-3.9V44.9c0-2.2,1.4-3.9,3.2-3.9h206.6
			C296.7,41,298.1,42.8,298.1,44.9z"/>
		<path class="st11" d="M298.1,44.9V170c0,2.2-1.6,3.9-3.7,3.9H193.2V41h101.3C296.5,41,298.1,42.8,298.1,44.9z"/>
		<g>
			<path class="st10" d="M277.9,100.6h-63.2c-2.5,0-4.6-2.1-4.6-4.6l0,0c0-2.5,2.1-4.6,4.6-4.6h63.2c2.5,0,4.6,2.1,4.6,4.6l0,0
				C282.5,98.5,280.4,100.6,277.9,100.6z"/>
		</g>
		<path class="st11" d="M140.6,67.1c-10.7,0-19.4,8.7-19.4,19.4c0,10.7,19.4,34.5,19.4,34.5s19.4-23.8,19.4-34.5
			C159.9,75.8,151.3,67.1,140.6,67.1z M140.6,95.3c-5,0-9.1-4.1-9.1-9.1c0-5,4.1-9.1,9.1-9.1c5,0,9.1,4.1,9.1,9.1
			C149.6,91.3,145.6,95.3,140.6,95.3z"/>
		<g>
			<path class="st12" d="M147.7,147.7h-44.6c-1.6,0-2.8-1.3-2.8-2.8l0,0c0-1.6,1.3-2.8,2.8-2.8h44.6c1.6,0,2.8,1.3,2.8,2.8l0,0
				C150.5,146.4,149.3,147.7,147.7,147.7z"/>
			<path class="st12" d="M136.8,159.2h-34.2c-1.3,0-2.4-1.1-2.4-2.4v-0.9c0-1.3,1.1-2.4,2.4-2.4h34.2c1.3,0,2.4,1.1,2.4,2.4v0.9
				C139.2,158.1,138.1,159.2,136.8,159.2z"/>
		</g>
		<path class="st10" d="M273.8,159.7h-55c-4.8,0-8.7-4.2-8.7-9.4l0,0c0-5.1,3.9-9.4,8.7-9.4h55c4.8,0,8.7,4.2,8.7,9.4l0,0
			C282.5,155.5,278.6,159.7,273.8,159.7z"/>
		<text transform="matrix(1.0291 0 0 1 210.0873 76.6835)" class="st10 st13 st14">18:30</text>
	</g>
	<g>
		<path class="st10" d="M221.1,198.5v125.1c0,2.2-1.8,3.9-3.9,3.9H3.9c-2.2,0-3.9-1.8-3.9-3.9V198.5c0-2.1,1.8-3.9,3.9-3.9h213.3
			C219.4,194.6,221.1,196.4,221.1,198.5z"/>
		<path class="st11" d="M221.1,198.5v125.1c0,2.2-1.6,3.9-3.6,3.9H113.8V194.6h103.8C219.5,194.6,221.1,196.4,221.1,198.5z"/>
		<path class="st15" d="M185.6,247.4l-1.4-1.4c-0.2-0.2-0.4-0.3-0.7-0.3c-0.3,0-0.5,0.1-0.7,0.3l-18.3,28.7l-11.5-10.1
			c-0.2-0.2-0.4-0.3-0.7-0.3c-0.3,0-0.5,0.1-0.7,0.3l-1.4,1.4c-0.2,0.2-0.3,0.4-0.3,0.7c0,0.3,0.1,0.5,0.3,0.7l12.2,10.8l1.4,1.4
			c0.2,0.2,0.4,0.3,0.7,0.3c0.3,0,0.5-0.1,0.7-0.3l1.4-1.4l19-29.4c0.2-0.2,0.3-0.4,0.3-0.7C185.9,247.9,185.8,247.6,185.6,247.4
			L185.6,247.4z"/>
		<g>
			<g>
				<path class="st10" d="M168,294c-16.8,0-30.4-13.7-30.4-30.4c0-16.8,13.7-30.4,30.4-30.4c16.8,0,30.4,13.7,30.4,30.4
					C198.4,280.4,184.8,294,168,294z M168,236.7c-14.8,0-26.9,12.1-26.9,26.9c0,14.8,12.1,26.9,26.9,26.9
					c14.8,0,26.9-12.1,26.9-26.9C194.9,248.8,182.8,236.7,168,236.7z"/>
			</g>
		</g>
		<g>
			<g>
				<path class="st12" d="M33.3,226.5c-6.2,0-11.2,5-11.2,11.2c0,6.2,5,11.2,11.2,11.2s11.2-5,11.2-11.2
					C44.4,231.5,39.4,226.5,33.3,226.5z M41,238h-7.7c-0.2,0-0.4-0.2-0.4-0.4v-8.3c0-0.2,0.2-0.4,0.4-0.4c0.2,0,0.4,0.2,0.4,0.4v8
					H41c0.2,0,0.4,0.2,0.4,0.4C41.4,237.9,41.2,238,41,238z"/>
				<g>
					<path class="st12" d="M90.7,233.5H55.3c-1.2,0-2.3-1-2.3-2.3l0,0c0-1.2,1-2.3,2.3-2.3h35.4c1.2,0,2.3,1,2.3,2.3l0,0
						C92.9,232.5,91.9,233.5,90.7,233.5z"/>
					<path class="st12" d="M81.7,242.3H55.3c-1.2,0-2.3-1-2.3-2.3l0,0c0-1.2,1-2.3,2.3-2.3h26.4c1.2,0,2.3,1,2.3,2.3v0
						C83.9,241.3,82.9,242.3,81.7,242.3z"/>
				</g>
			</g>
			<g>
				<path class="st12" d="M32.2,269.7c-5.5,0-10,4.5-10,10c0,5.5,10,17.9,10,17.9s10-12.3,10-17.9C42.2,274.2,37.7,269.7,32.2,269.7
					z M32.2,284.3c-2.6,0-4.7-2.1-4.7-4.7c0-2.6,2.1-4.7,4.7-4.7c2.6,0,4.7,2.1,4.7,4.7C36.8,282.2,34.7,284.3,32.2,284.3z"/>
				<g>
					<path class="st12" d="M88,277H52.6c-1.2,0-2.3-1-2.3-2.3l0,0c0-1.2,1-2.3,2.3-2.3H88c1.2,0,2.3,1,2.3,2.3l0,0
						C90.2,276,89.2,277,88,277z"/>
					<path class="st12" d="M79,286.8H52.6c-1.2,0-2.3-1-2.3-2.3l0,0c0-1.2,1-2.3,2.3-2.3H79c1.2,0,2.3,1,2.3,2.3v0
						C81.2,285.8,80.2,286.8,79,286.8z"/>
				</g>
			</g>
		</g>
	</g>
</g>
<g>
	<path class="st10" d="M246.9,116.6h-32.2c-2.5,0-4.6-2.1-4.6-4.6l0,0c0-2.5,2.1-4.6,4.6-4.6h32.2c2.5,0,4.6,2.1,4.6,4.6l0,0
		C251.5,114.5,249.4,116.6,246.9,116.6z"/>
</g>
</svg>
