<svg xmlns="http://www.w3.org/2000/svg" xmlns:xlink="http://www.w3.org/1999/xlink" preserveAspectRatio="xMidYMid" width="10" height="11" viewBox="0 0 10 11">
  <defs>
    <style>
      .cls-1 {
        fill: #4b4b4b;
        fill-rule: evenodd;
      }
    </style>
  </defs>
  <path d="M9.612,8.692 L9.221,8.692 C9.158,7.067 7.791,5.761 6.107,5.761 C4.424,5.761 3.056,7.067 2.994,8.692 L0.384,8.692 C0.268,8.692 0.158,8.641 0.085,8.554 C0.011,8.467 -0.018,8.353 0.003,8.242 L1.590,0.305 C1.625,0.128 1.785,-0.000 1.970,-0.000 L5.964,-0.000 C6.127,-0.000 6.273,0.099 6.328,0.248 L7.760,4.099 C7.816,4.247 7.960,4.347 8.122,4.348 L8.485,4.351 C9.324,4.357 10.000,5.021 10.000,5.837 L10.000,8.314 C10.000,8.523 9.826,8.692 9.612,8.692 ZM6.393,2.986 L5.800,1.025 C5.773,0.933 5.685,0.869 5.586,0.869 L2.492,0.869 C2.383,0.869 2.289,0.946 2.271,1.051 L1.936,3.012 C1.925,3.075 1.943,3.139 1.986,3.188 C2.028,3.237 2.090,3.265 2.157,3.265 L6.178,3.265 C6.249,3.265 6.315,3.233 6.357,3.178 C6.400,3.123 6.413,3.052 6.393,2.986 ZM6.107,6.607 C7.351,6.607 8.363,7.592 8.363,8.803 C8.363,10.014 7.351,11.000 6.107,11.000 C4.863,11.000 3.851,10.014 3.851,8.803 C3.851,7.592 4.863,6.607 6.107,6.607 ZM6.107,9.872 C6.713,9.872 7.205,9.393 7.205,8.803 C7.205,8.214 6.713,7.735 6.107,7.735 C5.502,7.735 5.010,8.214 5.010,8.803 C5.010,9.393 5.502,9.872 6.107,9.872 Z" class="cls-1"/>
</svg>
