<svg xmlns="http://www.w3.org/2000/svg" xmlns:xlink="http://www.w3.org/1999/xlink" preserveAspectRatio="xMidYMid" width="10" height="14.031" viewBox="0 0 10 14.031">
  <defs>
    <style>
      .cls-1 {
        fill: #4b4b4b;
        fill-rule: evenodd;
      }
    </style>
  </defs>
  <path d="M5.000,-0.001 C2.243,-0.001 0.000,2.274 0.000,5.069 C0.000,8.539 4.474,13.632 4.665,13.848 C4.844,14.049 5.156,14.049 5.335,13.848 C5.525,13.632 10.000,8.539 10.000,5.069 C10.000,2.274 7.757,-0.001 5.000,-0.001 ZM5.000,7.620 C3.613,7.620 2.484,6.476 2.484,5.069 C2.484,3.663 3.613,2.518 5.000,2.518 C6.387,2.518 7.516,3.663 7.516,5.069 C7.516,6.476 6.387,7.620 5.000,7.620 Z" class="cls-1"/>
</svg>
