<svg xmlns="http://www.w3.org/2000/svg" xmlns:xlink="http://www.w3.org/1999/xlink" preserveAspectRatio="xMidYMid" width="20" height="20" viewBox="0 0 20 20">
  <defs>
    <style>
      .cls-1 {
        fill: #131313;
        fill-rule: evenodd;
      }
    </style>
  </defs>
  <path d="M10.908,9.063 L10.931,0.883 C10.933,0.396 10.542,0.004 10.057,0.007 C9.573,0.008 9.178,0.405 9.176,0.891 L9.154,9.062 L0.895,9.056 C0.408,9.055 0.013,9.452 0.014,9.940 C0.015,10.430 0.411,10.827 0.898,10.828 L9.150,10.834 L9.126,19.129 C9.125,19.615 9.516,20.007 10.000,20.005 C10.484,20.003 10.879,19.607 10.881,19.121 L10.904,10.835 L19.122,10.841 C19.609,10.841 20.004,10.445 20.003,9.956 C20.002,9.467 19.606,9.070 19.119,9.069 L10.908,9.063 Z" class="cls-1"/>
</svg>
